<svg width="309" height="366" viewBox="0 0 309 366" fill="none" xmlns="http://www.w3.org/2000/svg">
<g clip-path="url(#clip0_357_3558)">
<rect width="309" height="366" rx="25" fill="#63059D"/>
<g opacity="0.5" filter="url(#filter0_f_357_3558)">
<ellipse cx="155.093" cy="51.0638" rx="6.15228" ry="5.99106" fill="url(#paint0_radial_357_3558)"/>
</g>
<path fill-rule="evenodd" clip-rule="evenodd" d="M154.067 226.136C203.335 226.136 243.275 187.243 243.275 139.266C243.275 91.2884 203.335 52.3952 154.067 52.3952C104.799 52.3952 64.8589 91.2884 64.8589 139.266C64.8589 187.243 104.799 226.136 154.067 226.136ZM154.067 228.133C204.468 228.133 245.326 188.346 245.326 139.266C245.326 90.1855 204.468 50.3982 154.067 50.3982C103.666 50.3982 62.8081 90.1855 62.8081 139.266C62.8081 188.346 103.666 228.133 154.067 228.133Z" fill="url(#paint1_linear_357_3558)"/>
<g filter="url(#filter1_f_357_3558)">
<path d="M155.093 41.0789L155.972 50.1463L164.663 51.064L155.972 51.9816L155.093 61.0491L154.213 51.9816L145.522 51.064L154.213 50.1463L155.093 41.0789Z" fill="white"/>
</g>
<path d="M143.796 111.954L140.215 33H168.861L165.28 111.954H143.796Z" fill="url(#paint2_linear_357_3558)"/>
<path d="M177.301 134.525L249.308 170.983L234.985 195.141L166.559 152.644L177.301 134.525Z" fill="url(#paint3_linear_357_3558)"/>
<path d="M164.768 154.046L168.349 233H139.703L143.284 154.046H164.768Z" fill="url(#paint4_linear_357_3558)"/>
<path d="M142.142 152.894L73.7158 195.391L59.3928 171.233L131.399 134.776L142.142 152.894Z" fill="url(#paint5_linear_357_3558)"/>
<path d="M177.301 131.599L249.308 95.1414L234.985 70.9832L166.559 113.48L177.301 131.599Z" fill="url(#paint6_linear_357_3558)"/>
<path d="M142.142 113.23L73.7158 70.7335L59.3928 94.8916L131.399 131.349L142.142 113.23Z" fill="url(#paint7_linear_357_3558)"/>
<g filter="url(#filter2_dd_357_3558)">
<path d="M102.582 123.433L102.582 103.809L55.0001 103.809C55.0001 116.074 63.9042 123.433 71.1388 123.433L102.582 123.433Z" fill="url(#paint8_linear_357_3558)"/>
<path d="M102.582 123.433L102.582 103.809L55.0001 103.809C55.0001 116.074 63.9042 123.433 71.1388 123.433L102.582 123.433Z" stroke="url(#paint9_linear_357_3558)" stroke-width="2.29412"/>
<path d="M119.375 140.877L119.375 121.253L71.7935 121.253C71.7935 133.518 80.6976 140.877 87.9323 140.877L119.375 140.877Z" fill="url(#paint10_linear_357_3558)"/>
<path d="M119.375 140.877L119.375 121.253L71.7935 121.253C71.7935 133.518 80.6976 140.877 87.9323 140.877L119.375 140.877Z" stroke="url(#paint11_linear_357_3558)" stroke-width="2.29412"/>
<path d="M207.418 123.433L207.418 103.809L255 103.809C255 116.074 246.096 123.433 238.861 123.433L207.418 123.433Z" fill="url(#paint12_linear_357_3558)"/>
<path d="M207.418 123.433L207.418 103.809L255 103.809C255 116.074 246.096 123.433 238.861 123.433L207.418 123.433Z" stroke="url(#paint13_linear_357_3558)" stroke-width="2.29412"/>
<path d="M190.625 140.877L190.625 121.253L238.206 121.253C238.206 133.518 229.302 140.877 222.068 140.877L190.625 140.877Z" fill="url(#paint14_linear_357_3558)"/>
<path d="M190.625 140.877L190.625 121.253L238.206 121.253C238.206 133.518 229.302 140.877 222.068 140.877L190.625 140.877Z" stroke="url(#paint15_linear_357_3558)" stroke-width="2.29412"/>
<g filter="url(#filter3_d_357_3558)">
<path fill-rule="evenodd" clip-rule="evenodd" d="M127.671 164.638V206.858L141.335 214.008C142.001 214.357 142.799 213.874 142.799 213.123C142.798 197.598 142.813 180.01 142.813 164.638H127.671Z" fill="#9CB7ED"/>
<path fill-rule="evenodd" clip-rule="evenodd" d="M127.671 164.638V206.858L141.335 214.008C142.001 214.357 142.799 213.874 142.799 213.123C142.798 197.598 142.813 180.01 142.813 164.638H127.671Z" stroke="url(#paint16_linear_357_3558)"/>
</g>
<path fill-rule="evenodd" clip-rule="evenodd" d="M128.922 204.967V188.399H128.646V205.192L128.761 205.211C129.144 205.273 129.569 205.493 129.917 205.815C130.264 206.137 130.52 206.549 130.584 206.983L130.595 207.055L141.789 212.636V193.927H141.512V212.212L130.846 206.872C130.755 206.392 130.469 205.955 130.107 205.62C129.761 205.299 129.335 205.061 128.922 204.967Z" fill="url(#paint17_linear_357_3558)"/>
<path fill-rule="evenodd" clip-rule="evenodd" d="M141.497 211.226C141.795 210.735 141.812 210.038 141.789 209.588L141.513 209.601C141.536 210.049 141.511 210.673 141.259 211.089C141.136 211.29 140.963 211.439 140.713 211.5C140.459 211.562 140.109 211.538 139.626 211.355L139.526 211.606C140.039 211.801 140.452 211.842 140.781 211.761C141.114 211.68 141.344 211.478 141.497 211.226Z" fill="#E3EFFB"/>
<g filter="url(#filter4_d_357_3558)">
<path fill-rule="evenodd" clip-rule="evenodd" d="M125.238 205.907V164.638H107.662V195.692C107.662 196.852 108.331 197.908 109.379 198.404L125.238 205.907Z" fill="#C6D9FF"/>
<path fill-rule="evenodd" clip-rule="evenodd" d="M125.238 205.907V164.638H107.662V195.692C107.662 196.852 108.331 197.908 109.379 198.404L125.238 205.907Z" stroke="url(#paint18_linear_357_3558)"/>
</g>
<path fill-rule="evenodd" clip-rule="evenodd" d="M108.964 195.594V176.043H108.638V195.859L108.774 195.881C109.226 195.954 109.728 196.214 110.137 196.594C110.547 196.974 110.85 197.46 110.925 197.972L110.938 198.057L124.147 204.082V182.566H123.82V203.582L111.234 197.841C111.126 197.274 110.789 196.759 110.363 196.364C109.954 195.985 109.451 195.704 108.964 195.594Z" fill="url(#paint19_linear_357_3558)"/>
<path fill-rule="evenodd" clip-rule="evenodd" d="M123.802 202.418C124.154 201.838 124.174 201.016 124.147 200.485L123.821 200.501C123.848 201.03 123.819 201.765 123.521 202.256C123.376 202.494 123.172 202.669 122.877 202.741C122.578 202.815 122.164 202.786 121.594 202.571L121.476 202.867C122.082 203.096 122.568 203.145 122.957 203.05C123.35 202.953 123.621 202.715 123.802 202.418Z" fill="#F2F9FF"/>
<g filter="url(#filter5_d_357_3558)">
<path fill-rule="evenodd" clip-rule="evenodd" d="M182.831 164.638V206.858L169.166 214.008C168.501 214.357 167.703 213.874 167.703 213.123C167.704 197.598 167.688 180.01 167.688 164.638H182.831Z" fill="#9CB7ED"/>
<path fill-rule="evenodd" clip-rule="evenodd" d="M182.831 164.638V206.858L169.166 214.008C168.501 214.357 167.703 213.874 167.703 213.123C167.704 197.598 167.688 180.01 167.688 164.638H182.831Z" stroke="url(#paint20_linear_357_3558)"/>
</g>
<path fill-rule="evenodd" clip-rule="evenodd" d="M181.579 204.967V188.399H181.856V205.192L181.74 205.211C181.358 205.273 180.932 205.493 180.585 205.815C180.238 206.137 179.981 206.549 179.917 206.983L179.907 207.055L168.712 212.636V193.927H168.989V212.212L179.656 206.872C179.747 206.392 180.033 205.955 180.394 205.62C180.741 205.299 181.166 205.061 181.579 204.967Z" fill="url(#paint21_linear_357_3558)"/>
<path fill-rule="evenodd" clip-rule="evenodd" d="M169.005 211.226C168.707 210.735 168.69 210.038 168.713 209.588L168.989 209.601C168.966 210.049 168.991 210.673 169.243 211.089C169.366 211.29 169.539 211.439 169.789 211.5C170.042 211.562 170.393 211.538 170.876 211.355L170.976 211.606C170.463 211.801 170.05 211.842 169.721 211.761C169.388 211.68 169.158 211.478 169.005 211.226Z" fill="#E3EFFB"/>
<g filter="url(#filter6_d_357_3558)">
<path fill-rule="evenodd" clip-rule="evenodd" d="M185.264 205.907V164.638H202.84V195.692C202.84 196.852 202.171 197.908 201.123 198.404L185.264 205.907Z" fill="#C6D9FF"/>
<path fill-rule="evenodd" clip-rule="evenodd" d="M185.264 205.907V164.638H202.84V195.692C202.84 196.852 202.171 197.908 201.123 198.404L185.264 205.907Z" stroke="url(#paint22_linear_357_3558)"/>
</g>
<path fill-rule="evenodd" clip-rule="evenodd" d="M201.538 195.594V176.043H201.865V195.859L201.728 195.881C201.277 195.954 200.775 196.214 200.365 196.594C199.956 196.974 199.652 197.46 199.577 197.972L199.565 198.057L186.355 204.082V182.566H186.682V203.582L199.269 197.841C199.376 197.274 199.714 196.759 200.14 196.364C200.549 195.985 201.051 195.704 201.538 195.594Z" fill="url(#paint23_linear_357_3558)"/>
<path fill-rule="evenodd" clip-rule="evenodd" d="M186.701 202.418C186.348 201.838 186.328 201.016 186.356 200.485L186.682 200.501C186.655 201.03 186.683 201.765 186.982 202.256C187.126 202.494 187.331 202.669 187.625 202.741C187.925 202.815 188.339 202.786 188.908 202.571L189.027 202.867C188.421 203.096 187.934 203.145 187.546 203.05C187.152 202.953 186.881 202.715 186.701 202.418Z" fill="#F2F9FF"/>
<g filter="url(#filter7_d_357_3558)">
<path d="M138.407 152.282H172.08V218.664L156.503 227.918C155.595 228.457 154.464 228.457 153.557 227.916L138.407 218.892V152.282Z" fill="#6A88C4"/>
<path d="M138.407 152.282H172.08V218.664L156.503 227.918C155.595 228.457 154.464 228.457 153.557 227.916L138.407 218.892V152.282Z" stroke="url(#paint24_linear_357_3558)" stroke-width="2"/>
</g>
<path fill-rule="evenodd" clip-rule="evenodd" d="M140.115 193.627H140.603V217.493L155.001 226.139L169.64 217.492V193.627H170.128V217.759L154.999 226.696L140.115 217.758V193.627Z" fill="url(#paint25_linear_357_3558)"/>
<path fill-rule="evenodd" clip-rule="evenodd" d="M155.211 216.438V225.059H154.787V216.438H155.211Z" fill="url(#paint26_linear_357_3558)"/>
<path fill-rule="evenodd" clip-rule="evenodd" d="M153.728 222C152.883 222.948 151.855 223.159 151.146 223.044L151.216 222.637C151.781 222.728 152.661 222.567 153.407 221.729C154.157 220.887 154.787 219.343 154.787 216.644H155.211C155.211 219.397 154.569 221.055 153.728 222Z" fill="url(#paint27_linear_357_3558)"/>
<path fill-rule="evenodd" clip-rule="evenodd" d="M156.27 222C157.115 222.948 158.143 223.159 158.852 223.044L158.782 222.637C158.218 222.728 157.337 222.567 156.591 221.729C155.841 220.887 155.211 219.343 155.211 216.644H154.787C154.787 219.397 155.429 221.055 156.27 222Z" fill="url(#paint28_linear_357_3558)"/>
<path fill-rule="evenodd" clip-rule="evenodd" d="M154.91 225.247L150.12 222.634L151.18 222.634L154.998 224.833L158.816 222.615H159.752L155.086 225.248C155.03 225.272 154.965 225.272 154.91 225.247Z" fill="url(#paint29_linear_357_3558)"/>
<g filter="url(#filter8_d_357_3558)">
<path d="M147.042 68.1053L103.04 91.4146C97.4771 94.3616 93.9981 100.142 93.9981 106.437L93.998 159.398C93.998 165.694 97.4771 171.474 103.04 174.421L147.042 197.73C152.02 200.367 157.98 200.367 162.958 197.73L206.96 174.421C212.523 171.474 216.002 165.694 216.002 159.398L216.002 106.437C216.002 100.142 212.523 94.3616 206.96 91.4146L162.958 68.1053C157.98 65.4685 152.02 65.4685 147.042 68.1053Z" fill="url(#paint30_linear_357_3558)"/>
<path d="M146.999 78.5443L112.278 96.9369C106.736 99.8728 103.27 105.631 103.27 111.903L103.27 153.692C103.27 159.964 106.736 165.722 112.278 168.658L146.999 187.051C151.957 189.678 157.896 189.678 162.854 187.051L197.575 168.658C203.117 165.722 206.583 159.964 206.583 153.692L206.583 111.903C206.583 105.631 203.117 99.8728 197.575 96.9369L162.854 78.5443C157.896 75.9174 151.957 75.9174 146.999 78.5443Z" fill="url(#paint31_linear_357_3558)"/>
<g filter="url(#filter9_f_357_3558)">
<path d="M146.999 78.5443L112.278 96.9369C106.736 99.8728 103.27 105.631 103.27 111.903L103.27 153.692C103.27 159.964 106.736 165.722 112.278 168.658L146.999 187.051C151.957 189.678 157.896 189.678 162.854 187.051L197.575 168.658C203.117 165.722 206.583 159.964 206.583 153.692L206.583 111.903C206.583 105.631 203.117 99.8728 197.575 96.9369L162.854 78.5443C157.896 75.9174 151.957 75.9174 146.999 78.5443Z" stroke="url(#paint32_linear_357_3558)"/>
</g>
<g opacity="0.5">
<mask id="mask0_357_3558" style="mask-type:alpha" maskUnits="userSpaceOnUse" x="107" y="81" width="96" height="104">
<path d="M147.708 83.0854L116.237 99.742C110.962 102.534 107.663 108.013 107.663 113.981L107.663 151.8C107.663 157.768 110.962 163.247 116.237 166.039L147.708 182.695C152.422 185.19 158.066 185.19 162.78 182.695L194.252 166.039C199.526 163.247 202.826 157.768 202.826 151.8L202.826 113.981C202.826 108.013 199.526 102.534 194.252 99.742L162.78 83.0854C158.066 80.5904 152.422 80.5903 147.708 83.0854Z" fill="#A6D3DE"/>
</mask>
<g mask="url(#mask0_357_3558)">
<path d="M147.708 83.0854L116.237 99.742C110.962 102.534 107.663 108.013 107.663 113.981L107.663 151.8C107.663 157.768 110.962 163.247 116.237 166.039L147.708 182.695C152.422 185.19 158.066 185.19 162.78 182.695L194.252 166.039C199.526 163.247 202.826 157.768 202.826 151.8L202.826 113.981C202.826 108.013 199.526 102.534 194.252 99.742L162.78 83.0854C158.066 80.5904 152.422 80.5903 147.708 83.0854Z" fill="url(#paint33_radial_357_3558)"/>
<path opacity="0.5" d="M147.29 188.809L145.399 76.9668H165.088L163.198 188.809H147.29Z" fill="url(#paint34_linear_357_3558)"/>
<path opacity="0.5" d="M147.036 187.817L87.9736 91.8788L105.025 82.2923L160.814 180.071L147.036 187.817Z" fill="url(#paint35_linear_357_3558)"/>
<path opacity="0.5" d="M145.396 180.071L201.185 82.2925L218.236 91.879L159.173 187.817L145.396 180.071Z" fill="url(#paint36_linear_357_3558)"/>
<rect x="107.663" y="126.497" width="95.163" height="60.1817" fill="url(#paint37_linear_357_3558)"/>
<g filter="url(#filter10_i_357_3558)">
<path d="M147.708 83.0854L116.237 99.742C110.962 102.534 107.663 108.013 107.663 113.981L107.663 151.8C107.663 157.768 110.962 163.247 116.237 166.039L147.708 182.695C152.422 185.19 158.066 185.19 162.78 182.695L194.252 166.039C199.526 163.247 202.826 157.768 202.826 151.8L202.826 113.981C202.826 108.013 199.526 102.534 194.252 99.742L162.78 83.0854C158.066 80.5904 152.422 80.5903 147.708 83.0854Z" fill="#6052B4" fill-opacity="0.01"/>
</g>
</g>
</g>
</g>
</g>
<g filter="url(#filter11_d_357_3558)">
<path fill-rule="evenodd" clip-rule="evenodd" d="M154.555 140.401C166.414 140.401 176.028 131.04 176.028 119.491C176.028 107.943 166.414 98.5813 154.555 98.5813C142.696 98.5813 133.083 107.943 133.083 119.491C133.083 131.04 142.696 140.401 154.555 140.401ZM151.235 139.189C160.23 139.189 167.521 132.089 167.521 123.33C167.521 114.571 160.23 107.471 151.235 107.471C142.241 107.471 134.949 114.571 134.949 123.33C134.949 132.089 142.241 139.189 151.235 139.189Z" fill="url(#paint38_linear_357_3558)"/>
</g>
<path d="M48.2578 268.625V280H47.3047V268.625H48.2578ZM52.1562 268.625V269.453H43.4141V268.625H52.1562ZM54.7987 268V280H53.8691V268H54.7987ZM54.5878 275.25L54.1737 275.016C54.205 274.516 54.3066 274.047 54.4784 273.609C54.6503 273.172 54.8821 272.786 55.1737 272.453C55.4706 272.12 55.817 271.859 56.2128 271.672C56.6139 271.484 57.0566 271.391 57.5409 271.391C57.9628 271.391 58.3404 271.448 58.6737 271.562C59.0071 271.677 59.2909 271.859 59.5253 272.109C59.7597 272.359 59.9368 272.68 60.0566 273.07C60.1816 273.461 60.2441 273.938 60.2441 274.5V280H59.3066V274.492C59.3066 273.909 59.2258 273.453 59.0644 273.125C58.9029 272.792 58.6737 272.555 58.3769 272.414C58.08 272.273 57.7284 272.203 57.3222 272.203C56.8743 272.203 56.481 272.302 56.1425 272.5C55.8092 272.693 55.5279 272.945 55.2987 273.258C55.0748 273.565 54.9029 273.896 54.7831 274.25C54.6633 274.599 54.5982 274.932 54.5878 275.25ZM65.9959 280.156C65.4439 280.156 64.936 280.055 64.4725 279.852C64.0142 279.648 63.6131 279.362 63.2694 278.992C62.9308 278.622 62.6678 278.185 62.4803 277.68C62.298 277.169 62.2069 276.612 62.2069 276.008V275.672C62.2069 275.021 62.3032 274.432 62.4959 273.906C62.6886 273.38 62.9543 272.93 63.2928 272.555C63.6314 272.18 64.0168 271.893 64.4491 271.695C64.8866 271.492 65.3449 271.391 65.8241 271.391C66.3605 271.391 66.8371 271.487 67.2537 271.68C67.6704 271.867 68.0194 272.135 68.3006 272.484C68.5871 272.828 68.8032 273.237 68.9491 273.711C69.0949 274.18 69.1678 274.698 69.1678 275.266V275.836H62.7694V275.039H68.2381V274.93C68.2277 274.456 68.1314 274.013 67.9491 273.602C67.772 273.185 67.5064 272.846 67.1522 272.586C66.798 272.326 66.3553 272.195 65.8241 272.195C65.4282 272.195 65.0636 272.279 64.7303 272.445C64.4022 272.612 64.1183 272.852 63.8787 273.164C63.6444 273.471 63.4621 273.839 63.3319 274.266C63.2069 274.688 63.1444 275.156 63.1444 275.672V276.008C63.1444 276.477 63.2121 276.914 63.3475 277.32C63.4881 277.721 63.686 278.076 63.9412 278.383C64.2017 278.69 64.509 278.93 64.8631 279.102C65.2173 279.273 65.6079 279.359 66.035 279.359C66.535 279.359 66.9777 279.268 67.3631 279.086C67.7485 278.898 68.0949 278.604 68.4022 278.203L68.9881 278.656C68.8058 278.927 68.5767 279.177 68.3006 279.406C68.0298 279.635 67.7043 279.818 67.3241 279.953C66.9439 280.089 66.5011 280.156 65.9959 280.156ZM76.1541 277.844C76.1541 277.615 76.0968 277.388 75.9822 277.164C75.8676 276.94 75.6462 276.734 75.3181 276.547C74.9952 276.359 74.5186 276.201 73.8884 276.07C73.4197 275.966 73.0004 275.849 72.6306 275.719C72.266 275.589 71.9587 275.432 71.7087 275.25C71.4587 275.068 71.2686 274.849 71.1384 274.594C71.0082 274.339 70.9431 274.036 70.9431 273.688C70.9431 273.375 71.0108 273.081 71.1462 272.805C71.2869 272.523 71.4848 272.279 71.74 272.07C72.0004 271.857 72.3129 271.69 72.6775 271.57C73.0473 271.451 73.4614 271.391 73.9197 271.391C74.5707 271.391 75.128 271.503 75.5916 271.727C76.0603 271.945 76.4171 272.245 76.6619 272.625C76.9119 273.005 77.0369 273.435 77.0369 273.914H76.1072C76.1072 273.622 76.0212 273.346 75.8494 273.086C75.6827 272.826 75.4353 272.612 75.1072 272.445C74.7843 272.279 74.3884 272.195 73.9197 272.195C73.4353 272.195 73.0421 272.268 72.74 272.414C72.4379 272.56 72.2166 272.745 72.0759 272.969C71.9405 273.193 71.8728 273.424 71.8728 273.664C71.8728 273.852 71.9015 274.023 71.9587 274.18C72.0212 274.331 72.1306 274.471 72.2869 274.602C72.4483 274.732 72.6775 274.854 72.9744 274.969C73.2712 275.083 73.6567 275.195 74.1306 275.305C74.8129 275.456 75.3702 275.641 75.8025 275.859C76.24 276.073 76.5629 276.339 76.7712 276.656C76.9796 276.969 77.0837 277.349 77.0837 277.797C77.0837 278.146 77.0108 278.466 76.865 278.758C76.7192 279.044 76.5082 279.292 76.2322 279.5C75.9614 279.708 75.6332 279.87 75.2478 279.984C74.8676 280.099 74.4405 280.156 73.9666 280.156C73.253 280.156 72.6489 280.039 72.1541 279.805C71.6645 279.565 71.2921 279.253 71.0369 278.867C70.7869 278.477 70.6619 278.062 70.6619 277.625H71.5916C71.6228 278.062 71.7608 278.409 72.0056 278.664C72.2504 278.914 72.5499 279.091 72.9041 279.195C73.2634 279.299 73.6176 279.352 73.9666 279.352C74.4457 279.352 74.8468 279.281 75.1697 279.141C75.4926 279 75.7374 278.815 75.9041 278.586C76.0707 278.357 76.1541 278.109 76.1541 277.844ZM82.5466 280.156C81.9945 280.156 81.4867 280.055 81.0231 279.852C80.5648 279.648 80.1637 279.362 79.82 278.992C79.4815 278.622 79.2184 278.185 79.0309 277.68C78.8486 277.169 78.7575 276.612 78.7575 276.008V275.672C78.7575 275.021 78.8539 274.432 79.0466 273.906C79.2393 273.38 79.5049 272.93 79.8434 272.555C80.182 272.18 80.5674 271.893 80.9997 271.695C81.4372 271.492 81.8955 271.391 82.3747 271.391C82.9111 271.391 83.3877 271.487 83.8044 271.68C84.221 271.867 84.57 272.135 84.8512 272.484C85.1377 272.828 85.3539 273.237 85.4997 273.711C85.6455 274.18 85.7184 274.698 85.7184 275.266V275.836H79.32V275.039H84.7887V274.93C84.7783 274.456 84.682 274.013 84.4997 273.602C84.3226 273.185 84.057 272.846 83.7028 272.586C83.3486 272.326 82.9059 272.195 82.3747 272.195C81.9789 272.195 81.6143 272.279 81.2809 272.445C80.9528 272.612 80.669 272.852 80.4294 273.164C80.195 273.471 80.0127 273.839 79.8825 274.266C79.7575 274.688 79.695 275.156 79.695 275.672V276.008C79.695 276.477 79.7627 276.914 79.8981 277.32C80.0387 277.721 80.2367 278.076 80.4919 278.383C80.7523 278.69 81.0596 278.93 81.4137 279.102C81.7679 279.273 82.1585 279.359 82.5856 279.359C83.0856 279.359 83.5283 279.268 83.9137 279.086C84.2992 278.898 84.6455 278.604 84.9528 278.203L85.5387 278.656C85.3565 278.927 85.1273 279.177 84.8512 279.406C84.5804 279.635 84.2549 279.818 83.8747 279.953C83.4945 280.089 83.0518 280.156 82.5466 280.156ZM96.7691 278.484V274.125C96.7691 273.724 96.6857 273.378 96.5191 273.086C96.3524 272.794 96.1076 272.57 95.7847 272.414C95.4618 272.258 95.0633 272.18 94.5894 272.18C94.1519 272.18 93.7612 272.258 93.4175 272.414C93.079 272.565 92.8107 272.771 92.6128 273.031C92.4201 273.286 92.3237 273.57 92.3237 273.883L91.3862 273.875C91.3862 273.557 91.4644 273.25 91.6206 272.953C91.7769 272.656 91.9982 272.391 92.2847 272.156C92.5711 271.922 92.9123 271.737 93.3081 271.602C93.7092 271.461 94.1493 271.391 94.6284 271.391C95.2326 271.391 95.7639 271.492 96.2222 271.695C96.6857 271.898 97.0477 272.203 97.3081 272.609C97.5685 273.016 97.6987 273.526 97.6987 274.141V278.227C97.6987 278.518 97.7196 278.82 97.7612 279.133C97.8081 279.445 97.8732 279.703 97.9566 279.906V280H96.9644C96.9019 279.812 96.8524 279.578 96.8159 279.297C96.7847 279.01 96.7691 278.74 96.7691 278.484ZM96.9878 275.078L97.0034 275.797H95.1675C94.6883 275.797 94.2586 275.841 93.8784 275.93C93.5034 276.013 93.1857 276.138 92.9253 276.305C92.6649 276.466 92.4644 276.661 92.3237 276.891C92.1883 277.12 92.1206 277.38 92.1206 277.672C92.1206 277.974 92.1961 278.25 92.3472 278.5C92.5034 278.75 92.7222 278.951 93.0034 279.102C93.2899 279.247 93.6284 279.32 94.0191 279.32C94.5399 279.32 94.9982 279.224 95.3941 279.031C95.7951 278.839 96.1258 278.586 96.3862 278.273C96.6467 277.961 96.8211 277.62 96.9097 277.25L97.3159 277.789C97.2482 278.049 97.1232 278.318 96.9409 278.594C96.7639 278.865 96.5321 279.12 96.2456 279.359C95.9592 279.594 95.6206 279.786 95.23 279.938C94.8446 280.083 94.4071 280.156 93.9175 280.156C93.3654 280.156 92.8836 280.052 92.4722 279.844C92.0659 279.635 91.7482 279.352 91.5191 278.992C91.2951 278.628 91.1831 278.216 91.1831 277.758C91.1831 277.341 91.2717 276.969 91.4487 276.641C91.6258 276.307 91.881 276.026 92.2144 275.797C92.5529 275.562 92.9592 275.385 93.4331 275.266C93.9123 275.141 94.4487 275.078 95.0425 275.078H96.9878ZM101.216 272.945V280H100.287V271.547H101.193L101.216 272.945ZM104.208 271.484L104.185 272.344C104.081 272.328 103.979 272.315 103.88 272.305C103.781 272.294 103.675 272.289 103.56 272.289C103.154 272.289 102.797 272.365 102.49 272.516C102.188 272.661 101.932 272.867 101.724 273.133C101.516 273.393 101.357 273.701 101.248 274.055C101.138 274.404 101.076 274.779 101.06 275.18L100.716 275.312C100.716 274.76 100.774 274.247 100.888 273.773C101.003 273.299 101.177 272.885 101.412 272.531C101.651 272.172 101.951 271.893 102.31 271.695C102.675 271.492 103.102 271.391 103.591 271.391C103.711 271.391 103.828 271.401 103.943 271.422C104.063 271.438 104.151 271.458 104.208 271.484ZM108.867 280.156C108.314 280.156 107.807 280.055 107.343 279.852C106.885 279.648 106.484 279.362 106.14 278.992C105.801 278.622 105.538 278.185 105.351 277.68C105.169 277.169 105.077 276.612 105.077 276.008V275.672C105.077 275.021 105.174 274.432 105.367 273.906C105.559 273.38 105.825 272.93 106.163 272.555C106.502 272.18 106.887 271.893 107.32 271.695C107.757 271.492 108.216 271.391 108.695 271.391C109.231 271.391 109.708 271.487 110.124 271.68C110.541 271.867 110.89 272.135 111.171 272.484C111.458 272.828 111.674 273.237 111.82 273.711C111.966 274.18 112.038 274.698 112.038 275.266V275.836H105.64V275.039H111.109V274.93C111.098 274.456 111.002 274.013 110.82 273.602C110.643 273.185 110.377 272.846 110.023 272.586C109.669 272.326 109.226 272.195 108.695 272.195C108.299 272.195 107.934 272.279 107.601 272.445C107.273 272.612 106.989 272.852 106.749 273.164C106.515 273.471 106.333 273.839 106.202 274.266C106.077 274.688 106.015 275.156 106.015 275.672V276.008C106.015 276.477 106.083 276.914 106.218 277.32C106.359 277.721 106.557 278.076 106.812 278.383C107.072 278.69 107.38 278.93 107.734 279.102C108.088 279.273 108.479 279.359 108.906 279.359C109.406 279.359 109.848 279.268 110.234 279.086C110.619 278.898 110.966 278.604 111.273 278.203L111.859 278.656C111.676 278.927 111.447 279.177 111.171 279.406C110.9 279.635 110.575 279.818 110.195 279.953C109.814 280.089 109.372 280.156 108.867 280.156ZM123.089 278.484V274.125C123.089 273.724 123.006 273.378 122.839 273.086C122.672 272.794 122.428 272.57 122.105 272.414C121.782 272.258 121.383 272.18 120.909 272.18C120.472 272.18 120.081 272.258 119.738 272.414C119.399 272.565 119.131 272.771 118.933 273.031C118.74 273.286 118.644 273.57 118.644 273.883L117.706 273.875C117.706 273.557 117.784 273.25 117.941 272.953C118.097 272.656 118.318 272.391 118.605 272.156C118.891 271.922 119.232 271.737 119.628 271.602C120.029 271.461 120.469 271.391 120.948 271.391C121.553 271.391 122.084 271.492 122.542 271.695C123.006 271.898 123.368 272.203 123.628 272.609C123.889 273.016 124.019 273.526 124.019 274.141V278.227C124.019 278.518 124.04 278.82 124.081 279.133C124.128 279.445 124.193 279.703 124.277 279.906V280H123.284C123.222 279.812 123.172 279.578 123.136 279.297C123.105 279.01 123.089 278.74 123.089 278.484ZM123.308 275.078L123.323 275.797H121.488C121.008 275.797 120.579 275.841 120.198 275.93C119.823 276.013 119.506 276.138 119.245 276.305C118.985 276.466 118.784 276.661 118.644 276.891C118.508 277.12 118.441 277.38 118.441 277.672C118.441 277.974 118.516 278.25 118.667 278.5C118.823 278.75 119.042 278.951 119.323 279.102C119.61 279.247 119.948 279.32 120.339 279.32C120.86 279.32 121.318 279.224 121.714 279.031C122.115 278.839 122.446 278.586 122.706 278.273C122.967 277.961 123.141 277.62 123.23 277.25L123.636 277.789C123.568 278.049 123.443 278.318 123.261 278.594C123.084 278.865 122.852 279.12 122.566 279.359C122.279 279.594 121.941 279.786 121.55 279.938C121.165 280.083 120.727 280.156 120.238 280.156C119.685 280.156 119.204 280.052 118.792 279.844C118.386 279.635 118.068 279.352 117.839 278.992C117.615 278.628 117.503 278.216 117.503 277.758C117.503 277.341 117.592 276.969 117.769 276.641C117.946 276.307 118.201 276.026 118.534 275.797C118.873 275.562 119.279 275.385 119.753 275.266C120.232 275.141 120.769 275.078 121.363 275.078H123.308ZM129.724 279.352C130.12 279.352 130.489 279.279 130.833 279.133C131.182 278.982 131.469 278.76 131.692 278.469C131.922 278.172 132.052 277.81 132.083 277.383H132.974C132.948 277.919 132.784 278.398 132.482 278.82C132.185 279.237 131.794 279.565 131.31 279.805C130.831 280.039 130.302 280.156 129.724 280.156C129.135 280.156 128.614 280.049 128.161 279.836C127.713 279.622 127.338 279.326 127.036 278.945C126.734 278.56 126.505 278.112 126.349 277.602C126.198 277.086 126.122 276.531 126.122 275.938V275.609C126.122 275.016 126.198 274.464 126.349 273.953C126.505 273.438 126.734 272.99 127.036 272.609C127.338 272.224 127.713 271.924 128.161 271.711C128.609 271.497 129.127 271.391 129.716 271.391C130.32 271.391 130.862 271.513 131.341 271.758C131.825 272.003 132.211 272.349 132.497 272.797C132.789 273.245 132.948 273.776 132.974 274.391H132.083C132.057 273.938 131.937 273.547 131.724 273.219C131.51 272.891 131.229 272.638 130.88 272.461C130.531 272.284 130.143 272.195 129.716 272.195C129.237 272.195 128.828 272.289 128.489 272.477C128.151 272.659 127.875 272.911 127.661 273.234C127.453 273.552 127.299 273.917 127.2 274.328C127.101 274.734 127.052 275.161 127.052 275.609V275.938C127.052 276.391 127.099 276.823 127.192 277.234C127.291 277.641 127.445 278.003 127.653 278.32C127.867 278.638 128.143 278.891 128.482 279.078C128.825 279.26 129.239 279.352 129.724 279.352ZM135.866 268V280H134.937V268H135.866ZM135.655 275.25L135.241 275.016C135.272 274.516 135.374 274.047 135.546 273.609C135.718 273.172 135.95 272.786 136.241 272.453C136.538 272.12 136.884 271.859 137.28 271.672C137.681 271.484 138.124 271.391 138.608 271.391C139.03 271.391 139.408 271.448 139.741 271.562C140.075 271.677 140.358 271.859 140.593 272.109C140.827 272.359 141.004 272.68 141.124 273.07C141.249 273.461 141.312 273.938 141.312 274.5V280H140.374V274.492C140.374 273.909 140.293 273.453 140.132 273.125C139.97 272.792 139.741 272.555 139.444 272.414C139.147 272.273 138.796 272.203 138.39 272.203C137.942 272.203 137.549 272.302 137.21 272.5C136.877 272.693 136.595 272.945 136.366 273.258C136.142 273.565 135.97 273.896 135.851 274.25C135.731 274.599 135.666 274.932 135.655 275.25ZM144.837 271.547V280H143.907V271.547H144.837ZM143.743 269.102C143.743 268.924 143.798 268.776 143.907 268.656C144.022 268.531 144.178 268.469 144.376 268.469C144.574 268.469 144.73 268.531 144.845 268.656C144.964 268.776 145.024 268.924 145.024 269.102C145.024 269.273 144.964 269.422 144.845 269.547C144.73 269.667 144.574 269.727 144.376 269.727C144.178 269.727 144.022 269.667 143.907 269.547C143.798 269.422 143.743 269.273 143.743 269.102ZM150.737 280.156C150.185 280.156 149.677 280.055 149.214 279.852C148.755 279.648 148.354 279.362 148.011 278.992C147.672 278.622 147.409 278.185 147.222 277.68C147.039 277.169 146.948 276.612 146.948 276.008V275.672C146.948 275.021 147.044 274.432 147.237 273.906C147.43 273.38 147.696 272.93 148.034 272.555C148.373 272.18 148.758 271.893 149.19 271.695C149.628 271.492 150.086 271.391 150.565 271.391C151.102 271.391 151.578 271.487 151.995 271.68C152.412 271.867 152.761 272.135 153.042 272.484C153.328 272.828 153.544 273.237 153.69 273.711C153.836 274.18 153.909 274.698 153.909 275.266V275.836H147.511V275.039H152.979V274.93C152.969 274.456 152.873 274.013 152.69 273.602C152.513 273.185 152.248 272.846 151.893 272.586C151.539 272.326 151.097 272.195 150.565 272.195C150.169 272.195 149.805 272.279 149.472 272.445C149.143 272.612 148.86 272.852 148.62 273.164C148.386 273.471 148.203 273.839 148.073 274.266C147.948 274.688 147.886 275.156 147.886 275.672V276.008C147.886 276.477 147.953 276.914 148.089 277.32C148.229 277.721 148.427 278.076 148.683 278.383C148.943 278.69 149.25 278.93 149.604 279.102C149.959 279.273 150.349 279.359 150.776 279.359C151.276 279.359 151.719 279.268 152.104 279.086C152.49 278.898 152.836 278.604 153.143 278.203L153.729 278.656C153.547 278.927 153.318 279.177 153.042 279.406C152.771 279.635 152.446 279.818 152.065 279.953C151.685 280.089 151.242 280.156 150.737 280.156ZM158.216 279.102L160.927 271.547H161.887L158.723 280H158.044L158.216 279.102ZM155.762 271.547L158.505 279.125L158.653 280H157.966L154.794 271.547H155.762ZM166.663 280.156C166.111 280.156 165.603 280.055 165.139 279.852C164.681 279.648 164.28 279.362 163.936 278.992C163.598 278.622 163.335 278.185 163.147 277.68C162.965 277.169 162.874 276.612 162.874 276.008V275.672C162.874 275.021 162.97 274.432 163.163 273.906C163.356 273.38 163.621 272.93 163.96 272.555C164.298 272.18 164.684 271.893 165.116 271.695C165.553 271.492 166.012 271.391 166.491 271.391C167.027 271.391 167.504 271.487 167.921 271.68C168.337 271.867 168.686 272.135 168.967 272.484C169.254 272.828 169.47 273.237 169.616 273.711C169.762 274.18 169.835 274.698 169.835 275.266V275.836H163.436V275.039H168.905V274.93C168.895 274.456 168.798 274.013 168.616 273.602C168.439 273.185 168.173 272.846 167.819 272.586C167.465 272.326 167.022 272.195 166.491 272.195C166.095 272.195 165.731 272.279 165.397 272.445C165.069 272.612 164.785 272.852 164.546 273.164C164.311 273.471 164.129 273.839 163.999 274.266C163.874 274.688 163.811 275.156 163.811 275.672V276.008C163.811 276.477 163.879 276.914 164.014 277.32C164.155 277.721 164.353 278.076 164.608 278.383C164.869 278.69 165.176 278.93 165.53 279.102C165.884 279.273 166.275 279.359 166.702 279.359C167.202 279.359 167.645 279.268 168.03 279.086C168.415 278.898 168.762 278.604 169.069 278.203L169.655 278.656C169.473 278.927 169.244 279.177 168.967 279.406C168.697 279.635 168.371 279.818 167.991 279.953C167.611 280.089 167.168 280.156 166.663 280.156ZM177.251 278.359V268H178.188V280H177.313L177.251 278.359ZM171.383 275.859V275.695C171.383 275.039 171.459 274.448 171.61 273.922C171.761 273.391 171.977 272.938 172.258 272.562C172.545 272.182 172.889 271.893 173.29 271.695C173.691 271.492 174.144 271.391 174.649 271.391C175.144 271.391 175.581 271.471 175.962 271.633C176.342 271.794 176.667 272.026 176.938 272.328C177.214 272.63 177.436 272.99 177.602 273.406C177.774 273.823 177.899 274.286 177.977 274.797V276.883C177.915 277.362 177.8 277.802 177.633 278.203C177.467 278.599 177.245 278.945 176.969 279.242C176.693 279.534 176.36 279.76 175.969 279.922C175.584 280.078 175.139 280.156 174.633 280.156C174.133 280.156 173.683 280.052 173.282 279.844C172.881 279.635 172.54 279.341 172.258 278.961C171.977 278.576 171.761 278.12 171.61 277.594C171.459 277.068 171.383 276.49 171.383 275.859ZM172.321 275.695V275.859C172.321 276.354 172.37 276.812 172.469 277.234C172.568 277.656 172.719 278.023 172.923 278.336C173.126 278.648 173.383 278.893 173.696 279.07C174.008 279.247 174.378 279.336 174.805 279.336C175.342 279.336 175.792 279.234 176.157 279.031C176.521 278.823 176.813 278.549 177.032 278.211C177.251 277.867 177.409 277.492 177.508 277.086V274.656C177.446 274.38 177.355 274.099 177.235 273.812C177.115 273.526 176.951 273.263 176.743 273.023C176.54 272.779 176.279 272.583 175.962 272.438C175.649 272.286 175.269 272.211 174.821 272.211C174.389 272.211 174.016 272.299 173.704 272.477C173.391 272.654 173.131 272.901 172.923 273.219C172.719 273.531 172.568 273.898 172.469 274.32C172.37 274.742 172.321 275.201 172.321 275.695ZM187.059 278.023L189.098 271.547H189.754L189.364 273.289L187.231 280H186.575L187.059 278.023ZM184.942 271.547L186.731 278.062L187.114 280H186.434L183.981 271.547H184.942ZM192.293 278.039L194.036 271.547H194.997L192.543 280H191.872L192.293 278.039ZM189.887 271.547L191.895 277.969L192.403 280H191.747L189.567 273.281L189.2 271.547H189.887ZM197.803 268V280H196.873V268H197.803ZM197.592 275.25L197.178 275.016C197.209 274.516 197.311 274.047 197.483 273.609C197.655 273.172 197.886 272.786 198.178 272.453C198.475 272.12 198.821 271.859 199.217 271.672C199.618 271.484 200.061 271.391 200.545 271.391C200.967 271.391 201.345 271.448 201.678 271.562C202.011 271.677 202.295 271.859 202.53 272.109C202.764 272.359 202.941 272.68 203.061 273.07C203.186 273.461 203.248 273.938 203.248 274.5V280H202.311V274.492C202.311 273.909 202.23 273.453 202.069 273.125C201.907 272.792 201.678 272.555 201.381 272.414C201.084 272.273 200.733 272.203 200.327 272.203C199.879 272.203 199.485 272.302 199.147 272.5C198.814 272.693 198.532 272.945 198.303 273.258C198.079 273.565 197.907 273.896 197.788 274.25C197.668 274.599 197.603 274.932 197.592 275.25ZM209 280.156C208.448 280.156 207.94 280.055 207.477 279.852C207.019 279.648 206.617 279.362 206.274 278.992C205.935 278.622 205.672 278.185 205.485 277.68C205.302 277.169 205.211 276.612 205.211 276.008V275.672C205.211 275.021 205.308 274.432 205.5 273.906C205.693 273.38 205.959 272.93 206.297 272.555C206.636 272.18 207.021 271.893 207.453 271.695C207.891 271.492 208.349 271.391 208.828 271.391C209.365 271.391 209.841 271.487 210.258 271.68C210.675 271.867 211.024 272.135 211.305 272.484C211.591 272.828 211.808 273.237 211.953 273.711C212.099 274.18 212.172 274.698 212.172 275.266V275.836H205.774V275.039H211.242V274.93C211.232 274.456 211.136 274.013 210.953 273.602C210.776 273.185 210.511 272.846 210.157 272.586C209.802 272.326 209.36 272.195 208.828 272.195C208.433 272.195 208.068 272.279 207.735 272.445C207.407 272.612 207.123 272.852 206.883 273.164C206.649 273.471 206.466 273.839 206.336 274.266C206.211 274.688 206.149 275.156 206.149 275.672V276.008C206.149 276.477 206.216 276.914 206.352 277.32C206.492 277.721 206.69 278.076 206.946 278.383C207.206 278.69 207.513 278.93 207.867 279.102C208.222 279.273 208.612 279.359 209.039 279.359C209.539 279.359 209.982 279.268 210.367 279.086C210.753 278.898 211.099 278.604 211.407 278.203L211.992 278.656C211.81 278.927 211.581 279.177 211.305 279.406C211.034 279.635 210.709 279.818 210.328 279.953C209.948 280.089 209.506 280.156 209 280.156ZM215.026 273.352V280H214.096V271.547H214.987L215.026 273.352ZM214.815 275.25L214.401 275.016C214.432 274.516 214.533 274.047 214.705 273.609C214.877 273.172 215.109 272.786 215.401 272.453C215.697 272.12 216.044 271.859 216.44 271.672C216.841 271.484 217.283 271.391 217.768 271.391C218.19 271.391 218.567 271.448 218.901 271.562C219.234 271.677 219.518 271.859 219.752 272.109C219.987 272.359 220.164 272.68 220.283 273.07C220.408 273.461 220.471 273.938 220.471 274.5V280H219.533V274.492C219.533 273.909 219.453 273.453 219.291 273.125C219.13 272.792 218.901 272.555 218.604 272.414C218.307 272.273 217.955 272.203 217.549 272.203C217.101 272.203 216.708 272.302 216.369 272.5C216.036 272.693 215.755 272.945 215.526 273.258C215.302 273.565 215.13 273.896 215.01 274.25C214.89 274.599 214.825 274.932 214.815 275.25ZM229.467 279.156L232.1 271.547H233.107L229.529 281.359C229.456 281.552 229.363 281.766 229.248 282C229.139 282.234 228.993 282.458 228.811 282.672C228.634 282.891 228.41 283.068 228.139 283.203C227.873 283.344 227.548 283.414 227.162 283.414C227.063 283.414 226.936 283.401 226.779 283.375C226.628 283.354 226.519 283.333 226.451 283.312L226.443 282.523C226.501 282.539 226.584 282.552 226.693 282.562C226.803 282.573 226.878 282.578 226.92 282.578C227.259 282.578 227.542 282.521 227.772 282.406C228.006 282.292 228.201 282.12 228.357 281.891C228.514 281.667 228.652 281.385 228.772 281.047L229.467 279.156ZM227.006 271.547L229.701 278.805L229.951 279.781L229.272 280.164L225.99 271.547H227.006ZM234.008 275.906V275.648C234.008 275.034 234.096 274.466 234.273 273.945C234.451 273.424 234.703 272.974 235.031 272.594C235.365 272.214 235.763 271.919 236.227 271.711C236.69 271.497 237.206 271.391 237.773 271.391C238.346 271.391 238.865 271.497 239.328 271.711C239.792 271.919 240.19 272.214 240.523 272.594C240.857 272.974 241.112 273.424 241.289 273.945C241.466 274.466 241.555 275.034 241.555 275.648V275.906C241.555 276.521 241.466 277.089 241.289 277.609C241.112 278.125 240.857 278.573 240.523 278.953C240.195 279.333 239.799 279.63 239.336 279.844C238.872 280.052 238.357 280.156 237.789 280.156C237.216 280.156 236.698 280.052 236.234 279.844C235.771 279.63 235.372 279.333 235.039 278.953C234.706 278.573 234.451 278.125 234.273 277.609C234.096 277.089 234.008 276.521 234.008 275.906ZM234.938 275.648V275.906C234.938 276.37 235 276.81 235.125 277.227C235.25 277.638 235.432 278.005 235.672 278.328C235.911 278.646 236.208 278.896 236.562 279.078C236.917 279.26 237.326 279.352 237.789 279.352C238.247 279.352 238.651 279.26 239 279.078C239.354 278.896 239.651 278.646 239.891 278.328C240.13 278.005 240.31 277.638 240.43 277.227C240.555 276.81 240.617 276.37 240.617 275.906V275.648C240.617 275.19 240.555 274.755 240.43 274.344C240.31 273.932 240.128 273.565 239.883 273.242C239.643 272.919 239.346 272.664 238.992 272.477C238.638 272.289 238.232 272.195 237.773 272.195C237.315 272.195 236.909 272.289 236.555 272.477C236.206 272.664 235.909 272.919 235.664 273.242C235.424 273.565 235.242 273.932 235.117 274.344C234.997 274.755 234.938 275.19 234.938 275.648ZM248.986 278.047V271.547H249.924V280H249.025L248.986 278.047ZM249.158 276.484L249.643 276.469C249.643 277 249.58 277.49 249.455 277.938C249.33 278.385 249.135 278.776 248.869 279.109C248.603 279.443 248.26 279.701 247.838 279.883C247.416 280.065 246.908 280.156 246.314 280.156C245.903 280.156 245.525 280.099 245.182 279.984C244.843 279.865 244.551 279.677 244.307 279.422C244.062 279.167 243.872 278.836 243.736 278.43C243.606 278.023 243.541 277.531 243.541 276.953V271.547H244.471V276.969C244.471 277.422 244.52 277.799 244.619 278.102C244.723 278.404 244.864 278.646 245.041 278.828C245.223 279.01 245.432 279.141 245.666 279.219C245.9 279.297 246.153 279.336 246.424 279.336C247.111 279.336 247.653 279.203 248.049 278.938C248.45 278.672 248.734 278.323 248.9 277.891C249.072 277.453 249.158 276.984 249.158 276.484ZM49.7891 295.547H50.6562V303.852C50.6562 304.586 50.5156 305.216 50.2344 305.742C49.9583 306.268 49.5651 306.672 49.0547 306.953C48.5495 307.234 47.9531 307.375 47.2656 307.375C46.9167 307.375 46.5573 307.32 46.1875 307.211C45.8229 307.107 45.4766 306.945 45.1484 306.727C44.8255 306.513 44.5495 306.247 44.3203 305.93L44.8438 305.359C45.1875 305.776 45.5547 306.081 45.9453 306.273C46.3359 306.471 46.7578 306.57 47.2109 306.57C47.7474 306.57 48.2005 306.464 48.5703 306.25C48.9453 306.036 49.2292 305.729 49.4219 305.328C49.6198 304.927 49.7188 304.445 49.7188 303.883V297.406L49.7891 295.547ZM43.8516 299.859V299.695C43.8516 299.039 43.9245 298.448 44.0703 297.922C44.2214 297.391 44.4375 296.938 44.7188 296.562C45 296.182 45.3411 295.893 45.7422 295.695C46.1484 295.492 46.6068 295.391 47.1172 295.391C47.6068 295.391 48.0417 295.471 48.4219 295.633C48.8021 295.794 49.1302 296.026 49.4062 296.328C49.6823 296.63 49.9036 296.99 50.0703 297.406C50.2422 297.823 50.3672 298.286 50.4453 298.797V300.883C50.3828 301.362 50.2682 301.802 50.1016 302.203C49.9349 302.599 49.7135 302.945 49.4375 303.242C49.1615 303.534 48.8281 303.76 48.4375 303.922C48.0521 304.078 47.6068 304.156 47.1016 304.156C46.5964 304.156 46.1432 304.052 45.7422 303.844C45.3411 303.635 45 303.341 44.7188 302.961C44.4375 302.576 44.2214 302.12 44.0703 301.594C43.9245 301.068 43.8516 300.49 43.8516 299.859ZM44.7891 299.695V299.859C44.7891 300.354 44.8385 300.812 44.9375 301.234C45.0365 301.656 45.1875 302.023 45.3906 302.336C45.5938 302.648 45.8516 302.893 46.1641 303.07C46.4766 303.247 46.8438 303.336 47.2656 303.336C47.8021 303.336 48.2526 303.234 48.6172 303.031C48.9818 302.823 49.2708 302.549 49.4844 302.211C49.6979 301.867 49.8542 301.492 49.9531 301.086V298.656C49.8958 298.38 49.8073 298.099 49.6875 297.812C49.5729 297.526 49.4115 297.263 49.2031 297.023C49 296.779 48.7396 296.583 48.4219 296.438C48.1094 296.286 47.7292 296.211 47.2812 296.211C46.8542 296.211 46.4818 296.299 46.1641 296.477C45.8516 296.654 45.5938 296.901 45.3906 297.219C45.1875 297.531 45.0365 297.898 44.9375 298.32C44.8385 298.742 44.7891 299.201 44.7891 299.695ZM56.4472 304.156C55.8951 304.156 55.3873 304.055 54.9237 303.852C54.4654 303.648 54.0644 303.362 53.7206 302.992C53.3821 302.622 53.1191 302.185 52.9316 301.68C52.7493 301.169 52.6581 300.612 52.6581 300.008V299.672C52.6581 299.021 52.7545 298.432 52.9472 297.906C53.1399 297.38 53.4055 296.93 53.7441 296.555C54.0826 296.18 54.468 295.893 54.9003 295.695C55.3378 295.492 55.7961 295.391 56.2753 295.391C56.8118 295.391 57.2883 295.487 57.705 295.68C58.1217 295.867 58.4706 296.135 58.7519 296.484C59.0383 296.828 59.2545 297.237 59.4003 297.711C59.5461 298.18 59.6191 298.698 59.6191 299.266V299.836H53.2206V299.039H58.6894V298.93C58.679 298.456 58.5826 298.013 58.4003 297.602C58.2232 297.185 57.9576 296.846 57.6034 296.586C57.2493 296.326 56.8066 296.195 56.2753 296.195C55.8795 296.195 55.5149 296.279 55.1816 296.445C54.8534 296.612 54.5696 296.852 54.33 297.164C54.0956 297.471 53.9133 297.839 53.7831 298.266C53.6581 298.688 53.5956 299.156 53.5956 299.672V300.008C53.5956 300.477 53.6633 300.914 53.7987 301.32C53.9394 301.721 54.1373 302.076 54.3925 302.383C54.6529 302.69 54.9602 302.93 55.3144 303.102C55.6685 303.273 56.0592 303.359 56.4862 303.359C56.9862 303.359 57.429 303.268 57.8144 303.086C58.1998 302.898 58.5461 302.604 58.8534 302.203L59.4394 302.656C59.2571 302.927 59.0279 303.177 58.7519 303.406C58.481 303.635 58.1555 303.818 57.7753 303.953C57.3951 304.089 56.9524 304.156 56.4472 304.156ZM64.7381 295.547V296.312H60.5037V295.547H64.7381ZM62.0584 293.375H62.9881V301.945C62.9881 302.336 63.0402 302.63 63.1444 302.828C63.2485 303.026 63.384 303.159 63.5506 303.227C63.7173 303.294 63.897 303.328 64.0897 303.328C64.2303 303.328 64.3657 303.32 64.4959 303.305C64.6261 303.284 64.7433 303.263 64.8475 303.242L64.8866 304.031C64.772 304.068 64.6235 304.096 64.4412 304.117C64.259 304.143 64.0767 304.156 63.8944 304.156C63.535 304.156 63.2173 304.091 62.9412 303.961C62.6652 303.826 62.4491 303.596 62.2928 303.273C62.1366 302.945 62.0584 302.5 62.0584 301.938V293.375ZM77.7341 303.195V304H70.6169V303.273L74.3434 299.047C74.807 298.521 75.1768 298.06 75.4528 297.664C75.7289 297.263 75.9268 296.898 76.0466 296.57C76.1716 296.237 76.2341 295.914 76.2341 295.602C76.2341 295.143 76.1429 294.74 75.9606 294.391C75.7835 294.042 75.5179 293.768 75.1637 293.57C74.8096 293.372 74.3721 293.273 73.8512 293.273C73.3304 293.273 72.8773 293.385 72.4919 293.609C72.1065 293.833 71.8096 294.146 71.6012 294.547C71.3981 294.943 71.2966 295.393 71.2966 295.898H70.3669C70.3669 295.273 70.5049 294.701 70.7809 294.18C71.0622 293.659 71.4632 293.245 71.9841 292.938C72.5049 292.625 73.1273 292.469 73.8512 292.469C74.5387 292.469 75.1299 292.591 75.6247 292.836C76.1195 293.076 76.4997 293.422 76.7653 293.875C77.0361 294.328 77.1716 294.875 77.1716 295.516C77.1716 295.859 77.1091 296.206 76.9841 296.555C76.8643 296.904 76.6976 297.253 76.4841 297.602C76.2757 297.945 76.0361 298.286 75.7653 298.625C75.4997 298.964 75.221 299.297 74.9294 299.625L71.7575 303.195H77.7341ZM84.7456 292V304H83.8159V292H84.7456ZM90.6459 304.156C90.0939 304.156 89.586 304.055 89.1225 303.852C88.6642 303.648 88.2631 303.362 87.9194 302.992C87.5808 302.622 87.3178 302.185 87.1303 301.68C86.948 301.169 86.8569 300.612 86.8569 300.008V299.672C86.8569 299.021 86.9532 298.432 87.1459 297.906C87.3386 297.38 87.6043 296.93 87.9428 296.555C88.2814 296.18 88.6668 295.893 89.0991 295.695C89.5366 295.492 89.9949 295.391 90.4741 295.391C91.0105 295.391 91.4871 295.487 91.9038 295.68C92.3204 295.867 92.6694 296.135 92.9506 296.484C93.2371 296.828 93.4532 297.237 93.5991 297.711C93.7449 298.18 93.8178 298.698 93.8178 299.266V299.836H87.4194V299.039H92.8881V298.93C92.8777 298.456 92.7814 298.013 92.5991 297.602C92.422 297.185 92.1564 296.846 91.8022 296.586C91.448 296.326 91.0053 296.195 90.4741 296.195C90.0782 296.195 89.7136 296.279 89.3803 296.445C89.0522 296.612 88.7683 296.852 88.5288 297.164C88.2944 297.471 88.1121 297.839 87.9819 298.266C87.8569 298.688 87.7944 299.156 87.7944 299.672V300.008C87.7944 300.477 87.8621 300.914 87.9975 301.32C88.1381 301.721 88.336 302.076 88.5913 302.383C88.8517 302.69 89.159 302.93 89.5131 303.102C89.8673 303.273 90.2579 303.359 90.685 303.359C91.185 303.359 91.6277 303.268 92.0131 303.086C92.3985 302.898 92.7449 302.604 93.0522 302.203L93.6381 302.656C93.4558 302.927 93.2267 303.177 92.9506 303.406C92.6798 303.635 92.3543 303.818 91.9741 303.953C91.5939 304.089 91.1511 304.156 90.6459 304.156ZM98.1244 303.102L100.835 295.547H101.796L98.6322 304H97.9525L98.1244 303.102ZM95.6712 295.547L98.4134 303.125L98.5619 304H97.8744L94.7025 295.547H95.6712ZM106.572 304.156C106.019 304.156 105.512 304.055 105.048 303.852C104.59 303.648 104.189 303.362 103.845 302.992C103.506 302.622 103.243 302.185 103.056 301.68C102.874 301.169 102.783 300.612 102.783 300.008V299.672C102.783 299.021 102.879 298.432 103.072 297.906C103.264 297.38 103.53 296.93 103.868 296.555C104.207 296.18 104.592 295.893 105.025 295.695C105.462 295.492 105.921 295.391 106.4 295.391C106.936 295.391 107.413 295.487 107.829 295.68C108.246 295.867 108.595 296.135 108.876 296.484C109.163 296.828 109.379 297.237 109.525 297.711C109.671 298.18 109.743 298.698 109.743 299.266V299.836H103.345V299.039H108.814V298.93C108.803 298.456 108.707 298.013 108.525 297.602C108.348 297.185 108.082 296.846 107.728 296.586C107.374 296.326 106.931 296.195 106.4 296.195C106.004 296.195 105.639 296.279 105.306 296.445C104.978 296.612 104.694 296.852 104.454 297.164C104.22 297.471 104.038 297.839 103.908 298.266C103.783 298.688 103.72 299.156 103.72 299.672V300.008C103.72 300.477 103.788 300.914 103.923 301.32C104.064 301.721 104.262 302.076 104.517 302.383C104.777 302.69 105.085 302.93 105.439 303.102C105.793 303.273 106.184 303.359 106.611 303.359C107.111 303.359 107.553 303.268 107.939 303.086C108.324 302.898 108.671 302.604 108.978 302.203L109.564 302.656C109.381 302.927 109.152 303.177 108.876 303.406C108.605 303.635 108.28 303.818 107.9 303.953C107.519 304.089 107.077 304.156 106.572 304.156ZM112.706 292V304H111.777V292H112.706ZM120.403 301.844C120.403 301.615 120.346 301.388 120.232 301.164C120.117 300.94 119.896 300.734 119.567 300.547C119.245 300.359 118.768 300.201 118.138 300.07C117.669 299.966 117.25 299.849 116.88 299.719C116.515 299.589 116.208 299.432 115.958 299.25C115.708 299.068 115.518 298.849 115.388 298.594C115.258 298.339 115.192 298.036 115.192 297.688C115.192 297.375 115.26 297.081 115.396 296.805C115.536 296.523 115.734 296.279 115.989 296.07C116.25 295.857 116.562 295.69 116.927 295.57C117.297 295.451 117.711 295.391 118.169 295.391C118.82 295.391 119.377 295.503 119.841 295.727C120.31 295.945 120.666 296.245 120.911 296.625C121.161 297.005 121.286 297.435 121.286 297.914H120.357C120.357 297.622 120.271 297.346 120.099 297.086C119.932 296.826 119.685 296.612 119.357 296.445C119.034 296.279 118.638 296.195 118.169 296.195C117.685 296.195 117.291 296.268 116.989 296.414C116.687 296.56 116.466 296.745 116.325 296.969C116.19 297.193 116.122 297.424 116.122 297.664C116.122 297.852 116.151 298.023 116.208 298.18C116.271 298.331 116.38 298.471 116.536 298.602C116.698 298.732 116.927 298.854 117.224 298.969C117.521 299.083 117.906 299.195 118.38 299.305C119.062 299.456 119.62 299.641 120.052 299.859C120.489 300.073 120.812 300.339 121.021 300.656C121.229 300.969 121.333 301.349 121.333 301.797C121.333 302.146 121.26 302.466 121.114 302.758C120.969 303.044 120.758 303.292 120.482 303.5C120.211 303.708 119.883 303.87 119.497 303.984C119.117 304.099 118.69 304.156 118.216 304.156C117.502 304.156 116.898 304.039 116.403 303.805C115.914 303.565 115.541 303.253 115.286 302.867C115.036 302.477 114.911 302.062 114.911 301.625H115.841C115.872 302.062 116.01 302.409 116.255 302.664C116.5 302.914 116.799 303.091 117.153 303.195C117.513 303.299 117.867 303.352 118.216 303.352C118.695 303.352 119.096 303.281 119.419 303.141C119.742 303 119.987 302.815 120.153 302.586C120.32 302.357 120.403 302.109 120.403 301.844ZM128.556 295.547V304H127.626V295.547H128.556ZM127.462 293.102C127.462 292.924 127.517 292.776 127.626 292.656C127.741 292.531 127.897 292.469 128.095 292.469C128.293 292.469 128.449 292.531 128.563 292.656C128.683 292.776 128.743 292.924 128.743 293.102C128.743 293.273 128.683 293.422 128.563 293.547C128.449 293.667 128.293 293.727 128.095 293.727C127.897 293.727 127.741 293.667 127.626 293.547C127.517 293.422 127.462 293.273 127.462 293.102ZM132.12 297.352V304H131.19V295.547H132.081L132.12 297.352ZM131.909 299.25L131.495 299.016C131.526 298.516 131.628 298.047 131.8 297.609C131.972 297.172 132.203 296.786 132.495 296.453C132.792 296.12 133.138 295.859 133.534 295.672C133.935 295.484 134.378 295.391 134.862 295.391C135.284 295.391 135.662 295.448 135.995 295.562C136.328 295.677 136.612 295.859 136.847 296.109C137.081 296.359 137.258 296.68 137.378 297.07C137.503 297.461 137.565 297.938 137.565 298.5V304H136.628V298.492C136.628 297.909 136.547 297.453 136.386 297.125C136.224 296.792 135.995 296.555 135.698 296.414C135.401 296.273 135.05 296.203 134.643 296.203C134.196 296.203 133.802 296.302 133.464 296.5C133.13 296.693 132.849 296.945 132.62 297.258C132.396 297.565 132.224 297.896 132.104 298.25C131.985 298.599 131.919 298.932 131.909 299.25ZM149.194 302.484V298.125C149.194 297.724 149.111 297.378 148.944 297.086C148.777 296.794 148.533 296.57 148.21 296.414C147.887 296.258 147.488 296.18 147.014 296.18C146.577 296.18 146.186 296.258 145.842 296.414C145.504 296.565 145.236 296.771 145.038 297.031C144.845 297.286 144.749 297.57 144.749 297.883L143.811 297.875C143.811 297.557 143.889 297.25 144.046 296.953C144.202 296.656 144.423 296.391 144.71 296.156C144.996 295.922 145.337 295.737 145.733 295.602C146.134 295.461 146.574 295.391 147.053 295.391C147.658 295.391 148.189 295.492 148.647 295.695C149.111 295.898 149.473 296.203 149.733 296.609C149.994 297.016 150.124 297.526 150.124 298.141V302.227C150.124 302.518 150.145 302.82 150.186 303.133C150.233 303.445 150.298 303.703 150.382 303.906V304H149.389C149.327 303.812 149.277 303.578 149.241 303.297C149.21 303.01 149.194 302.74 149.194 302.484ZM149.413 299.078L149.428 299.797H147.592C147.113 299.797 146.684 299.841 146.303 299.93C145.928 300.013 145.611 300.138 145.35 300.305C145.09 300.466 144.889 300.661 144.749 300.891C144.613 301.12 144.546 301.38 144.546 301.672C144.546 301.974 144.621 302.25 144.772 302.5C144.928 302.75 145.147 302.951 145.428 303.102C145.715 303.247 146.053 303.32 146.444 303.32C146.965 303.32 147.423 303.224 147.819 303.031C148.22 302.839 148.551 302.586 148.811 302.273C149.072 301.961 149.246 301.62 149.335 301.25L149.741 301.789C149.673 302.049 149.548 302.318 149.366 302.594C149.189 302.865 148.957 303.12 148.671 303.359C148.384 303.594 148.046 303.786 147.655 303.938C147.27 304.083 146.832 304.156 146.342 304.156C145.79 304.156 145.309 304.052 144.897 303.844C144.491 303.635 144.173 303.352 143.944 302.992C143.72 302.628 143.608 302.216 143.608 301.758C143.608 301.341 143.697 300.969 143.874 300.641C144.051 300.307 144.306 300.026 144.639 299.797C144.978 299.562 145.384 299.385 145.858 299.266C146.337 299.141 146.874 299.078 147.467 299.078H149.413ZM157.628 296.945V304H156.698V295.547H157.604L157.628 296.945ZM160.62 295.484L160.596 296.344C160.492 296.328 160.391 296.315 160.292 296.305C160.193 296.294 160.086 296.289 159.971 296.289C159.565 296.289 159.208 296.365 158.901 296.516C158.599 296.661 158.344 296.867 158.135 297.133C157.927 297.393 157.768 297.701 157.659 298.055C157.549 298.404 157.487 298.779 157.471 299.18L157.128 299.312C157.128 298.76 157.185 298.247 157.299 297.773C157.414 297.299 157.588 296.885 157.823 296.531C158.062 296.172 158.362 295.893 158.721 295.695C159.086 295.492 159.513 295.391 160.003 295.391C160.122 295.391 160.239 295.401 160.354 295.422C160.474 295.438 160.562 295.458 160.62 295.484ZM161.497 299.906V299.648C161.497 299.034 161.585 298.466 161.762 297.945C161.939 297.424 162.192 296.974 162.52 296.594C162.853 296.214 163.252 295.919 163.715 295.711C164.179 295.497 164.694 295.391 165.262 295.391C165.835 295.391 166.353 295.497 166.817 295.711C167.28 295.919 167.679 296.214 168.012 296.594C168.346 296.974 168.601 297.424 168.778 297.945C168.955 298.466 169.043 299.034 169.043 299.648V299.906C169.043 300.521 168.955 301.089 168.778 301.609C168.601 302.125 168.346 302.573 168.012 302.953C167.684 303.333 167.288 303.63 166.825 303.844C166.361 304.052 165.846 304.156 165.278 304.156C164.705 304.156 164.187 304.052 163.723 303.844C163.26 303.63 162.861 303.333 162.528 302.953C162.194 302.573 161.939 302.125 161.762 301.609C161.585 301.089 161.497 300.521 161.497 299.906ZM162.426 299.648V299.906C162.426 300.37 162.489 300.81 162.614 301.227C162.739 301.638 162.921 302.005 163.161 302.328C163.4 302.646 163.697 302.896 164.051 303.078C164.405 303.26 164.814 303.352 165.278 303.352C165.736 303.352 166.14 303.26 166.489 303.078C166.843 302.896 167.14 302.646 167.379 302.328C167.619 302.005 167.799 301.638 167.918 301.227C168.043 300.81 168.106 300.37 168.106 299.906V299.648C168.106 299.19 168.043 298.755 167.918 298.344C167.799 297.932 167.616 297.565 167.372 297.242C167.132 296.919 166.835 296.664 166.481 296.477C166.127 296.289 165.721 296.195 165.262 296.195C164.804 296.195 164.398 296.289 164.043 296.477C163.694 296.664 163.398 296.919 163.153 297.242C162.913 297.565 162.731 297.932 162.606 298.344C162.486 298.755 162.426 299.19 162.426 299.648ZM172.1 292V304H171.17V292H172.1ZM175.774 292V304H174.844V292H175.774Z" fill="white"/>
</g>
<defs>
<filter id="filter0_f_357_3558" x="146.139" y="42.2713" width="17.9077" height="17.5852" filterUnits="userSpaceOnUse" color-interpolation-filters="sRGB">
<feFlood flood-opacity="0" result="BackgroundImageFix"/>
<feBlend mode="normal" in="SourceGraphic" in2="BackgroundImageFix" result="shape"/>
<feGaussianBlur stdDeviation="1.40075" result="effect1_foregroundBlur_357_3558"/>
</filter>
<filter id="filter1_f_357_3558" x="144.682" y="40.2384" width="20.8215" height="21.6511" filterUnits="userSpaceOnUse" color-interpolation-filters="sRGB">
<feFlood flood-opacity="0" result="BackgroundImageFix"/>
<feBlend mode="normal" in="SourceGraphic" in2="BackgroundImageFix" result="shape"/>
<feGaussianBlur stdDeviation="0.420225" result="effect1_foregroundBlur_357_3558"/>
</filter>
<filter id="filter2_dd_357_3558" x="-7.34342" y="9.011" width="324.687" height="285.587" filterUnits="userSpaceOnUse" color-interpolation-filters="sRGB">
<feFlood flood-opacity="0" result="BackgroundImageFix"/>
<feColorMatrix in="SourceAlpha" type="matrix" values="0 0 0 0 0 0 0 0 0 0 0 0 0 0 0 0 0 0 127 0" result="hardAlpha"/>
<feOffset/>
<feGaussianBlur stdDeviation="10.1994"/>
<feColorMatrix type="matrix" values="0 0 0 0 0.558594 0 0 0 0 0.710156 0 0 0 0 0.9375 0 0 0 1 0"/>
<feBlend mode="normal" in2="BackgroundImageFix" result="effect1_dropShadow_357_3558"/>
<feColorMatrix in="SourceAlpha" type="matrix" values="0 0 0 0 0 0 0 0 0 0 0 0 0 0 0 0 0 0 127 0" result="hardAlpha"/>
<feOffset dy="4.07976"/>
<feGaussianBlur stdDeviation="30.5982"/>
<feColorMatrix type="matrix" values="0 0 0 0 0.670833 0 0 0 0 0.8025 0 0 0 0 1 0 0 0 0.6 0"/>
<feBlend mode="normal" in2="effect1_dropShadow_357_3558" result="effect2_dropShadow_357_3558"/>
<feBlend mode="normal" in="SourceGraphic" in2="effect2_dropShadow_357_3558" result="shape"/>
</filter>
<filter id="filter3_d_357_3558" x="119.171" y="156.138" width="32.1426" height="66.4865" filterUnits="userSpaceOnUse" color-interpolation-filters="sRGB">
<feFlood flood-opacity="0" result="BackgroundImageFix"/>
<feColorMatrix in="SourceAlpha" type="matrix" values="0 0 0 0 0 0 0 0 0 0 0 0 0 0 0 0 0 0 127 0" result="hardAlpha"/>
<feOffset/>
<feGaussianBlur stdDeviation="4"/>
<feColorMatrix type="matrix" values="0 0 0 0 0.288889 0 0 0 0 0.357333 0 0 0 0 0.533333 0 0 0 0.74 0"/>
<feBlend mode="normal" in2="BackgroundImageFix" result="effect1_dropShadow_357_3558"/>
<feBlend mode="normal" in="SourceGraphic" in2="effect1_dropShadow_357_3558" result="shape"/>
</filter>
<filter id="filter4_d_357_3558" x="99.1621" y="156.138" width="34.5757" height="58.5592" filterUnits="userSpaceOnUse" color-interpolation-filters="sRGB">
<feFlood flood-opacity="0" result="BackgroundImageFix"/>
<feColorMatrix in="SourceAlpha" type="matrix" values="0 0 0 0 0 0 0 0 0 0 0 0 0 0 0 0 0 0 127 0" result="hardAlpha"/>
<feOffset/>
<feGaussianBlur stdDeviation="4"/>
<feColorMatrix type="matrix" values="0 0 0 0 0.288889 0 0 0 0 0.357333 0 0 0 0 0.533333 0 0 0 0.74 0"/>
<feBlend mode="normal" in2="BackgroundImageFix" result="effect1_dropShadow_357_3558"/>
<feBlend mode="normal" in="SourceGraphic" in2="effect1_dropShadow_357_3558" result="shape"/>
</filter>
<filter id="filter5_d_357_3558" x="159.188" y="156.138" width="32.1426" height="66.4865" filterUnits="userSpaceOnUse" color-interpolation-filters="sRGB">
<feFlood flood-opacity="0" result="BackgroundImageFix"/>
<feColorMatrix in="SourceAlpha" type="matrix" values="0 0 0 0 0 0 0 0 0 0 0 0 0 0 0 0 0 0 127 0" result="hardAlpha"/>
<feOffset/>
<feGaussianBlur stdDeviation="4"/>
<feColorMatrix type="matrix" values="0 0 0 0 0.288889 0 0 0 0 0.357333 0 0 0 0 0.533333 0 0 0 0.74 0"/>
<feBlend mode="normal" in2="BackgroundImageFix" result="effect1_dropShadow_357_3558"/>
<feBlend mode="normal" in="SourceGraphic" in2="effect1_dropShadow_357_3558" result="shape"/>
</filter>
<filter id="filter6_d_357_3558" x="176.764" y="156.138" width="34.5757" height="58.5592" filterUnits="userSpaceOnUse" color-interpolation-filters="sRGB">
<feFlood flood-opacity="0" result="BackgroundImageFix"/>
<feColorMatrix in="SourceAlpha" type="matrix" values="0 0 0 0 0 0 0 0 0 0 0 0 0 0 0 0 0 0 127 0" result="hardAlpha"/>
<feOffset/>
<feGaussianBlur stdDeviation="4"/>
<feColorMatrix type="matrix" values="0 0 0 0 0.288889 0 0 0 0 0.357333 0 0 0 0 0.533333 0 0 0 0.74 0"/>
<feBlend mode="normal" in2="BackgroundImageFix" result="effect1_dropShadow_357_3558"/>
<feBlend mode="normal" in="SourceGraphic" in2="effect1_dropShadow_357_3558" result="shape"/>
</filter>
<filter id="filter7_d_357_3558" x="129.407" y="143.282" width="51.6729" height="94.0402" filterUnits="userSpaceOnUse" color-interpolation-filters="sRGB">
<feFlood flood-opacity="0" result="BackgroundImageFix"/>
<feColorMatrix in="SourceAlpha" type="matrix" values="0 0 0 0 0 0 0 0 0 0 0 0 0 0 0 0 0 0 127 0" result="hardAlpha"/>
<feOffset/>
<feGaussianBlur stdDeviation="4"/>
<feColorMatrix type="matrix" values="0 0 0 0 0.288889 0 0 0 0 0.357333 0 0 0 0 0.533333 0 0 0 0.8 0"/>
<feBlend mode="normal" in2="BackgroundImageFix" result="effect1_dropShadow_357_3558"/>
<feBlend mode="normal" in="SourceGraphic" in2="effect1_dropShadow_357_3558" result="shape"/>
</filter>
<filter id="filter8_d_357_3558" x="87.998" y="66.1277" width="134.004" height="147.58" filterUnits="userSpaceOnUse" color-interpolation-filters="sRGB">
<feFlood flood-opacity="0" result="BackgroundImageFix"/>
<feColorMatrix in="SourceAlpha" type="matrix" values="0 0 0 0 0 0 0 0 0 0 0 0 0 0 0 0 0 0 127 0" result="hardAlpha"/>
<feOffset dy="8"/>
<feGaussianBlur stdDeviation="3"/>
<feColorMatrix type="matrix" values="0 0 0 0 0.141181 0 0 0 0 0.190317 0 0 0 0 0.316667 0 0 0 0.51 0"/>
<feBlend mode="normal" in2="BackgroundImageFix" result="effect1_dropShadow_357_3558"/>
<feBlend mode="normal" in="SourceGraphic" in2="effect1_dropShadow_357_3558" result="shape"/>
</filter>
<filter id="filter9_f_357_3558" x="102.47" y="75.7741" width="104.913" height="114.047" filterUnits="userSpaceOnUse" color-interpolation-filters="sRGB">
<feFlood flood-opacity="0" result="BackgroundImageFix"/>
<feBlend mode="normal" in="SourceGraphic" in2="BackgroundImageFix" result="shape"/>
<feGaussianBlur stdDeviation="0.15" result="effect1_foregroundBlur_357_3558"/>
</filter>
<filter id="filter10_i_357_3558" x="107.663" y="81.2141" width="95.1631" height="103.352" filterUnits="userSpaceOnUse" color-interpolation-filters="sRGB">
<feFlood flood-opacity="0" result="BackgroundImageFix"/>
<feBlend mode="normal" in="SourceGraphic" in2="BackgroundImageFix" result="shape"/>
<feColorMatrix in="SourceAlpha" type="matrix" values="0 0 0 0 0 0 0 0 0 0 0 0 0 0 0 0 0 0 127 0" result="hardAlpha"/>
<feOffset/>
<feGaussianBlur stdDeviation="6.72414"/>
<feComposite in2="hardAlpha" operator="arithmetic" k2="-1" k3="1"/>
<feColorMatrix type="matrix" values="0 0 0 0 0.297222 0 0 0 0 0.329917 0 0 0 0 0.445833 0 0 0 1 0"/>
<feBlend mode="normal" in2="shape" result="effect1_innerShadow_357_3558"/>
</filter>
<filter id="filter11_d_357_3558" x="126.211" y="94.9649" width="57.4111" height="56.2857" filterUnits="userSpaceOnUse" color-interpolation-filters="sRGB">
<feFlood flood-opacity="0" result="BackgroundImageFix"/>
<feColorMatrix in="SourceAlpha" type="matrix" values="0 0 0 0 0 0 0 0 0 0 0 0 0 0 0 0 0 0 127 0" result="hardAlpha"/>
<feOffset dx="0.361644" dy="3.61644"/>
<feGaussianBlur stdDeviation="3.61644"/>
<feColorMatrix type="matrix" values="0 0 0 0 0.625387 0 0 0 0 0.624375 0 0 0 0 0.675 0 0 0 0.2 0"/>
<feBlend mode="normal" in2="BackgroundImageFix" result="effect1_dropShadow_357_3558"/>
<feBlend mode="normal" in="SourceGraphic" in2="effect1_dropShadow_357_3558" result="shape"/>
</filter>
<radialGradient id="paint0_radial_357_3558" cx="0" cy="0" r="1" gradientUnits="userSpaceOnUse" gradientTransform="translate(155.093 51.0638) rotate(90) scale(9.5857 9.84365)">
<stop stop-color="#E7ECFF"/>
<stop offset="0.979167" stop-color="#ABC3FF" stop-opacity="0.8825"/>
<stop offset="1" stop-color="#AACCFF" stop-opacity="0.88"/>
</radialGradient>
<linearGradient id="paint1_linear_357_3558" x1="154.409" y1="51.3967" x2="154.409" y2="193.851" gradientUnits="userSpaceOnUse">
<stop stop-color="#DEE7FF"/>
<stop offset="0.0722622" stop-color="#CCDDFF" stop-opacity="0.33"/>
<stop offset="1" stop-color="#98C6F0" stop-opacity="0"/>
</linearGradient>
<linearGradient id="paint2_linear_357_3558" x1="154.538" y1="33" x2="154.538" y2="111.954" gradientUnits="userSpaceOnUse">
<stop stop-color="#AACCFF" stop-opacity="0"/>
<stop offset="1" stop-color="#AACCFF" stop-opacity="0.3"/>
</linearGradient>
<linearGradient id="paint3_linear_357_3558" x1="242.146" y1="183.062" x2="172.875" y2="141.992" gradientUnits="userSpaceOnUse">
<stop stop-color="#AACCFF" stop-opacity="0"/>
<stop offset="1" stop-color="#AACCFF" stop-opacity="0.3"/>
</linearGradient>
<linearGradient id="paint4_linear_357_3558" x1="154.026" y1="233" x2="154.026" y2="154.046" gradientUnits="userSpaceOnUse">
<stop stop-color="#AACCFF" stop-opacity="0"/>
<stop offset="1" stop-color="#AACCFF" stop-opacity="0.3"/>
</linearGradient>
<linearGradient id="paint5_linear_357_3558" x1="66.5543" y1="183.312" x2="135.826" y2="142.242" gradientUnits="userSpaceOnUse">
<stop stop-color="#AACCFF" stop-opacity="0"/>
<stop offset="1" stop-color="#AACCFF" stop-opacity="0.3"/>
</linearGradient>
<linearGradient id="paint6_linear_357_3558" x1="242.146" y1="83.0623" x2="172.875" y2="124.133" gradientUnits="userSpaceOnUse">
<stop stop-color="#AACCFF" stop-opacity="0"/>
<stop offset="1" stop-color="#AACCFF" stop-opacity="0.3"/>
</linearGradient>
<linearGradient id="paint7_linear_357_3558" x1="66.5543" y1="82.8126" x2="135.826" y2="123.883" gradientUnits="userSpaceOnUse">
<stop stop-color="#AACCFF" stop-opacity="0"/>
<stop offset="1" stop-color="#AACCFF" stop-opacity="0.3"/>
</linearGradient>
<linearGradient id="paint8_linear_357_3558" x1="84.1087" y1="123.433" x2="67.4886" y2="106.365" gradientUnits="userSpaceOnUse">
<stop stop-color="#C3C5D1"/>
<stop offset="0.875" stop-color="#F9F9F9"/>
</linearGradient>
<linearGradient id="paint9_linear_357_3558" x1="57.799" y1="103.809" x2="73.5128" y2="123.84" gradientUnits="userSpaceOnUse">
<stop stop-color="#F9F9F9"/>
<stop offset="0.378992" stop-color="#F9F9F9"/>
<stop offset="0.480868" stop-color="#DFDFE6"/>
<stop offset="0.729174" stop-color="#B8BAC6"/>
</linearGradient>
<linearGradient id="paint10_linear_357_3558" x1="95.8641" y1="138.424" x2="79.2583" y2="120.812" gradientUnits="userSpaceOnUse">
<stop stop-color="#C3C5D1"/>
<stop offset="0.875" stop-color="#F9F9F9"/>
</linearGradient>
<linearGradient id="paint11_linear_357_3558" x1="74.3125" y1="121.253" x2="82.6242" y2="138.598" gradientUnits="userSpaceOnUse">
<stop stop-color="#F4F4F5"/>
<stop offset="0.306027" stop-color="#F4F4F5"/>
<stop offset="0.462087" stop-color="#E8E9EC"/>
<stop offset="0.682292" stop-color="#DFDFE6"/>
<stop offset="1" stop-color="#B8BAC6"/>
</linearGradient>
<linearGradient id="paint12_linear_357_3558" x1="225.891" y1="123.433" x2="242.511" y2="106.365" gradientUnits="userSpaceOnUse">
<stop stop-color="#C3C5D1"/>
<stop offset="0.875" stop-color="#F9F9F9"/>
</linearGradient>
<linearGradient id="paint13_linear_357_3558" x1="252.201" y1="103.809" x2="236.487" y2="123.84" gradientUnits="userSpaceOnUse">
<stop stop-color="#F9F9F9"/>
<stop offset="0.378992" stop-color="#F9F9F9"/>
<stop offset="0.480868" stop-color="#DFDFE6"/>
<stop offset="0.729174" stop-color="#B8BAC6"/>
</linearGradient>
<linearGradient id="paint14_linear_357_3558" x1="214.136" y1="138.424" x2="230.742" y2="120.812" gradientUnits="userSpaceOnUse">
<stop stop-color="#C3C5D1"/>
<stop offset="0.875" stop-color="#F9F9F9"/>
</linearGradient>
<linearGradient id="paint15_linear_357_3558" x1="235.687" y1="121.253" x2="227.376" y2="138.598" gradientUnits="userSpaceOnUse">
<stop stop-color="#F4F4F5"/>
<stop offset="0.306027" stop-color="#F4F4F5"/>
<stop offset="0.462087" stop-color="#E8E9EC"/>
<stop offset="0.682292" stop-color="#DFDFE6"/>
<stop offset="1" stop-color="#B8BAC6"/>
</linearGradient>
<linearGradient id="paint16_linear_357_3558" x1="142.813" y1="198.394" x2="126.876" y2="200.927" gradientUnits="userSpaceOnUse">
<stop stop-color="#91B1E3"/>
<stop offset="0.208702" stop-color="#F0F6FF"/>
<stop offset="0.514766" stop-color="#A4BFE9"/>
<stop offset="0.728274" stop-color="#8BADE0"/>
<stop offset="0.971703" stop-color="#D0DEF3"/>
</linearGradient>
<linearGradient id="paint17_linear_357_3558" x1="129.266" y1="202.092" x2="137.141" y2="199.681" gradientUnits="userSpaceOnUse">
<stop stop-color="#FAFCFF"/>
<stop offset="0.309893" stop-color="#D7E6FC"/>
<stop offset="0.523799" stop-color="#C1D8F4"/>
<stop offset="0.77229" stop-color="#BBD6FF"/>
<stop offset="1" stop-color="white"/>
</linearGradient>
<linearGradient id="paint18_linear_357_3558" x1="107.174" y1="188.399" x2="125.461" y2="209.439" gradientUnits="userSpaceOnUse">
<stop stop-color="#91B1E3"/>
<stop offset="0.208702" stop-color="#F0F6FF"/>
<stop offset="0.648432" stop-color="#A4BFE9"/>
<stop offset="0.780206" stop-color="#8BADE0"/>
<stop offset="0.971703" stop-color="#93B3E4"/>
</linearGradient>
<linearGradient id="paint19_linear_357_3558" x1="109.37" y1="192.201" x2="118.662" y2="189.356" gradientUnits="userSpaceOnUse">
<stop stop-color="#FAFCFF"/>
<stop offset="0.309893" stop-color="#D7E6FC"/>
<stop offset="0.523799" stop-color="#C1D8F4"/>
<stop offset="0.77229" stop-color="#BBD6FF"/>
<stop offset="1" stop-color="white"/>
</linearGradient>
<linearGradient id="paint20_linear_357_3558" x1="167.688" y1="198.394" x2="183.626" y2="200.927" gradientUnits="userSpaceOnUse">
<stop stop-color="#91B1E3"/>
<stop offset="0.208702" stop-color="#F0F6FF"/>
<stop offset="0.514766" stop-color="#A4BFE9"/>
<stop offset="0.728274" stop-color="#8BADE0"/>
<stop offset="0.971703" stop-color="#D0DEF3"/>
</linearGradient>
<linearGradient id="paint21_linear_357_3558" x1="181.235" y1="202.092" x2="173.361" y2="199.681" gradientUnits="userSpaceOnUse">
<stop stop-color="#FAFCFF"/>
<stop offset="0.309893" stop-color="#D7E6FC"/>
<stop offset="0.523799" stop-color="#C1D8F4"/>
<stop offset="0.77229" stop-color="#BBD6FF"/>
<stop offset="1" stop-color="white"/>
</linearGradient>
<linearGradient id="paint22_linear_357_3558" x1="203.328" y1="188.399" x2="185.041" y2="209.439" gradientUnits="userSpaceOnUse">
<stop stop-color="#91B1E3"/>
<stop offset="0.208702" stop-color="#F0F6FF"/>
<stop offset="0.648432" stop-color="#A4BFE9"/>
<stop offset="0.780206" stop-color="#8BADE0"/>
<stop offset="0.971703" stop-color="#93B3E4"/>
</linearGradient>
<linearGradient id="paint23_linear_357_3558" x1="201.133" y1="192.201" x2="191.84" y2="189.356" gradientUnits="userSpaceOnUse">
<stop stop-color="#FAFCFF"/>
<stop offset="0.309893" stop-color="#D7E6FC"/>
<stop offset="0.523799" stop-color="#C1D8F4"/>
<stop offset="0.77229" stop-color="#BBD6FF"/>
<stop offset="1" stop-color="white"/>
</linearGradient>
<linearGradient id="paint24_linear_357_3558" x1="138.407" y1="206.695" x2="173.076" y2="214.297" gradientUnits="userSpaceOnUse">
<stop stop-color="#91B1E3"/>
<stop offset="0.208702" stop-color="#F0F6FF"/>
<stop offset="0.648432" stop-color="#A4BFE9"/>
<stop offset="0.780206" stop-color="#8BADE0"/>
<stop offset="0.971703" stop-color="#93B3E4"/>
</linearGradient>
<linearGradient id="paint25_linear_357_3558" x1="168.712" y1="212.683" x2="153.007" y2="204.795" gradientUnits="userSpaceOnUse">
<stop stop-color="#FAFCFF"/>
<stop offset="0.309893" stop-color="#D7E6FC"/>
<stop offset="0.523799" stop-color="#C1D8F4"/>
<stop offset="0.77229" stop-color="#BBD6FF"/>
<stop offset="1" stop-color="white"/>
</linearGradient>
<linearGradient id="paint26_linear_357_3558" x1="154.999" y1="216.438" x2="154.999" y2="224.493" gradientUnits="userSpaceOnUse">
<stop stop-color="#6A88C3"/>
<stop offset="0.479167" stop-color="#E4EFFD"/>
<stop offset="1" stop-color="#E1ECFD"/>
</linearGradient>
<linearGradient id="paint27_linear_357_3558" x1="153.179" y1="216.644" x2="153.179" y2="223.072" gradientUnits="userSpaceOnUse">
<stop stop-color="#E2F5FF" stop-opacity="0"/>
<stop offset="0.479167" stop-color="#B6CAFE"/>
<stop offset="1" stop-color="#CCD7FF"/>
</linearGradient>
<linearGradient id="paint28_linear_357_3558" x1="156.819" y1="216.644" x2="156.819" y2="223.072" gradientUnits="userSpaceOnUse">
<stop stop-color="#E2F5FF" stop-opacity="0"/>
<stop offset="0.479167" stop-color="#B6CAFE"/>
<stop offset="1" stop-color="#CCD7FF"/>
</linearGradient>
<linearGradient id="paint29_linear_357_3558" x1="154.485" y1="223.522" x2="148.986" y2="224.19" gradientUnits="userSpaceOnUse">
<stop stop-color="#C9DEFC"/>
<stop offset="0.309893" stop-color="#ECF4FF"/>
<stop offset="0.523799" stop-color="#EAF6FF"/>
<stop offset="0.613641" stop-color="#CCE7FF"/>
<stop offset="1" stop-color="#CEE4F9"/>
</linearGradient>
<linearGradient id="paint30_linear_357_3558" x1="129.379" y1="80.5227" x2="181.991" y2="187.858" gradientUnits="userSpaceOnUse">
<stop stop-color="#FAFAFA"/>
<stop offset="1" stop-color="#C2C4CD"/>
</linearGradient>
<linearGradient id="paint31_linear_357_3558" x1="128.891" y1="89.3142" x2="174.313" y2="175.39" gradientUnits="userSpaceOnUse">
<stop stop-color="#CDCFD6"/>
<stop offset="1" stop-color="#EFEFF1"/>
</linearGradient>
<linearGradient id="paint32_linear_357_3558" x1="134.015" y1="86.2253" x2="182.972" y2="176.672" gradientUnits="userSpaceOnUse">
<stop stop-color="#DDDFE2"/>
<stop offset="1" stop-color="white"/>
</linearGradient>
<radialGradient id="paint33_radial_357_3558" cx="0" cy="0" r="1" gradientUnits="userSpaceOnUse" gradientTransform="translate(155.244 132.89) rotate(90) scale(53.7933 47.5815)">
<stop stop-color="#F5F7FF"/>
<stop offset="1" stop-color="#B3B5C5"/>
</radialGradient>
<linearGradient id="paint34_linear_357_3558" x1="155.244" y1="76.9668" x2="155.244" y2="188.809" gradientUnits="userSpaceOnUse">
<stop stop-color="white"/>
<stop offset="1" stop-color="#F2EDED" stop-opacity="0"/>
</linearGradient>
<linearGradient id="paint35_linear_357_3558" x1="96.4992" y1="87.0855" x2="151.668" y2="185.213" gradientUnits="userSpaceOnUse">
<stop stop-color="white"/>
<stop offset="1" stop-color="#F2EDED" stop-opacity="0"/>
</linearGradient>
<linearGradient id="paint36_linear_357_3558" x1="209.71" y1="87.0857" x2="154.541" y2="185.213" gradientUnits="userSpaceOnUse">
<stop stop-color="white"/>
<stop offset="1" stop-color="#F2EDED" stop-opacity="0"/>
</linearGradient>
<linearGradient id="paint37_linear_357_3558" x1="155.244" y1="152.593" x2="154.972" y2="182.95" gradientUnits="userSpaceOnUse">
<stop stop-color="white" stop-opacity="0"/>
<stop offset="1" stop-color="#D0DBFF"/>
</linearGradient>
<linearGradient id="paint38_linear_357_3558" x1="151.154" y1="88.0984" x2="180.452" y2="97.2421" gradientUnits="userSpaceOnUse">
<stop offset="0.168737" stop-color="#F4F3F8"/>
<stop offset="0.360439" stop-color="white"/>
<stop offset="0.451944" stop-color="white"/>
<stop offset="0.627859" stop-color="#E7E6EE"/>
<stop offset="0.80404" stop-color="#F3F3F3"/>
</linearGradient>
<clipPath id="clip0_357_3558">
<rect width="309" height="366" rx="25" fill="white"/>
</clipPath>
</defs>
</svg>
