<svg width="309" height="366" viewBox="0 0 309 366" fill="none" xmlns="http://www.w3.org/2000/svg">
<g clip-path="url(#clip0_357_3559)">
<rect width="309" height="366" rx="25" fill="#63059D"/>
<path d="M185.213 126.862L280 172.45L261.146 202.659L171.072 149.518L185.213 126.862Z" fill="url(#paint0_linear_357_3559)"/>
<path d="M169.464 151.272L174.177 250H136.468L141.182 151.272H169.464Z" fill="url(#paint1_linear_357_3559)"/>
<path d="M140.448 98.7283L135.735 0L173.444 0L168.73 98.7283L140.448 98.7283Z" fill="url(#paint2_linear_357_3559)"/>
<path d="M138.928 149.832L48.8545 202.972L30 172.763L124.787 127.175L138.928 149.832Z" fill="url(#paint3_linear_357_3559)"/>
<path d="M185.213 123.203L280 77.6146L261.146 47.406L171.072 100.546L185.213 123.203Z" fill="url(#paint4_linear_357_3559)"/>
<path d="M138.928 100.233L48.8545 47.0929L30 77.3015L124.787 122.89L138.928 100.233Z" fill="url(#paint5_linear_357_3559)"/>
<g filter="url(#filter0_dd_357_3559)">
<path d="M104.134 104.029L108.007 85.6768L51.5547 75.4821C49.134 86.9522 56.4476 95.4173 63.57 96.7036L104.134 104.029Z" fill="url(#paint6_linear_357_3559)"/>
<path d="M103.56 104.387L107.433 86.0344L52.4219 76.1001C50.0011 87.5702 57.3147 96.0353 64.4371 97.3215L103.56 104.387Z" stroke="url(#paint7_linear_357_3559)" stroke-width="2.29412"/>
<path d="M104.507 121.167L108.38 102.815L61.5372 94.3552C59.1164 105.825 66.43 114.29 73.5524 115.577L104.507 121.167Z" fill="url(#paint8_linear_357_3559)"/>
<path d="M104.507 121.167L108.38 102.815L61.5372 94.3552C59.1164 105.825 66.43 114.29 73.5524 115.577L104.507 121.167Z" stroke="url(#paint9_linear_357_3559)" stroke-width="2.29412"/>
<path d="M117.598 140.466L121.471 122.113L74.6275 113.654C72.2068 125.124 79.5203 133.589 86.6427 134.875L117.598 140.466Z" fill="url(#paint10_linear_357_3559)"/>
<path d="M117.598 140.466L121.471 122.113L74.6275 113.654C72.2068 125.124 79.5203 133.589 86.6427 134.875L117.598 140.466Z" stroke="url(#paint11_linear_357_3559)" stroke-width="2.29412"/>
<g filter="url(#filter1_d_357_3559)">
<path d="M106.938 185.39V146.26H132.148V199.918L108.59 188.07C107.577 187.561 106.938 186.524 106.938 185.39Z" fill="#ECD8BA"/>
<path d="M106.938 185.39V146.26H132.148V199.918L108.59 188.07C107.577 187.561 106.938 186.524 106.938 185.39Z" stroke="url(#paint12_linear_357_3559)"/>
</g>
<path fill-rule="evenodd" clip-rule="evenodd" d="M109.713 185.265V166.636H109.386V185.517L109.522 185.538C109.975 185.608 110.479 185.856 110.89 186.218C111.301 186.58 111.605 187.043 111.68 187.531L111.692 187.612L124.942 193.352V172.852H124.615V192.876L111.99 187.406C111.882 186.866 111.543 186.375 111.116 185.999C110.706 185.637 110.201 185.37 109.713 185.265Z" fill="url(#paint13_linear_357_3559)"/>
<path fill-rule="evenodd" clip-rule="evenodd" d="M124.597 191.767C124.95 191.215 124.97 190.431 124.943 189.925L124.616 189.941C124.643 190.444 124.614 191.145 124.315 191.613C124.17 191.84 123.965 192.007 123.669 192.075C123.369 192.145 122.954 192.118 122.382 191.912L122.264 192.195C122.871 192.413 123.359 192.46 123.749 192.369C124.144 192.277 124.416 192.05 124.597 191.767Z" fill="#D4B195"/>
<g filter="url(#filter2_d_357_3559)">
<path d="M202.148 185.39V146.26H176.938V199.918L200.496 188.07C201.509 187.561 202.148 186.524 202.148 185.39Z" fill="#ECD8BA"/>
<path d="M202.148 185.39V146.26H176.938V199.918L200.496 188.07C201.509 187.561 202.148 186.524 202.148 185.39Z" stroke="url(#paint14_linear_357_3559)"/>
</g>
<path fill-rule="evenodd" clip-rule="evenodd" d="M199.374 185.265V166.636H199.701V185.517L199.564 185.538C199.112 185.608 198.608 185.856 198.197 186.218C197.786 186.58 197.482 187.043 197.407 187.531L197.394 187.612L184.145 193.352V172.852H184.472V192.876L197.097 187.406C197.205 186.866 197.544 186.375 197.971 185.999C198.381 185.637 198.885 185.37 199.374 185.265Z" fill="url(#paint15_linear_357_3559)"/>
<path fill-rule="evenodd" clip-rule="evenodd" d="M184.49 191.767C184.137 191.215 184.117 190.431 184.144 189.925L184.471 189.941C184.444 190.444 184.473 191.145 184.772 191.613C184.917 191.84 185.122 192.007 185.418 192.075C185.718 192.145 186.133 192.118 186.705 191.912L186.823 192.195C186.216 192.413 185.728 192.46 185.338 192.369C184.943 192.277 184.671 192.05 184.49 191.767Z" fill="#D4B195"/>
<path d="M204.615 104.62L200.742 86.2678L257.194 76.0732C259.615 87.5433 252.301 96.0084 245.179 97.2946L204.615 104.62Z" fill="url(#paint16_linear_357_3559)"/>
<path d="M205.189 104.978L201.316 86.6254L256.327 76.691C258.747 88.1611 251.434 96.6262 244.311 97.9125L205.189 104.978Z" stroke="url(#paint17_linear_357_3559)" stroke-width="2.29412"/>
<path d="M204.241 121.758L200.368 103.406L247.211 94.9463C249.632 106.416 242.319 114.881 235.196 116.168L204.241 121.758Z" fill="url(#paint18_linear_357_3559)"/>
<path d="M204.241 121.758L200.368 103.406L247.211 94.9463C249.632 106.416 242.319 114.881 235.196 116.168L204.241 121.758Z" stroke="url(#paint19_linear_357_3559)" stroke-width="2.29412"/>
<path d="M191.151 141.057L187.278 122.704L234.122 114.245C236.542 125.715 229.229 134.18 222.106 135.466L191.151 141.057Z" fill="url(#paint20_linear_357_3559)"/>
<path d="M191.151 141.057L187.278 122.704L234.122 114.245C236.542 125.715 229.229 134.18 222.106 135.466L191.151 141.057Z" stroke="url(#paint21_linear_357_3559)" stroke-width="2.29412"/>
<g filter="url(#filter3_d_357_3559)">
<path d="M127.498 143.995H181.344V207.247L155.31 219.489C154.53 219.856 153.627 219.855 152.849 219.485L127.498 207.465V143.995Z" fill="url(#paint22_linear_357_3559)"/>
<path d="M127.498 143.995H181.344V207.247L155.31 219.489C154.53 219.856 153.627 219.855 152.849 219.485L127.498 207.465V143.995Z" stroke="url(#paint23_linear_357_3559)" stroke-width="2"/>
</g>
<path fill-rule="evenodd" clip-rule="evenodd" d="M162.253 215.771L155.31 219.037C154.53 219.403 153.627 219.402 152.849 219.033L145.61 215.6V169.353H162.253V215.771Z" fill="url(#paint24_linear_357_3559)"/>
<path fill-rule="evenodd" clip-rule="evenodd" d="M130.435 177.957H131.215V206.266L154.227 217.27L177.627 206.265V177.957H178.407V206.522L154.224 217.804L130.435 206.521V177.957Z" fill="url(#paint25_linear_357_3559)"/>
<path fill-rule="evenodd" clip-rule="evenodd" d="M154.388 207.39V215.605H153.962V207.39H154.388Z" fill="url(#paint26_linear_357_3559)"/>
<path fill-rule="evenodd" clip-rule="evenodd" d="M152.9 212.689C152.053 213.593 151.021 213.794 150.311 213.685L150.38 213.296C150.947 213.384 151.83 213.23 152.578 212.432C153.33 211.63 153.962 210.158 153.962 207.586H154.388C154.388 210.21 153.744 211.789 152.9 212.689Z" fill="url(#paint27_linear_357_3559)"/>
<path fill-rule="evenodd" clip-rule="evenodd" d="M155.45 212.689C156.297 213.593 157.329 213.794 158.04 213.685L157.97 213.296C157.404 213.384 156.521 213.23 155.772 212.432C155.02 211.63 154.388 210.158 154.388 207.586H153.962C153.962 210.21 154.606 211.789 155.45 212.689Z" fill="url(#paint28_linear_357_3559)"/>
<path fill-rule="evenodd" clip-rule="evenodd" d="M154.086 215.784L149.281 213.294L150.345 213.294L154.175 215.389L158.004 213.276H158.943L154.263 215.784C154.206 215.808 154.142 215.808 154.086 215.784Z" fill="url(#paint29_linear_357_3559)"/>
<g filter="url(#filter4_d_357_3559)">
<path d="M146.779 63.1641L102.59 85.4005C96.852 88.2878 93.2315 94.1628 93.2315 100.586L93.2314 149.597C93.2314 156.02 96.852 161.895 102.59 164.782L146.779 187.019C151.586 189.438 157.255 189.438 162.062 187.019L206.252 164.782C211.989 161.895 215.61 156.02 215.61 149.597L215.61 100.586C215.61 94.1628 211.989 88.2879 206.252 85.4005L162.062 63.1641C157.255 60.7451 151.586 60.7451 146.779 63.1641Z" fill="url(#paint30_linear_357_3559)"/>
<path d="M146.735 73.1116L111.855 90.663C106.139 93.5395 102.532 99.3923 102.532 105.792L102.532 144.163C102.532 150.562 106.139 156.415 111.855 159.291L146.735 176.843C151.524 179.253 157.171 179.253 161.96 176.843L196.839 159.291C202.556 156.415 206.163 150.562 206.163 144.163L206.163 105.792C206.163 99.3923 202.556 93.5395 196.839 90.663L161.96 73.1116C157.171 70.7017 151.524 70.7017 146.735 73.1116Z" fill="url(#paint31_linear_357_3559)"/>
<g filter="url(#filter5_f_357_3559)">
<path d="M146.735 73.1116L111.855 90.663C106.139 93.5395 102.532 99.3923 102.532 105.792L102.532 144.163C102.532 150.562 106.139 156.415 111.855 159.291L146.735 176.843C151.524 179.253 157.171 179.253 161.96 176.843L196.839 159.291C202.556 156.415 206.163 150.562 206.163 144.163L206.163 105.792C206.163 99.3923 202.556 93.5395 196.839 90.663L161.96 73.1116C157.171 70.7017 151.524 70.7017 146.735 73.1116Z" stroke="url(#paint32_linear_357_3559)"/>
</g>
<g opacity="0.5">
<mask id="mask0_357_3559" style="mask-type:alpha" maskUnits="userSpaceOnUse" x="106" y="75" width="97" height="100">
<path d="M147.429 77.447L115.811 93.343C110.371 96.0782 106.938 101.647 106.938 107.736L106.938 142.395C106.938 148.484 110.371 154.053 115.811 156.788L147.429 172.684C151.982 174.973 157.349 174.973 161.901 172.684L193.519 156.788C198.959 154.053 202.393 148.484 202.393 142.395L202.393 107.736C202.393 101.647 198.959 96.0782 193.519 93.343L161.901 77.447C157.349 75.1581 151.982 75.1581 147.429 77.447Z" fill="#A6D3DE"/>
</mask>
<g mask="url(#mask0_357_3559)">
<path d="M147.429 77.447L115.811 93.343C110.371 96.0782 106.938 101.647 106.938 107.736L106.938 142.395C106.938 148.484 110.371 154.053 115.811 156.788L147.429 172.684C151.982 174.973 157.349 174.973 161.901 172.684L193.519 156.788C198.959 154.053 202.393 148.484 202.393 142.395L202.393 107.736C202.393 101.647 198.959 96.0782 193.519 93.343L161.901 77.447C157.349 75.1581 151.982 75.1581 147.429 77.447Z" fill="url(#paint33_radial_357_3559)"/>
<path opacity="0.5" d="M146.686 178.347L144.791 71.7792H164.54L162.644 178.347H146.686Z" fill="url(#paint34_linear_357_3559)"/>
<path opacity="0.5" d="M146.433 177.402L87.1885 85.9882L104.292 76.8538L160.252 170.021L146.433 177.402Z" fill="url(#paint35_linear_357_3559)"/>
<path opacity="0.5" d="M144.787 170.021L200.747 76.8536L217.851 85.988L158.606 177.402L144.787 170.021Z" fill="url(#paint36_linear_357_3559)"/>
<rect x="106.938" y="118.973" width="95.4553" height="57.3436" fill="url(#paint37_linear_357_3559)"/>
<g filter="url(#filter6_i_357_3559)">
<path d="M147.429 77.447L115.811 93.343C110.371 96.0782 106.938 101.647 106.938 107.736L106.938 142.395C106.938 148.484 110.371 154.053 115.811 156.788L147.429 172.684C151.982 174.973 157.349 174.973 161.901 172.684L193.519 156.788C198.959 154.053 202.393 148.484 202.393 142.395L202.393 107.736C202.393 101.647 198.959 96.0782 193.519 93.343L161.901 77.447C157.349 75.1581 151.982 75.1581 147.429 77.447Z" fill="#6052B4" fill-opacity="0.01"/>
</g>
</g>
</g>
</g>
</g>
<g opacity="0.3" filter="url(#filter7_f_357_3559)">
<ellipse cx="119.393" cy="52.805" rx="3.72748" ry="3.44804" fill="#FFEBC4"/>
</g>
<g filter="url(#filter8_f_357_3559)">
<ellipse cx="103.691" cy="177.747" rx="1.24249" ry="1.14935" fill="#FFEBC4"/>
</g>
<g opacity="0.3" filter="url(#filter9_f_357_3559)">
<ellipse cx="113.971" cy="72.6943" rx="1.24249" ry="1.14935" fill="#FFEBC4"/>
</g>
<g filter="url(#filter10_f_357_3559)">
<ellipse cx="218.726" cy="140.164" rx="1.24249" ry="1.14935" fill="#FFEBC4"/>
</g>
<g filter="url(#filter11_f_357_3559)">
<ellipse cx="68.897" cy="130.019" rx="4.14165" ry="3.83115" fill="#FFDDAA"/>
</g>
<g opacity="0.6" filter="url(#filter12_f_357_3559)">
<ellipse cx="258" cy="113.552" rx="3.31332" ry="3.06492" fill="#FFDDAA"/>
</g>
<g opacity="0.8" filter="url(#filter13_f_357_3559)">
<ellipse cx="120.936" cy="213.624" rx="3.31332" ry="3.06492" fill="#FFDDAA"/>
</g>
<g filter="url(#filter14_d_357_3559)">
<path fill-rule="evenodd" clip-rule="evenodd" d="M154.336 132.222C166.232 132.222 175.875 123.302 175.875 112.298C175.875 101.295 166.232 92.3744 154.336 92.3744C142.441 92.3744 132.798 101.295 132.798 112.298C132.798 123.302 142.441 132.222 154.336 132.222ZM151.007 131.067C160.029 131.067 167.343 124.302 167.343 115.956C167.343 107.61 160.029 100.844 151.007 100.844C141.985 100.844 134.671 107.61 134.671 115.956C134.671 124.302 141.985 131.067 151.007 131.067Z" fill="url(#paint38_linear_357_3559)"/>
</g>
<path d="M58.2578 265.625V277H57.3047V265.625H58.2578ZM62.1562 265.625V266.453H53.4141V265.625H62.1562ZM64.7987 265V277H63.8691V265H64.7987ZM64.5878 272.25L64.1737 272.016C64.205 271.516 64.3066 271.047 64.4784 270.609C64.6503 270.172 64.8821 269.786 65.1737 269.453C65.4706 269.12 65.817 268.859 66.2128 268.672C66.6139 268.484 67.0566 268.391 67.5409 268.391C67.9628 268.391 68.3404 268.448 68.6737 268.562C69.0071 268.677 69.2909 268.859 69.5253 269.109C69.7597 269.359 69.9368 269.68 70.0566 270.07C70.1816 270.461 70.2441 270.938 70.2441 271.5V277H69.3066V271.492C69.3066 270.909 69.2258 270.453 69.0644 270.125C68.9029 269.792 68.6737 269.555 68.3769 269.414C68.08 269.273 67.7284 269.203 67.3222 269.203C66.8743 269.203 66.481 269.302 66.1425 269.5C65.8092 269.693 65.5279 269.945 65.2987 270.258C65.0748 270.565 64.9029 270.896 64.7831 271.25C64.6633 271.599 64.5982 271.932 64.5878 272.25ZM75.9959 277.156C75.4439 277.156 74.936 277.055 74.4725 276.852C74.0142 276.648 73.6131 276.362 73.2694 275.992C72.9308 275.622 72.6678 275.185 72.4803 274.68C72.298 274.169 72.2069 273.612 72.2069 273.008V272.672C72.2069 272.021 72.3032 271.432 72.4959 270.906C72.6886 270.38 72.9543 269.93 73.2928 269.555C73.6314 269.18 74.0168 268.893 74.4491 268.695C74.8866 268.492 75.3449 268.391 75.8241 268.391C76.3605 268.391 76.8371 268.487 77.2537 268.68C77.6704 268.867 78.0194 269.135 78.3006 269.484C78.5871 269.828 78.8032 270.237 78.9491 270.711C79.0949 271.18 79.1678 271.698 79.1678 272.266V272.836H72.7694V272.039H78.2381V271.93C78.2277 271.456 78.1314 271.013 77.9491 270.602C77.772 270.185 77.5064 269.846 77.1522 269.586C76.798 269.326 76.3553 269.195 75.8241 269.195C75.4282 269.195 75.0636 269.279 74.7303 269.445C74.4022 269.612 74.1183 269.852 73.8787 270.164C73.6444 270.471 73.4621 270.839 73.3319 271.266C73.2069 271.688 73.1444 272.156 73.1444 272.672V273.008C73.1444 273.477 73.2121 273.914 73.3475 274.32C73.4881 274.721 73.686 275.076 73.9412 275.383C74.2017 275.69 74.509 275.93 74.8631 276.102C75.2173 276.273 75.6079 276.359 76.035 276.359C76.535 276.359 76.9777 276.268 77.3631 276.086C77.7485 275.898 78.0949 275.604 78.4022 275.203L78.9881 275.656C78.8058 275.927 78.5767 276.177 78.3006 276.406C78.0298 276.635 77.7043 276.818 77.3241 276.953C76.9439 277.089 76.5011 277.156 75.9959 277.156ZM86.1541 274.844C86.1541 274.615 86.0968 274.388 85.9822 274.164C85.8676 273.94 85.6462 273.734 85.3181 273.547C84.9952 273.359 84.5186 273.201 83.8884 273.07C83.4197 272.966 83.0004 272.849 82.6306 272.719C82.266 272.589 81.9587 272.432 81.7087 272.25C81.4587 272.068 81.2686 271.849 81.1384 271.594C81.0082 271.339 80.9431 271.036 80.9431 270.688C80.9431 270.375 81.0108 270.081 81.1462 269.805C81.2869 269.523 81.4848 269.279 81.74 269.07C82.0004 268.857 82.3129 268.69 82.6775 268.57C83.0473 268.451 83.4614 268.391 83.9197 268.391C84.5707 268.391 85.128 268.503 85.5916 268.727C86.0603 268.945 86.4171 269.245 86.6619 269.625C86.9119 270.005 87.0369 270.435 87.0369 270.914H86.1072C86.1072 270.622 86.0212 270.346 85.8494 270.086C85.6827 269.826 85.4353 269.612 85.1072 269.445C84.7843 269.279 84.3884 269.195 83.9197 269.195C83.4353 269.195 83.0421 269.268 82.74 269.414C82.4379 269.56 82.2166 269.745 82.0759 269.969C81.9405 270.193 81.8728 270.424 81.8728 270.664C81.8728 270.852 81.9015 271.023 81.9587 271.18C82.0212 271.331 82.1306 271.471 82.2869 271.602C82.4483 271.732 82.6775 271.854 82.9744 271.969C83.2712 272.083 83.6567 272.195 84.1306 272.305C84.8129 272.456 85.3702 272.641 85.8025 272.859C86.24 273.073 86.5629 273.339 86.7712 273.656C86.9796 273.969 87.0837 274.349 87.0837 274.797C87.0837 275.146 87.0108 275.466 86.865 275.758C86.7192 276.044 86.5082 276.292 86.2322 276.5C85.9614 276.708 85.6332 276.87 85.2478 276.984C84.8676 277.099 84.4405 277.156 83.9666 277.156C83.253 277.156 82.6489 277.039 82.1541 276.805C81.6645 276.565 81.2921 276.253 81.0369 275.867C80.7869 275.477 80.6619 275.062 80.6619 274.625H81.5916C81.6228 275.062 81.7608 275.409 82.0056 275.664C82.2504 275.914 82.5499 276.091 82.9041 276.195C83.2634 276.299 83.6176 276.352 83.9666 276.352C84.4457 276.352 84.8468 276.281 85.1697 276.141C85.4926 276 85.7374 275.815 85.9041 275.586C86.0707 275.357 86.1541 275.109 86.1541 274.844ZM92.5466 277.156C91.9945 277.156 91.4867 277.055 91.0231 276.852C90.5648 276.648 90.1637 276.362 89.82 275.992C89.4815 275.622 89.2184 275.185 89.0309 274.68C88.8486 274.169 88.7575 273.612 88.7575 273.008V272.672C88.7575 272.021 88.8539 271.432 89.0466 270.906C89.2393 270.38 89.5049 269.93 89.8434 269.555C90.182 269.18 90.5674 268.893 90.9997 268.695C91.4372 268.492 91.8955 268.391 92.3747 268.391C92.9111 268.391 93.3877 268.487 93.8044 268.68C94.221 268.867 94.57 269.135 94.8512 269.484C95.1377 269.828 95.3539 270.237 95.4997 270.711C95.6455 271.18 95.7184 271.698 95.7184 272.266V272.836H89.32V272.039H94.7887V271.93C94.7783 271.456 94.682 271.013 94.4997 270.602C94.3226 270.185 94.057 269.846 93.7028 269.586C93.3486 269.326 92.9059 269.195 92.3747 269.195C91.9789 269.195 91.6143 269.279 91.2809 269.445C90.9528 269.612 90.669 269.852 90.4294 270.164C90.195 270.471 90.0127 270.839 89.8825 271.266C89.7575 271.688 89.695 272.156 89.695 272.672V273.008C89.695 273.477 89.7627 273.914 89.8981 274.32C90.0387 274.721 90.2367 275.076 90.4919 275.383C90.7523 275.69 91.0596 275.93 91.4137 276.102C91.7679 276.273 92.1585 276.359 92.5856 276.359C93.0856 276.359 93.5283 276.268 93.9137 276.086C94.2992 275.898 94.6455 275.604 94.9528 275.203L95.5387 275.656C95.3565 275.927 95.1273 276.177 94.8512 276.406C94.5804 276.635 94.2549 276.818 93.8747 276.953C93.4945 277.089 93.0518 277.156 92.5466 277.156ZM106.769 275.484V271.125C106.769 270.724 106.686 270.378 106.519 270.086C106.352 269.794 106.108 269.57 105.785 269.414C105.462 269.258 105.063 269.18 104.589 269.18C104.152 269.18 103.761 269.258 103.417 269.414C103.079 269.565 102.811 269.771 102.613 270.031C102.42 270.286 102.324 270.57 102.324 270.883L101.386 270.875C101.386 270.557 101.464 270.25 101.621 269.953C101.777 269.656 101.998 269.391 102.285 269.156C102.571 268.922 102.912 268.737 103.308 268.602C103.709 268.461 104.149 268.391 104.628 268.391C105.233 268.391 105.764 268.492 106.222 268.695C106.686 268.898 107.048 269.203 107.308 269.609C107.569 270.016 107.699 270.526 107.699 271.141V275.227C107.699 275.518 107.72 275.82 107.761 276.133C107.808 276.445 107.873 276.703 107.957 276.906V277H106.964C106.902 276.812 106.852 276.578 106.816 276.297C106.785 276.01 106.769 275.74 106.769 275.484ZM106.988 272.078L107.003 272.797H105.167C104.688 272.797 104.259 272.841 103.878 272.93C103.503 273.013 103.186 273.138 102.925 273.305C102.665 273.466 102.464 273.661 102.324 273.891C102.188 274.12 102.121 274.38 102.121 274.672C102.121 274.974 102.196 275.25 102.347 275.5C102.503 275.75 102.722 275.951 103.003 276.102C103.29 276.247 103.628 276.32 104.019 276.32C104.54 276.32 104.998 276.224 105.394 276.031C105.795 275.839 106.126 275.586 106.386 275.273C106.647 274.961 106.821 274.62 106.91 274.25L107.316 274.789C107.248 275.049 107.123 275.318 106.941 275.594C106.764 275.865 106.532 276.12 106.246 276.359C105.959 276.594 105.621 276.786 105.23 276.938C104.845 277.083 104.407 277.156 103.917 277.156C103.365 277.156 102.884 277.052 102.472 276.844C102.066 276.635 101.748 276.352 101.519 275.992C101.295 275.628 101.183 275.216 101.183 274.758C101.183 274.341 101.272 273.969 101.449 273.641C101.626 273.307 101.881 273.026 102.214 272.797C102.553 272.562 102.959 272.385 103.433 272.266C103.912 272.141 104.449 272.078 105.042 272.078H106.988ZM111.216 269.945V277H110.287V268.547H111.193L111.216 269.945ZM114.208 268.484L114.185 269.344C114.081 269.328 113.979 269.315 113.88 269.305C113.781 269.294 113.675 269.289 113.56 269.289C113.154 269.289 112.797 269.365 112.49 269.516C112.188 269.661 111.932 269.867 111.724 270.133C111.516 270.393 111.357 270.701 111.248 271.055C111.138 271.404 111.076 271.779 111.06 272.18L110.716 272.312C110.716 271.76 110.774 271.247 110.888 270.773C111.003 270.299 111.177 269.885 111.412 269.531C111.651 269.172 111.951 268.893 112.31 268.695C112.675 268.492 113.102 268.391 113.591 268.391C113.711 268.391 113.828 268.401 113.943 268.422C114.063 268.438 114.151 268.458 114.208 268.484ZM118.867 277.156C118.314 277.156 117.807 277.055 117.343 276.852C116.885 276.648 116.484 276.362 116.14 275.992C115.801 275.622 115.538 275.185 115.351 274.68C115.169 274.169 115.077 273.612 115.077 273.008V272.672C115.077 272.021 115.174 271.432 115.367 270.906C115.559 270.38 115.825 269.93 116.163 269.555C116.502 269.18 116.887 268.893 117.32 268.695C117.757 268.492 118.216 268.391 118.695 268.391C119.231 268.391 119.708 268.487 120.124 268.68C120.541 268.867 120.89 269.135 121.171 269.484C121.458 269.828 121.674 270.237 121.82 270.711C121.966 271.18 122.038 271.698 122.038 272.266V272.836H115.64V272.039H121.109V271.93C121.098 271.456 121.002 271.013 120.82 270.602C120.643 270.185 120.377 269.846 120.023 269.586C119.669 269.326 119.226 269.195 118.695 269.195C118.299 269.195 117.934 269.279 117.601 269.445C117.273 269.612 116.989 269.852 116.749 270.164C116.515 270.471 116.333 270.839 116.202 271.266C116.077 271.688 116.015 272.156 116.015 272.672V273.008C116.015 273.477 116.083 273.914 116.218 274.32C116.359 274.721 116.557 275.076 116.812 275.383C117.072 275.69 117.38 275.93 117.734 276.102C118.088 276.273 118.479 276.359 118.906 276.359C119.406 276.359 119.848 276.268 120.234 276.086C120.619 275.898 120.966 275.604 121.273 275.203L121.859 275.656C121.676 275.927 121.447 276.177 121.171 276.406C120.9 276.635 120.575 276.818 120.195 276.953C119.814 277.089 119.372 277.156 118.867 277.156ZM133.089 275.484V271.125C133.089 270.724 133.006 270.378 132.839 270.086C132.672 269.794 132.428 269.57 132.105 269.414C131.782 269.258 131.383 269.18 130.909 269.18C130.472 269.18 130.081 269.258 129.738 269.414C129.399 269.565 129.131 269.771 128.933 270.031C128.74 270.286 128.644 270.57 128.644 270.883L127.706 270.875C127.706 270.557 127.784 270.25 127.941 269.953C128.097 269.656 128.318 269.391 128.605 269.156C128.891 268.922 129.232 268.737 129.628 268.602C130.029 268.461 130.469 268.391 130.948 268.391C131.553 268.391 132.084 268.492 132.542 268.695C133.006 268.898 133.368 269.203 133.628 269.609C133.889 270.016 134.019 270.526 134.019 271.141V275.227C134.019 275.518 134.04 275.82 134.081 276.133C134.128 276.445 134.193 276.703 134.277 276.906V277H133.284C133.222 276.812 133.172 276.578 133.136 276.297C133.105 276.01 133.089 275.74 133.089 275.484ZM133.308 272.078L133.323 272.797H131.488C131.008 272.797 130.579 272.841 130.198 272.93C129.823 273.013 129.506 273.138 129.245 273.305C128.985 273.466 128.784 273.661 128.644 273.891C128.508 274.12 128.441 274.38 128.441 274.672C128.441 274.974 128.516 275.25 128.667 275.5C128.823 275.75 129.042 275.951 129.323 276.102C129.61 276.247 129.948 276.32 130.339 276.32C130.86 276.32 131.318 276.224 131.714 276.031C132.115 275.839 132.446 275.586 132.706 275.273C132.967 274.961 133.141 274.62 133.23 274.25L133.636 274.789C133.568 275.049 133.443 275.318 133.261 275.594C133.084 275.865 132.852 276.12 132.566 276.359C132.279 276.594 131.941 276.786 131.55 276.938C131.165 277.083 130.727 277.156 130.238 277.156C129.685 277.156 129.204 277.052 128.792 276.844C128.386 276.635 128.068 276.352 127.839 275.992C127.615 275.628 127.503 275.216 127.503 274.758C127.503 274.341 127.592 273.969 127.769 273.641C127.946 273.307 128.201 273.026 128.534 272.797C128.873 272.562 129.279 272.385 129.753 272.266C130.232 272.141 130.769 272.078 131.363 272.078H133.308ZM139.724 276.352C140.12 276.352 140.489 276.279 140.833 276.133C141.182 275.982 141.469 275.76 141.692 275.469C141.922 275.172 142.052 274.81 142.083 274.383H142.974C142.948 274.919 142.784 275.398 142.482 275.82C142.185 276.237 141.794 276.565 141.31 276.805C140.831 277.039 140.302 277.156 139.724 277.156C139.135 277.156 138.614 277.049 138.161 276.836C137.713 276.622 137.338 276.326 137.036 275.945C136.734 275.56 136.505 275.112 136.349 274.602C136.198 274.086 136.122 273.531 136.122 272.938V272.609C136.122 272.016 136.198 271.464 136.349 270.953C136.505 270.438 136.734 269.99 137.036 269.609C137.338 269.224 137.713 268.924 138.161 268.711C138.609 268.497 139.127 268.391 139.716 268.391C140.32 268.391 140.862 268.513 141.341 268.758C141.825 269.003 142.211 269.349 142.497 269.797C142.789 270.245 142.948 270.776 142.974 271.391H142.083C142.057 270.938 141.937 270.547 141.724 270.219C141.51 269.891 141.229 269.638 140.88 269.461C140.531 269.284 140.143 269.195 139.716 269.195C139.237 269.195 138.828 269.289 138.489 269.477C138.151 269.659 137.875 269.911 137.661 270.234C137.453 270.552 137.299 270.917 137.2 271.328C137.101 271.734 137.052 272.161 137.052 272.609V272.938C137.052 273.391 137.099 273.823 137.192 274.234C137.291 274.641 137.445 275.003 137.653 275.32C137.867 275.638 138.143 275.891 138.482 276.078C138.825 276.26 139.239 276.352 139.724 276.352ZM145.866 265V277H144.937V265H145.866ZM145.655 272.25L145.241 272.016C145.272 271.516 145.374 271.047 145.546 270.609C145.718 270.172 145.95 269.786 146.241 269.453C146.538 269.12 146.884 268.859 147.28 268.672C147.681 268.484 148.124 268.391 148.608 268.391C149.03 268.391 149.408 268.448 149.741 268.562C150.075 268.677 150.358 268.859 150.593 269.109C150.827 269.359 151.004 269.68 151.124 270.07C151.249 270.461 151.312 270.938 151.312 271.5V277H150.374V271.492C150.374 270.909 150.293 270.453 150.132 270.125C149.97 269.792 149.741 269.555 149.444 269.414C149.147 269.273 148.796 269.203 148.39 269.203C147.942 269.203 147.549 269.302 147.21 269.5C146.877 269.693 146.595 269.945 146.366 270.258C146.142 270.565 145.97 270.896 145.851 271.25C145.731 271.599 145.666 271.932 145.655 272.25ZM154.837 268.547V277H153.907V268.547H154.837ZM153.743 266.102C153.743 265.924 153.798 265.776 153.907 265.656C154.022 265.531 154.178 265.469 154.376 265.469C154.574 265.469 154.73 265.531 154.845 265.656C154.964 265.776 155.024 265.924 155.024 266.102C155.024 266.273 154.964 266.422 154.845 266.547C154.73 266.667 154.574 266.727 154.376 266.727C154.178 266.727 154.022 266.667 153.907 266.547C153.798 266.422 153.743 266.273 153.743 266.102ZM160.737 277.156C160.185 277.156 159.677 277.055 159.214 276.852C158.755 276.648 158.354 276.362 158.011 275.992C157.672 275.622 157.409 275.185 157.222 274.68C157.039 274.169 156.948 273.612 156.948 273.008V272.672C156.948 272.021 157.044 271.432 157.237 270.906C157.43 270.38 157.696 269.93 158.034 269.555C158.373 269.18 158.758 268.893 159.19 268.695C159.628 268.492 160.086 268.391 160.565 268.391C161.102 268.391 161.578 268.487 161.995 268.68C162.412 268.867 162.761 269.135 163.042 269.484C163.328 269.828 163.544 270.237 163.69 270.711C163.836 271.18 163.909 271.698 163.909 272.266V272.836H157.511V272.039H162.979V271.93C162.969 271.456 162.873 271.013 162.69 270.602C162.513 270.185 162.248 269.846 161.893 269.586C161.539 269.326 161.097 269.195 160.565 269.195C160.169 269.195 159.805 269.279 159.472 269.445C159.143 269.612 158.86 269.852 158.62 270.164C158.386 270.471 158.203 270.839 158.073 271.266C157.948 271.688 157.886 272.156 157.886 272.672V273.008C157.886 273.477 157.953 273.914 158.089 274.32C158.229 274.721 158.427 275.076 158.683 275.383C158.943 275.69 159.25 275.93 159.604 276.102C159.959 276.273 160.349 276.359 160.776 276.359C161.276 276.359 161.719 276.268 162.104 276.086C162.49 275.898 162.836 275.604 163.143 275.203L163.729 275.656C163.547 275.927 163.318 276.177 163.042 276.406C162.771 276.635 162.446 276.818 162.065 276.953C161.685 277.089 161.242 277.156 160.737 277.156ZM168.216 276.102L170.927 268.547H171.887L168.723 277H168.044L168.216 276.102ZM165.762 268.547L168.505 276.125L168.653 277H167.966L164.794 268.547H165.762ZM176.663 277.156C176.111 277.156 175.603 277.055 175.139 276.852C174.681 276.648 174.28 276.362 173.936 275.992C173.598 275.622 173.335 275.185 173.147 274.68C172.965 274.169 172.874 273.612 172.874 273.008V272.672C172.874 272.021 172.97 271.432 173.163 270.906C173.356 270.38 173.621 269.93 173.96 269.555C174.298 269.18 174.684 268.893 175.116 268.695C175.553 268.492 176.012 268.391 176.491 268.391C177.027 268.391 177.504 268.487 177.921 268.68C178.337 268.867 178.686 269.135 178.967 269.484C179.254 269.828 179.47 270.237 179.616 270.711C179.762 271.18 179.835 271.698 179.835 272.266V272.836H173.436V272.039H178.905V271.93C178.895 271.456 178.798 271.013 178.616 270.602C178.439 270.185 178.173 269.846 177.819 269.586C177.465 269.326 177.022 269.195 176.491 269.195C176.095 269.195 175.731 269.279 175.397 269.445C175.069 269.612 174.785 269.852 174.546 270.164C174.311 270.471 174.129 270.839 173.999 271.266C173.874 271.688 173.811 272.156 173.811 272.672V273.008C173.811 273.477 173.879 273.914 174.014 274.32C174.155 274.721 174.353 275.076 174.608 275.383C174.869 275.69 175.176 275.93 175.53 276.102C175.884 276.273 176.275 276.359 176.702 276.359C177.202 276.359 177.645 276.268 178.03 276.086C178.415 275.898 178.762 275.604 179.069 275.203L179.655 275.656C179.473 275.927 179.244 276.177 178.967 276.406C178.697 276.635 178.371 276.818 177.991 276.953C177.611 277.089 177.168 277.156 176.663 277.156ZM187.251 275.359V265H188.188V277H187.313L187.251 275.359ZM181.383 272.859V272.695C181.383 272.039 181.459 271.448 181.61 270.922C181.761 270.391 181.977 269.938 182.258 269.562C182.545 269.182 182.889 268.893 183.29 268.695C183.691 268.492 184.144 268.391 184.649 268.391C185.144 268.391 185.581 268.471 185.962 268.633C186.342 268.794 186.667 269.026 186.938 269.328C187.214 269.63 187.436 269.99 187.602 270.406C187.774 270.823 187.899 271.286 187.977 271.797V273.883C187.915 274.362 187.8 274.802 187.633 275.203C187.467 275.599 187.245 275.945 186.969 276.242C186.693 276.534 186.36 276.76 185.969 276.922C185.584 277.078 185.139 277.156 184.633 277.156C184.133 277.156 183.683 277.052 183.282 276.844C182.881 276.635 182.54 276.341 182.258 275.961C181.977 275.576 181.761 275.12 181.61 274.594C181.459 274.068 181.383 273.49 181.383 272.859ZM182.321 272.695V272.859C182.321 273.354 182.37 273.812 182.469 274.234C182.568 274.656 182.719 275.023 182.923 275.336C183.126 275.648 183.383 275.893 183.696 276.07C184.008 276.247 184.378 276.336 184.805 276.336C185.342 276.336 185.792 276.234 186.157 276.031C186.521 275.823 186.813 275.549 187.032 275.211C187.251 274.867 187.409 274.492 187.508 274.086V271.656C187.446 271.38 187.355 271.099 187.235 270.812C187.115 270.526 186.951 270.263 186.743 270.023C186.54 269.779 186.279 269.583 185.962 269.438C185.649 269.286 185.269 269.211 184.821 269.211C184.389 269.211 184.016 269.299 183.704 269.477C183.391 269.654 183.131 269.901 182.923 270.219C182.719 270.531 182.568 270.898 182.469 271.32C182.37 271.742 182.321 272.201 182.321 272.695ZM197.059 275.023L199.098 268.547H199.754L199.364 270.289L197.231 277H196.575L197.059 275.023ZM194.942 268.547L196.731 275.062L197.114 277H196.434L193.981 268.547H194.942ZM202.293 275.039L204.036 268.547H204.997L202.543 277H201.872L202.293 275.039ZM199.887 268.547L201.895 274.969L202.403 277H201.747L199.567 270.281L199.2 268.547H199.887ZM207.803 265V277H206.873V265H207.803ZM207.592 272.25L207.178 272.016C207.209 271.516 207.311 271.047 207.483 270.609C207.655 270.172 207.886 269.786 208.178 269.453C208.475 269.12 208.821 268.859 209.217 268.672C209.618 268.484 210.061 268.391 210.545 268.391C210.967 268.391 211.345 268.448 211.678 268.562C212.011 268.677 212.295 268.859 212.53 269.109C212.764 269.359 212.941 269.68 213.061 270.07C213.186 270.461 213.248 270.938 213.248 271.5V277H212.311V271.492C212.311 270.909 212.23 270.453 212.069 270.125C211.907 269.792 211.678 269.555 211.381 269.414C211.084 269.273 210.733 269.203 210.327 269.203C209.879 269.203 209.485 269.302 209.147 269.5C208.814 269.693 208.532 269.945 208.303 270.258C208.079 270.565 207.907 270.896 207.788 271.25C207.668 271.599 207.603 271.932 207.592 272.25ZM219 277.156C218.448 277.156 217.94 277.055 217.477 276.852C217.019 276.648 216.617 276.362 216.274 275.992C215.935 275.622 215.672 275.185 215.485 274.68C215.302 274.169 215.211 273.612 215.211 273.008V272.672C215.211 272.021 215.308 271.432 215.5 270.906C215.693 270.38 215.959 269.93 216.297 269.555C216.636 269.18 217.021 268.893 217.453 268.695C217.891 268.492 218.349 268.391 218.828 268.391C219.365 268.391 219.841 268.487 220.258 268.68C220.675 268.867 221.024 269.135 221.305 269.484C221.591 269.828 221.808 270.237 221.953 270.711C222.099 271.18 222.172 271.698 222.172 272.266V272.836H215.774V272.039H221.242V271.93C221.232 271.456 221.136 271.013 220.953 270.602C220.776 270.185 220.511 269.846 220.157 269.586C219.802 269.326 219.36 269.195 218.828 269.195C218.433 269.195 218.068 269.279 217.735 269.445C217.407 269.612 217.123 269.852 216.883 270.164C216.649 270.471 216.466 270.839 216.336 271.266C216.211 271.688 216.149 272.156 216.149 272.672V273.008C216.149 273.477 216.216 273.914 216.352 274.32C216.492 274.721 216.69 275.076 216.946 275.383C217.206 275.69 217.513 275.93 217.867 276.102C218.222 276.273 218.612 276.359 219.039 276.359C219.539 276.359 219.982 276.268 220.367 276.086C220.753 275.898 221.099 275.604 221.407 275.203L221.992 275.656C221.81 275.927 221.581 276.177 221.305 276.406C221.034 276.635 220.709 276.818 220.328 276.953C219.948 277.089 219.506 277.156 219 277.156ZM225.026 270.352V277H224.096V268.547H224.987L225.026 270.352ZM224.815 272.25L224.401 272.016C224.432 271.516 224.533 271.047 224.705 270.609C224.877 270.172 225.109 269.786 225.401 269.453C225.697 269.12 226.044 268.859 226.44 268.672C226.841 268.484 227.283 268.391 227.768 268.391C228.19 268.391 228.567 268.448 228.901 268.562C229.234 268.677 229.518 268.859 229.752 269.109C229.987 269.359 230.164 269.68 230.283 270.07C230.408 270.461 230.471 270.938 230.471 271.5V277H229.533V271.492C229.533 270.909 229.453 270.453 229.291 270.125C229.13 269.792 228.901 269.555 228.604 269.414C228.307 269.273 227.955 269.203 227.549 269.203C227.101 269.203 226.708 269.302 226.369 269.5C226.036 269.693 225.755 269.945 225.526 270.258C225.302 270.565 225.13 270.896 225.01 271.25C224.89 271.599 224.825 271.932 224.815 272.25ZM239.467 276.156L242.1 268.547H243.107L239.529 278.359C239.456 278.552 239.363 278.766 239.248 279C239.139 279.234 238.993 279.458 238.811 279.672C238.634 279.891 238.41 280.068 238.139 280.203C237.873 280.344 237.548 280.414 237.162 280.414C237.063 280.414 236.936 280.401 236.779 280.375C236.628 280.354 236.519 280.333 236.451 280.312L236.443 279.523C236.501 279.539 236.584 279.552 236.693 279.562C236.803 279.573 236.878 279.578 236.92 279.578C237.259 279.578 237.542 279.521 237.772 279.406C238.006 279.292 238.201 279.12 238.357 278.891C238.514 278.667 238.652 278.385 238.772 278.047L239.467 276.156ZM237.006 268.547L239.701 275.805L239.951 276.781L239.272 277.164L235.99 268.547H237.006ZM244.008 272.906V272.648C244.008 272.034 244.096 271.466 244.273 270.945C244.451 270.424 244.703 269.974 245.031 269.594C245.365 269.214 245.763 268.919 246.227 268.711C246.69 268.497 247.206 268.391 247.773 268.391C248.346 268.391 248.865 268.497 249.328 268.711C249.792 268.919 250.19 269.214 250.523 269.594C250.857 269.974 251.112 270.424 251.289 270.945C251.466 271.466 251.555 272.034 251.555 272.648V272.906C251.555 273.521 251.466 274.089 251.289 274.609C251.112 275.125 250.857 275.573 250.523 275.953C250.195 276.333 249.799 276.63 249.336 276.844C248.872 277.052 248.357 277.156 247.789 277.156C247.216 277.156 246.698 277.052 246.234 276.844C245.771 276.63 245.372 276.333 245.039 275.953C244.706 275.573 244.451 275.125 244.273 274.609C244.096 274.089 244.008 273.521 244.008 272.906ZM244.938 272.648V272.906C244.938 273.37 245 273.81 245.125 274.227C245.25 274.638 245.432 275.005 245.672 275.328C245.911 275.646 246.208 275.896 246.562 276.078C246.917 276.26 247.326 276.352 247.789 276.352C248.247 276.352 248.651 276.26 249 276.078C249.354 275.896 249.651 275.646 249.891 275.328C250.13 275.005 250.31 274.638 250.43 274.227C250.555 273.81 250.617 273.37 250.617 272.906V272.648C250.617 272.19 250.555 271.755 250.43 271.344C250.31 270.932 250.128 270.565 249.883 270.242C249.643 269.919 249.346 269.664 248.992 269.477C248.638 269.289 248.232 269.195 247.773 269.195C247.315 269.195 246.909 269.289 246.555 269.477C246.206 269.664 245.909 269.919 245.664 270.242C245.424 270.565 245.242 270.932 245.117 271.344C244.997 271.755 244.938 272.19 244.938 272.648ZM258.986 275.047V268.547H259.924V277H259.025L258.986 275.047ZM259.158 273.484L259.643 273.469C259.643 274 259.58 274.49 259.455 274.938C259.33 275.385 259.135 275.776 258.869 276.109C258.603 276.443 258.26 276.701 257.838 276.883C257.416 277.065 256.908 277.156 256.314 277.156C255.903 277.156 255.525 277.099 255.182 276.984C254.843 276.865 254.551 276.677 254.307 276.422C254.062 276.167 253.872 275.836 253.736 275.43C253.606 275.023 253.541 274.531 253.541 273.953V268.547H254.471V273.969C254.471 274.422 254.52 274.799 254.619 275.102C254.723 275.404 254.864 275.646 255.041 275.828C255.223 276.01 255.432 276.141 255.666 276.219C255.9 276.297 256.153 276.336 256.424 276.336C257.111 276.336 257.653 276.203 258.049 275.938C258.45 275.672 258.734 275.323 258.9 274.891C259.072 274.453 259.158 273.984 259.158 273.484ZM59.7891 292.547H60.6562V300.852C60.6562 301.586 60.5156 302.216 60.2344 302.742C59.9583 303.268 59.5651 303.672 59.0547 303.953C58.5495 304.234 57.9531 304.375 57.2656 304.375C56.9167 304.375 56.5573 304.32 56.1875 304.211C55.8229 304.107 55.4766 303.945 55.1484 303.727C54.8255 303.513 54.5495 303.247 54.3203 302.93L54.8438 302.359C55.1875 302.776 55.5547 303.081 55.9453 303.273C56.3359 303.471 56.7578 303.57 57.2109 303.57C57.7474 303.57 58.2005 303.464 58.5703 303.25C58.9453 303.036 59.2292 302.729 59.4219 302.328C59.6198 301.927 59.7188 301.445 59.7188 300.883V294.406L59.7891 292.547ZM53.8516 296.859V296.695C53.8516 296.039 53.9245 295.448 54.0703 294.922C54.2214 294.391 54.4375 293.938 54.7188 293.562C55 293.182 55.3411 292.893 55.7422 292.695C56.1484 292.492 56.6068 292.391 57.1172 292.391C57.6068 292.391 58.0417 292.471 58.4219 292.633C58.8021 292.794 59.1302 293.026 59.4062 293.328C59.6823 293.63 59.9036 293.99 60.0703 294.406C60.2422 294.823 60.3672 295.286 60.4453 295.797V297.883C60.3828 298.362 60.2682 298.802 60.1016 299.203C59.9349 299.599 59.7135 299.945 59.4375 300.242C59.1615 300.534 58.8281 300.76 58.4375 300.922C58.0521 301.078 57.6068 301.156 57.1016 301.156C56.5964 301.156 56.1432 301.052 55.7422 300.844C55.3411 300.635 55 300.341 54.7188 299.961C54.4375 299.576 54.2214 299.12 54.0703 298.594C53.9245 298.068 53.8516 297.49 53.8516 296.859ZM54.7891 296.695V296.859C54.7891 297.354 54.8385 297.812 54.9375 298.234C55.0365 298.656 55.1875 299.023 55.3906 299.336C55.5938 299.648 55.8516 299.893 56.1641 300.07C56.4766 300.247 56.8438 300.336 57.2656 300.336C57.8021 300.336 58.2526 300.234 58.6172 300.031C58.9818 299.823 59.2708 299.549 59.4844 299.211C59.6979 298.867 59.8542 298.492 59.9531 298.086V295.656C59.8958 295.38 59.8073 295.099 59.6875 294.812C59.5729 294.526 59.4115 294.263 59.2031 294.023C59 293.779 58.7396 293.583 58.4219 293.438C58.1094 293.286 57.7292 293.211 57.2812 293.211C56.8542 293.211 56.4818 293.299 56.1641 293.477C55.8516 293.654 55.5938 293.901 55.3906 294.219C55.1875 294.531 55.0365 294.898 54.9375 295.32C54.8385 295.742 54.7891 296.201 54.7891 296.695ZM66.4472 301.156C65.8951 301.156 65.3873 301.055 64.9237 300.852C64.4654 300.648 64.0644 300.362 63.7206 299.992C63.3821 299.622 63.1191 299.185 62.9316 298.68C62.7493 298.169 62.6581 297.612 62.6581 297.008V296.672C62.6581 296.021 62.7545 295.432 62.9472 294.906C63.1399 294.38 63.4055 293.93 63.7441 293.555C64.0826 293.18 64.468 292.893 64.9003 292.695C65.3378 292.492 65.7961 292.391 66.2753 292.391C66.8118 292.391 67.2883 292.487 67.705 292.68C68.1217 292.867 68.4706 293.135 68.7519 293.484C69.0383 293.828 69.2545 294.237 69.4003 294.711C69.5461 295.18 69.6191 295.698 69.6191 296.266V296.836H63.2206V296.039H68.6894V295.93C68.679 295.456 68.5826 295.013 68.4003 294.602C68.2232 294.185 67.9576 293.846 67.6034 293.586C67.2493 293.326 66.8066 293.195 66.2753 293.195C65.8795 293.195 65.5149 293.279 65.1816 293.445C64.8534 293.612 64.5696 293.852 64.33 294.164C64.0956 294.471 63.9133 294.839 63.7831 295.266C63.6581 295.688 63.5956 296.156 63.5956 296.672V297.008C63.5956 297.477 63.6633 297.914 63.7987 298.32C63.9394 298.721 64.1373 299.076 64.3925 299.383C64.6529 299.69 64.9602 299.93 65.3144 300.102C65.6685 300.273 66.0592 300.359 66.4862 300.359C66.9862 300.359 67.429 300.268 67.8144 300.086C68.1998 299.898 68.5461 299.604 68.8534 299.203L69.4394 299.656C69.2571 299.927 69.0279 300.177 68.7519 300.406C68.481 300.635 68.1555 300.818 67.7753 300.953C67.3951 301.089 66.9524 301.156 66.4472 301.156ZM74.7381 292.547V293.312H70.5037V292.547H74.7381ZM72.0584 290.375H72.9881V298.945C72.9881 299.336 73.0402 299.63 73.1444 299.828C73.2485 300.026 73.384 300.159 73.5506 300.227C73.7173 300.294 73.897 300.328 74.0897 300.328C74.2303 300.328 74.3657 300.32 74.4959 300.305C74.6261 300.284 74.7433 300.263 74.8475 300.242L74.8866 301.031C74.772 301.068 74.6235 301.096 74.4412 301.117C74.259 301.143 74.0767 301.156 73.8944 301.156C73.535 301.156 73.2173 301.091 72.9412 300.961C72.6652 300.826 72.4491 300.596 72.2928 300.273C72.1366 299.945 72.0584 299.5 72.0584 298.938V290.375ZM82.695 294.797H83.6481C84.2315 294.797 84.7184 294.698 85.1091 294.5C85.5049 294.297 85.8018 294.029 85.9997 293.695C86.2028 293.362 86.3044 292.992 86.3044 292.586C86.3044 292.128 86.2184 291.727 86.0466 291.383C85.8747 291.034 85.6117 290.763 85.2575 290.57C84.9085 290.372 84.4606 290.273 83.9137 290.273C83.4346 290.273 83.0075 290.367 82.6325 290.555C82.2575 290.742 81.9606 291.01 81.7419 291.359C81.5231 291.708 81.4137 292.125 81.4137 292.609H80.4841C80.4841 291.99 80.6325 291.445 80.9294 290.977C81.2262 290.503 81.6351 290.133 82.1559 289.867C82.6768 289.602 83.2627 289.469 83.9137 289.469C84.5856 289.469 85.169 289.591 85.6637 289.836C86.1637 290.081 86.5492 290.438 86.82 290.906C87.096 291.375 87.2341 291.945 87.2341 292.617C87.2341 292.961 87.1585 293.299 87.0075 293.633C86.8617 293.966 86.6429 294.268 86.3512 294.539C86.0596 294.805 85.6976 295.018 85.2653 295.18C84.833 295.341 84.3304 295.422 83.7575 295.422H82.695V294.797ZM82.695 295.602V294.984H83.7575C84.4085 294.984 84.9658 295.06 85.4294 295.211C85.8929 295.357 86.2731 295.565 86.57 295.836C86.8721 296.102 87.0934 296.411 87.2341 296.766C87.3747 297.12 87.445 297.5 87.445 297.906C87.445 298.427 87.3591 298.888 87.1872 299.289C87.0153 299.69 86.7705 300.031 86.4528 300.312C86.1403 300.589 85.7705 300.799 85.3434 300.945C84.9216 301.086 84.458 301.156 83.9528 301.156C83.4945 301.156 83.0466 301.089 82.6091 300.953C82.1768 300.818 81.7861 300.617 81.4372 300.352C81.0934 300.081 80.82 299.742 80.6169 299.336C80.4137 298.924 80.3122 298.451 80.3122 297.914H81.2419C81.2419 298.393 81.3565 298.818 81.5856 299.188C81.8148 299.552 82.1325 299.839 82.5387 300.047C82.9502 300.25 83.4216 300.352 83.9528 300.352C84.4893 300.352 84.9476 300.26 85.3278 300.078C85.7132 299.891 86.0075 299.617 86.2106 299.258C86.4137 298.898 86.5153 298.458 86.5153 297.938C86.5153 297.391 86.3929 296.945 86.1481 296.602C85.9085 296.258 85.5726 296.005 85.1403 295.844C84.7132 295.682 84.2158 295.602 83.6481 295.602H82.695ZM94.7456 289V301H93.8159V289H94.7456ZM100.646 301.156C100.094 301.156 99.586 301.055 99.1225 300.852C98.6642 300.648 98.2631 300.362 97.9194 299.992C97.5808 299.622 97.3178 299.185 97.1303 298.68C96.948 298.169 96.8569 297.612 96.8569 297.008V296.672C96.8569 296.021 96.9532 295.432 97.1459 294.906C97.3386 294.38 97.6043 293.93 97.9428 293.555C98.2814 293.18 98.6668 292.893 99.0991 292.695C99.5366 292.492 99.9949 292.391 100.474 292.391C101.011 292.391 101.487 292.487 101.904 292.68C102.32 292.867 102.669 293.135 102.951 293.484C103.237 293.828 103.453 294.237 103.599 294.711C103.745 295.18 103.818 295.698 103.818 296.266V296.836H97.4194V296.039H102.888V295.93C102.878 295.456 102.781 295.013 102.599 294.602C102.422 294.185 102.156 293.846 101.802 293.586C101.448 293.326 101.005 293.195 100.474 293.195C100.078 293.195 99.7136 293.279 99.3803 293.445C99.0522 293.612 98.7683 293.852 98.5288 294.164C98.2944 294.471 98.1121 294.839 97.9819 295.266C97.8569 295.688 97.7944 296.156 97.7944 296.672V297.008C97.7944 297.477 97.8621 297.914 97.9975 298.32C98.1381 298.721 98.336 299.076 98.5913 299.383C98.8517 299.69 99.159 299.93 99.5131 300.102C99.8673 300.273 100.258 300.359 100.685 300.359C101.185 300.359 101.628 300.268 102.013 300.086C102.399 299.898 102.745 299.604 103.052 299.203L103.638 299.656C103.456 299.927 103.227 300.177 102.951 300.406C102.68 300.635 102.354 300.818 101.974 300.953C101.594 301.089 101.151 301.156 100.646 301.156ZM108.124 300.102L110.835 292.547H111.796L108.632 301H107.952L108.124 300.102ZM105.671 292.547L108.413 300.125L108.562 301H107.874L104.702 292.547H105.671ZM116.572 301.156C116.019 301.156 115.512 301.055 115.048 300.852C114.59 300.648 114.189 300.362 113.845 299.992C113.506 299.622 113.243 299.185 113.056 298.68C112.874 298.169 112.783 297.612 112.783 297.008V296.672C112.783 296.021 112.879 295.432 113.072 294.906C113.264 294.38 113.53 293.93 113.868 293.555C114.207 293.18 114.592 292.893 115.025 292.695C115.462 292.492 115.921 292.391 116.4 292.391C116.936 292.391 117.413 292.487 117.829 292.68C118.246 292.867 118.595 293.135 118.876 293.484C119.163 293.828 119.379 294.237 119.525 294.711C119.671 295.18 119.743 295.698 119.743 296.266V296.836H113.345V296.039H118.814V295.93C118.803 295.456 118.707 295.013 118.525 294.602C118.348 294.185 118.082 293.846 117.728 293.586C117.374 293.326 116.931 293.195 116.4 293.195C116.004 293.195 115.639 293.279 115.306 293.445C114.978 293.612 114.694 293.852 114.454 294.164C114.22 294.471 114.038 294.839 113.908 295.266C113.783 295.688 113.72 296.156 113.72 296.672V297.008C113.72 297.477 113.788 297.914 113.923 298.32C114.064 298.721 114.262 299.076 114.517 299.383C114.777 299.69 115.085 299.93 115.439 300.102C115.793 300.273 116.184 300.359 116.611 300.359C117.111 300.359 117.553 300.268 117.939 300.086C118.324 299.898 118.671 299.604 118.978 299.203L119.564 299.656C119.381 299.927 119.152 300.177 118.876 300.406C118.605 300.635 118.28 300.818 117.9 300.953C117.519 301.089 117.077 301.156 116.572 301.156ZM122.706 289V301H121.777V289H122.706ZM130.403 298.844C130.403 298.615 130.346 298.388 130.232 298.164C130.117 297.94 129.896 297.734 129.567 297.547C129.245 297.359 128.768 297.201 128.138 297.07C127.669 296.966 127.25 296.849 126.88 296.719C126.515 296.589 126.208 296.432 125.958 296.25C125.708 296.068 125.518 295.849 125.388 295.594C125.258 295.339 125.192 295.036 125.192 294.688C125.192 294.375 125.26 294.081 125.396 293.805C125.536 293.523 125.734 293.279 125.989 293.07C126.25 292.857 126.562 292.69 126.927 292.57C127.297 292.451 127.711 292.391 128.169 292.391C128.82 292.391 129.377 292.503 129.841 292.727C130.31 292.945 130.666 293.245 130.911 293.625C131.161 294.005 131.286 294.435 131.286 294.914H130.357C130.357 294.622 130.271 294.346 130.099 294.086C129.932 293.826 129.685 293.612 129.357 293.445C129.034 293.279 128.638 293.195 128.169 293.195C127.685 293.195 127.291 293.268 126.989 293.414C126.687 293.56 126.466 293.745 126.325 293.969C126.19 294.193 126.122 294.424 126.122 294.664C126.122 294.852 126.151 295.023 126.208 295.18C126.271 295.331 126.38 295.471 126.536 295.602C126.698 295.732 126.927 295.854 127.224 295.969C127.521 296.083 127.906 296.195 128.38 296.305C129.062 296.456 129.62 296.641 130.052 296.859C130.489 297.073 130.812 297.339 131.021 297.656C131.229 297.969 131.333 298.349 131.333 298.797C131.333 299.146 131.26 299.466 131.114 299.758C130.969 300.044 130.758 300.292 130.482 300.5C130.211 300.708 129.883 300.87 129.497 300.984C129.117 301.099 128.69 301.156 128.216 301.156C127.502 301.156 126.898 301.039 126.403 300.805C125.914 300.565 125.541 300.253 125.286 299.867C125.036 299.477 124.911 299.062 124.911 298.625H125.841C125.872 299.062 126.01 299.409 126.255 299.664C126.5 299.914 126.799 300.091 127.153 300.195C127.513 300.299 127.867 300.352 128.216 300.352C128.695 300.352 129.096 300.281 129.419 300.141C129.742 300 129.987 299.815 130.153 299.586C130.32 299.357 130.403 299.109 130.403 298.844ZM138.556 292.547V301H137.626V292.547H138.556ZM137.462 290.102C137.462 289.924 137.517 289.776 137.626 289.656C137.741 289.531 137.897 289.469 138.095 289.469C138.293 289.469 138.449 289.531 138.563 289.656C138.683 289.776 138.743 289.924 138.743 290.102C138.743 290.273 138.683 290.422 138.563 290.547C138.449 290.667 138.293 290.727 138.095 290.727C137.897 290.727 137.741 290.667 137.626 290.547C137.517 290.422 137.462 290.273 137.462 290.102ZM142.12 294.352V301H141.19V292.547H142.081L142.12 294.352ZM141.909 296.25L141.495 296.016C141.526 295.516 141.628 295.047 141.8 294.609C141.972 294.172 142.203 293.786 142.495 293.453C142.792 293.12 143.138 292.859 143.534 292.672C143.935 292.484 144.378 292.391 144.862 292.391C145.284 292.391 145.662 292.448 145.995 292.562C146.328 292.677 146.612 292.859 146.847 293.109C147.081 293.359 147.258 293.68 147.378 294.07C147.503 294.461 147.565 294.938 147.565 295.5V301H146.628V295.492C146.628 294.909 146.547 294.453 146.386 294.125C146.224 293.792 145.995 293.555 145.698 293.414C145.401 293.273 145.05 293.203 144.643 293.203C144.196 293.203 143.802 293.302 143.464 293.5C143.13 293.693 142.849 293.945 142.62 294.258C142.396 294.565 142.224 294.896 142.104 295.25C141.985 295.599 141.919 295.932 141.909 296.25ZM159.194 299.484V295.125C159.194 294.724 159.111 294.378 158.944 294.086C158.777 293.794 158.533 293.57 158.21 293.414C157.887 293.258 157.488 293.18 157.014 293.18C156.577 293.18 156.186 293.258 155.842 293.414C155.504 293.565 155.236 293.771 155.038 294.031C154.845 294.286 154.749 294.57 154.749 294.883L153.811 294.875C153.811 294.557 153.889 294.25 154.046 293.953C154.202 293.656 154.423 293.391 154.71 293.156C154.996 292.922 155.337 292.737 155.733 292.602C156.134 292.461 156.574 292.391 157.053 292.391C157.658 292.391 158.189 292.492 158.647 292.695C159.111 292.898 159.473 293.203 159.733 293.609C159.994 294.016 160.124 294.526 160.124 295.141V299.227C160.124 299.518 160.145 299.82 160.186 300.133C160.233 300.445 160.298 300.703 160.382 300.906V301H159.389C159.327 300.812 159.277 300.578 159.241 300.297C159.21 300.01 159.194 299.74 159.194 299.484ZM159.413 296.078L159.428 296.797H157.592C157.113 296.797 156.684 296.841 156.303 296.93C155.928 297.013 155.611 297.138 155.35 297.305C155.09 297.466 154.889 297.661 154.749 297.891C154.613 298.12 154.546 298.38 154.546 298.672C154.546 298.974 154.621 299.25 154.772 299.5C154.928 299.75 155.147 299.951 155.428 300.102C155.715 300.247 156.053 300.32 156.444 300.32C156.965 300.32 157.423 300.224 157.819 300.031C158.22 299.839 158.551 299.586 158.811 299.273C159.072 298.961 159.246 298.62 159.335 298.25L159.741 298.789C159.673 299.049 159.548 299.318 159.366 299.594C159.189 299.865 158.957 300.12 158.671 300.359C158.384 300.594 158.046 300.786 157.655 300.938C157.27 301.083 156.832 301.156 156.342 301.156C155.79 301.156 155.309 301.052 154.897 300.844C154.491 300.635 154.173 300.352 153.944 299.992C153.72 299.628 153.608 299.216 153.608 298.758C153.608 298.341 153.697 297.969 153.874 297.641C154.051 297.307 154.306 297.026 154.639 296.797C154.978 296.562 155.384 296.385 155.858 296.266C156.337 296.141 156.874 296.078 157.467 296.078H159.413ZM167.628 293.945V301H166.698V292.547H167.604L167.628 293.945ZM170.62 292.484L170.596 293.344C170.492 293.328 170.391 293.315 170.292 293.305C170.193 293.294 170.086 293.289 169.971 293.289C169.565 293.289 169.208 293.365 168.901 293.516C168.599 293.661 168.344 293.867 168.135 294.133C167.927 294.393 167.768 294.701 167.659 295.055C167.549 295.404 167.487 295.779 167.471 296.18L167.128 296.312C167.128 295.76 167.185 295.247 167.299 294.773C167.414 294.299 167.588 293.885 167.823 293.531C168.062 293.172 168.362 292.893 168.721 292.695C169.086 292.492 169.513 292.391 170.003 292.391C170.122 292.391 170.239 292.401 170.354 292.422C170.474 292.438 170.562 292.458 170.62 292.484ZM171.497 296.906V296.648C171.497 296.034 171.585 295.466 171.762 294.945C171.939 294.424 172.192 293.974 172.52 293.594C172.853 293.214 173.252 292.919 173.715 292.711C174.179 292.497 174.694 292.391 175.262 292.391C175.835 292.391 176.353 292.497 176.817 292.711C177.28 292.919 177.679 293.214 178.012 293.594C178.346 293.974 178.601 294.424 178.778 294.945C178.955 295.466 179.043 296.034 179.043 296.648V296.906C179.043 297.521 178.955 298.089 178.778 298.609C178.601 299.125 178.346 299.573 178.012 299.953C177.684 300.333 177.288 300.63 176.825 300.844C176.361 301.052 175.846 301.156 175.278 301.156C174.705 301.156 174.187 301.052 173.723 300.844C173.26 300.63 172.861 300.333 172.528 299.953C172.194 299.573 171.939 299.125 171.762 298.609C171.585 298.089 171.497 297.521 171.497 296.906ZM172.426 296.648V296.906C172.426 297.37 172.489 297.81 172.614 298.227C172.739 298.638 172.921 299.005 173.161 299.328C173.4 299.646 173.697 299.896 174.051 300.078C174.405 300.26 174.814 300.352 175.278 300.352C175.736 300.352 176.14 300.26 176.489 300.078C176.843 299.896 177.14 299.646 177.379 299.328C177.619 299.005 177.799 298.638 177.918 298.227C178.043 297.81 178.106 297.37 178.106 296.906V296.648C178.106 296.19 178.043 295.755 177.918 295.344C177.799 294.932 177.616 294.565 177.372 294.242C177.132 293.919 176.835 293.664 176.481 293.477C176.127 293.289 175.721 293.195 175.262 293.195C174.804 293.195 174.398 293.289 174.043 293.477C173.694 293.664 173.398 293.919 173.153 294.242C172.913 294.565 172.731 294.932 172.606 295.344C172.486 295.755 172.426 296.19 172.426 296.648ZM182.1 289V301H181.17V289H182.1ZM185.774 289V301H184.844V289H185.774Z" fill="white"/>
</g>
<defs>
<filter id="filter0_dd_357_3559" x="-41.0398" y="-24.3639" width="390.828" height="343.086" filterUnits="userSpaceOnUse" color-interpolation-filters="sRGB">
<feFlood flood-opacity="0" result="BackgroundImageFix"/>
<feColorMatrix in="SourceAlpha" type="matrix" values="0 0 0 0 0 0 0 0 0 0 0 0 0 0 0 0 0 0 127 0" result="hardAlpha"/>
<feOffset/>
<feGaussianBlur stdDeviation="15.306"/>
<feColorMatrix type="matrix" values="0 0 0 0 0.991667 0 0 0 0 0.801597 0 0 0 0 0.516493 0 0 0 1 0"/>
<feBlend mode="normal" in2="BackgroundImageFix" result="effect1_dropShadow_357_3559"/>
<feColorMatrix in="SourceAlpha" type="matrix" values="0 0 0 0 0 0 0 0 0 0 0 0 0 0 0 0 0 0 127 0" result="hardAlpha"/>
<feOffset dy="6.12241"/>
<feGaussianBlur stdDeviation="45.9181"/>
<feColorMatrix type="matrix" values="0 0 0 0 1 0 0 0 0 0.722667 0 0 0 0 0.466667 0 0 0 0.6 0"/>
<feBlend mode="normal" in2="effect1_dropShadow_357_3559" result="effect2_dropShadow_357_3559"/>
<feBlend mode="normal" in="SourceGraphic" in2="effect2_dropShadow_357_3559" result="shape"/>
</filter>
<filter id="filter1_d_357_3559" x="98.438" y="137.76" width="42.21" height="70.9698" filterUnits="userSpaceOnUse" color-interpolation-filters="sRGB">
<feFlood flood-opacity="0" result="BackgroundImageFix"/>
<feColorMatrix in="SourceAlpha" type="matrix" values="0 0 0 0 0 0 0 0 0 0 0 0 0 0 0 0 0 0 127 0" result="hardAlpha"/>
<feOffset/>
<feGaussianBlur stdDeviation="4"/>
<feColorMatrix type="matrix" values="0 0 0 0 0.7 0 0 0 0 0.561568 0 0 0 0 0.32375 0 0 0 0.78 0"/>
<feBlend mode="normal" in2="BackgroundImageFix" result="effect1_dropShadow_357_3559"/>
<feBlend mode="normal" in="SourceGraphic" in2="effect1_dropShadow_357_3559" result="shape"/>
</filter>
<filter id="filter2_d_357_3559" x="168.438" y="137.76" width="42.21" height="70.9698" filterUnits="userSpaceOnUse" color-interpolation-filters="sRGB">
<feFlood flood-opacity="0" result="BackgroundImageFix"/>
<feColorMatrix in="SourceAlpha" type="matrix" values="0 0 0 0 0 0 0 0 0 0 0 0 0 0 0 0 0 0 127 0" result="hardAlpha"/>
<feOffset/>
<feGaussianBlur stdDeviation="4"/>
<feColorMatrix type="matrix" values="0 0 0 0 0.7 0 0 0 0 0.561568 0 0 0 0 0.32375 0 0 0 0.78 0"/>
<feBlend mode="normal" in2="BackgroundImageFix" result="effect1_dropShadow_357_3559"/>
<feBlend mode="normal" in="SourceGraphic" in2="effect1_dropShadow_357_3559" result="shape"/>
</filter>
<filter id="filter3_d_357_3559" x="118.498" y="134.995" width="71.8467" height="93.7679" filterUnits="userSpaceOnUse" color-interpolation-filters="sRGB">
<feFlood flood-opacity="0" result="BackgroundImageFix"/>
<feColorMatrix in="SourceAlpha" type="matrix" values="0 0 0 0 0 0 0 0 0 0 0 0 0 0 0 0 0 0 127 0" result="hardAlpha"/>
<feOffset/>
<feGaussianBlur stdDeviation="4"/>
<feColorMatrix type="matrix" values="0 0 0 0 0.7 0 0 0 0 0.561568 0 0 0 0 0.32375 0 0 0 0.78 0"/>
<feBlend mode="normal" in2="BackgroundImageFix" result="effect1_dropShadow_357_3559"/>
<feBlend mode="normal" in="SourceGraphic" in2="effect1_dropShadow_357_3559" result="shape"/>
</filter>
<filter id="filter4_d_357_3559" x="87.2314" y="61.3499" width="134.378" height="141.483" filterUnits="userSpaceOnUse" color-interpolation-filters="sRGB">
<feFlood flood-opacity="0" result="BackgroundImageFix"/>
<feColorMatrix in="SourceAlpha" type="matrix" values="0 0 0 0 0 0 0 0 0 0 0 0 0 0 0 0 0 0 127 0" result="hardAlpha"/>
<feOffset dy="8"/>
<feGaussianBlur stdDeviation="3"/>
<feColorMatrix type="matrix" values="0 0 0 0 0.4375 0 0 0 0 0.287401 0 0 0 0 0.111198 0 0 0 0.6 0"/>
<feBlend mode="normal" in2="BackgroundImageFix" result="effect1_dropShadow_357_3559"/>
<feBlend mode="normal" in="SourceGraphic" in2="effect1_dropShadow_357_3559" result="shape"/>
</filter>
<filter id="filter5_f_357_3559" x="101.732" y="70.5042" width="105.23" height="108.946" filterUnits="userSpaceOnUse" color-interpolation-filters="sRGB">
<feFlood flood-opacity="0" result="BackgroundImageFix"/>
<feBlend mode="normal" in="SourceGraphic" in2="BackgroundImageFix" result="shape"/>
<feGaussianBlur stdDeviation="0.15" result="effect1_foregroundBlur_357_3559"/>
</filter>
<filter id="filter6_i_357_3559" x="106.938" y="75.7303" width="95.4551" height="98.6703" filterUnits="userSpaceOnUse" color-interpolation-filters="sRGB">
<feFlood flood-opacity="0" result="BackgroundImageFix"/>
<feBlend mode="normal" in="SourceGraphic" in2="BackgroundImageFix" result="shape"/>
<feColorMatrix in="SourceAlpha" type="matrix" values="0 0 0 0 0 0 0 0 0 0 0 0 0 0 0 0 0 0 127 0" result="hardAlpha"/>
<feOffset/>
<feGaussianBlur stdDeviation="6.72414"/>
<feComposite in2="hardAlpha" operator="arithmetic" k2="-1" k3="1"/>
<feColorMatrix type="matrix" values="0 0 0 0 0.458333 0 0 0 0 0.256743 0 0 0 0 0.0706597 0 0 0 1 0"/>
<feBlend mode="normal" in2="shape" result="effect1_innerShadow_357_3559"/>
</filter>
<filter id="filter7_f_357_3559" x="95.3593" y="29.0512" width="48.0666" height="47.5076" filterUnits="userSpaceOnUse" color-interpolation-filters="sRGB">
<feFlood flood-opacity="0" result="BackgroundImageFix"/>
<feBlend mode="normal" in="SourceGraphic" in2="BackgroundImageFix" result="shape"/>
<feGaussianBlur stdDeviation="10.1529" result="effect1_foregroundBlur_357_3559"/>
</filter>
<filter id="filter8_f_357_3559" x="100.756" y="174.906" width="5.86916" height="5.683" filterUnits="userSpaceOnUse" color-interpolation-filters="sRGB">
<feFlood flood-opacity="0" result="BackgroundImageFix"/>
<feBlend mode="normal" in="SourceGraphic" in2="BackgroundImageFix" result="shape"/>
<feGaussianBlur stdDeviation="0.846073" result="effect1_foregroundBlur_357_3559"/>
</filter>
<filter id="filter9_f_357_3559" x="104.728" y="63.5449" width="18.4849" height="18.2987" filterUnits="userSpaceOnUse" color-interpolation-filters="sRGB">
<feFlood flood-opacity="0" result="BackgroundImageFix"/>
<feBlend mode="normal" in="SourceGraphic" in2="BackgroundImageFix" result="shape"/>
<feGaussianBlur stdDeviation="4" result="effect1_foregroundBlur_357_3559"/>
</filter>
<filter id="filter10_f_357_3559" x="211.484" y="133.014" width="14.4849" height="14.2987" filterUnits="userSpaceOnUse" color-interpolation-filters="sRGB">
<feFlood flood-opacity="0" result="BackgroundImageFix"/>
<feBlend mode="normal" in="SourceGraphic" in2="BackgroundImageFix" result="shape"/>
<feGaussianBlur stdDeviation="3" result="effect1_foregroundBlur_357_3559"/>
</filter>
<filter id="filter11_f_357_3559" x="44.7554" y="106.188" width="48.2832" height="47.6624" filterUnits="userSpaceOnUse" color-interpolation-filters="sRGB">
<feFlood flood-opacity="0" result="BackgroundImageFix"/>
<feBlend mode="normal" in="SourceGraphic" in2="BackgroundImageFix" result="shape"/>
<feGaussianBlur stdDeviation="10" result="effect1_foregroundBlur_357_3559"/>
</filter>
<filter id="filter12_f_357_3559" x="237.766" y="93.5656" width="40.4694" height="39.9728" filterUnits="userSpaceOnUse" color-interpolation-filters="sRGB">
<feFlood flood-opacity="0" result="BackgroundImageFix"/>
<feBlend mode="normal" in="SourceGraphic" in2="BackgroundImageFix" result="shape"/>
<feGaussianBlur stdDeviation="8.46073" result="effect1_foregroundBlur_357_3559"/>
</filter>
<filter id="filter13_f_357_3559" x="100.702" y="193.638" width="40.4694" height="39.9728" filterUnits="userSpaceOnUse" color-interpolation-filters="sRGB">
<feFlood flood-opacity="0" result="BackgroundImageFix"/>
<feBlend mode="normal" in="SourceGraphic" in2="BackgroundImageFix" result="shape"/>
<feGaussianBlur stdDeviation="8.46073" result="effect1_foregroundBlur_357_3559"/>
</filter>
<filter id="filter14_d_357_3559" x="125.927" y="88.758" width="57.5429" height="54.3135" filterUnits="userSpaceOnUse" color-interpolation-filters="sRGB">
<feFlood flood-opacity="0" result="BackgroundImageFix"/>
<feColorMatrix in="SourceAlpha" type="matrix" values="0 0 0 0 0 0 0 0 0 0 0 0 0 0 0 0 0 0 127 0" result="hardAlpha"/>
<feOffset dx="0.361644" dy="3.61644"/>
<feGaussianBlur stdDeviation="3.61644"/>
<feColorMatrix type="matrix" values="0 0 0 0 0.795833 0 0 0 0 0.519745 0 0 0 0 0.195642 0 0 0 0.42 0"/>
<feBlend mode="normal" in2="BackgroundImageFix" result="effect1_dropShadow_357_3559"/>
<feBlend mode="normal" in="SourceGraphic" in2="effect1_dropShadow_357_3559" result="shape"/>
</filter>
<linearGradient id="paint0_linear_357_3559" x1="270.573" y1="187.554" x2="181.882" y2="132.199" gradientUnits="userSpaceOnUse">
<stop stop-color="#FFF6D6" stop-opacity="0"/>
<stop offset="1" stop-color="#FFEFC5" stop-opacity="0.4"/>
</linearGradient>
<linearGradient id="paint1_linear_357_3559" x1="155.323" y1="250" x2="155.323" y2="151.272" gradientUnits="userSpaceOnUse">
<stop stop-color="#FFF6D6" stop-opacity="0"/>
<stop offset="1" stop-color="#FFEFC5" stop-opacity="0.4"/>
</linearGradient>
<linearGradient id="paint2_linear_357_3559" x1="154.589" y1="0" x2="154.589" y2="98.7283" gradientUnits="userSpaceOnUse">
<stop stop-color="#FFF6D6" stop-opacity="0"/>
<stop offset="1" stop-color="#FFEFC5" stop-opacity="0.4"/>
</linearGradient>
<linearGradient id="paint3_linear_357_3559" x1="39.4273" y1="187.868" x2="128.118" y2="132.512" gradientUnits="userSpaceOnUse">
<stop stop-color="#FFF6D6" stop-opacity="0"/>
<stop offset="1" stop-color="#FFEFC5" stop-opacity="0.4"/>
</linearGradient>
<linearGradient id="paint4_linear_357_3559" x1="270.573" y1="62.5103" x2="181.882" y2="117.866" gradientUnits="userSpaceOnUse">
<stop stop-color="#FFF6D6" stop-opacity="0"/>
<stop offset="1" stop-color="#FFEFC5" stop-opacity="0.4"/>
</linearGradient>
<linearGradient id="paint5_linear_357_3559" x1="39.4273" y1="62.1972" x2="128.118" y2="117.553" gradientUnits="userSpaceOnUse">
<stop stop-color="#FFF6D6" stop-opacity="0"/>
<stop offset="1" stop-color="#FFEFC5" stop-opacity="0.4"/>
</linearGradient>
<linearGradient id="paint6_linear_357_3559" x1="76.3387" y1="99.0095" x2="64.2182" y2="79.5496" gradientUnits="userSpaceOnUse">
<stop stop-color="#D2A86B"/>
<stop offset="0.875" stop-color="#FFF5DE"/>
</linearGradient>
<linearGradient id="paint7_linear_357_3559" x1="55.1773" y1="76.5977" x2="65.8745" y2="98.5246" gradientUnits="userSpaceOnUse">
<stop stop-color="#FFF5DE"/>
<stop offset="0.378992" stop-color="#F5E3C4"/>
<stop offset="0.480868" stop-color="#E6CA9E"/>
<stop offset="0.729174" stop-color="#D2A86B"/>
</linearGradient>
<linearGradient id="paint8_linear_357_3559" x1="86.3211" y1="117.883" x2="74.2006" y2="98.4227" gradientUnits="userSpaceOnUse">
<stop stop-color="#E0C08E"/>
<stop offset="0.875" stop-color="#FFF5DE"/>
</linearGradient>
<linearGradient id="paint9_linear_357_3559" x1="64.2927" y1="94.8528" x2="89.0732" y2="126.655" gradientUnits="userSpaceOnUse">
<stop stop-color="#FFF5DE"/>
<stop offset="0.378992" stop-color="#FFF5DE"/>
<stop offset="0.480868" stop-color="#EAD2A9"/>
<stop offset="0.729174" stop-color="#D2A86B"/>
</linearGradient>
<linearGradient id="paint10_linear_357_3559" x1="99.4114" y1="137.181" x2="87.2909" y2="117.721" gradientUnits="userSpaceOnUse">
<stop stop-color="#E0C08E"/>
<stop offset="0.875" stop-color="#FFF5DE"/>
</linearGradient>
<linearGradient id="paint11_linear_357_3559" x1="77.383" y1="114.152" x2="102.164" y2="145.954" gradientUnits="userSpaceOnUse">
<stop stop-color="#FFF5DE"/>
<stop offset="0.378992" stop-color="#FFF5DE"/>
<stop offset="0.480868" stop-color="#EAD2A9"/>
<stop offset="0.729174" stop-color="#D2A86B"/>
</linearGradient>
<linearGradient id="paint12_linear_357_3559" x1="106.938" y1="182.83" x2="132.61" y2="189.101" gradientUnits="userSpaceOnUse">
<stop stop-color="#8D664F"/>
<stop offset="0.208702" stop-color="#C49F7D"/>
<stop offset="0.648432" stop-color="#FFF1DC"/>
<stop offset="0.827985" stop-color="#B38368"/>
<stop offset="0.971703" stop-color="#8C5F4C"/>
</linearGradient>
<linearGradient id="paint13_linear_357_3559" x1="110.12" y1="182.032" x2="119.355" y2="179.056" gradientUnits="userSpaceOnUse">
<stop stop-color="#C7A383"/>
<stop offset="0.309893" stop-color="#D5B198"/>
<stop offset="0.523799" stop-color="#CBA68C"/>
<stop offset="0.77229" stop-color="#BB9478"/>
<stop offset="1" stop-color="#D7B49B"/>
</linearGradient>
<linearGradient id="paint14_linear_357_3559" x1="202.148" y1="182.83" x2="176.476" y2="189.101" gradientUnits="userSpaceOnUse">
<stop stop-color="#8D664F"/>
<stop offset="0.208702" stop-color="#C49F7D"/>
<stop offset="0.648432" stop-color="#FFF1DC"/>
<stop offset="0.827985" stop-color="#B38368"/>
<stop offset="0.971703" stop-color="#8C5F4C"/>
</linearGradient>
<linearGradient id="paint15_linear_357_3559" x1="198.967" y1="182.032" x2="189.732" y2="179.056" gradientUnits="userSpaceOnUse">
<stop stop-color="#C7A383"/>
<stop offset="0.309893" stop-color="#D5B198"/>
<stop offset="0.523799" stop-color="#CBA68C"/>
<stop offset="0.77229" stop-color="#BB9478"/>
<stop offset="1" stop-color="#D7B49B"/>
</linearGradient>
<linearGradient id="paint16_linear_357_3559" x1="232.41" y1="99.6005" x2="244.53" y2="80.1407" gradientUnits="userSpaceOnUse">
<stop stop-color="#D2A86B"/>
<stop offset="0.875" stop-color="#FFF5DE"/>
</linearGradient>
<linearGradient id="paint17_linear_357_3559" x1="253.571" y1="77.1886" x2="242.874" y2="99.1156" gradientUnits="userSpaceOnUse">
<stop stop-color="#FFF5DE"/>
<stop offset="0.378992" stop-color="#F5E3C4"/>
<stop offset="0.480868" stop-color="#E6CA9E"/>
<stop offset="0.729174" stop-color="#D2A86B"/>
</linearGradient>
<linearGradient id="paint18_linear_357_3559" x1="222.427" y1="118.474" x2="234.548" y2="99.0137" gradientUnits="userSpaceOnUse">
<stop stop-color="#E0C08E"/>
<stop offset="0.875" stop-color="#FFF5DE"/>
</linearGradient>
<linearGradient id="paint19_linear_357_3559" x1="244.456" y1="95.4439" x2="219.675" y2="127.246" gradientUnits="userSpaceOnUse">
<stop stop-color="#FFF5DE"/>
<stop offset="0.378992" stop-color="#FFF5DE"/>
<stop offset="0.480868" stop-color="#EAD2A9"/>
<stop offset="0.729174" stop-color="#D2A86B"/>
</linearGradient>
<linearGradient id="paint20_linear_357_3559" x1="209.338" y1="137.772" x2="221.458" y2="118.312" gradientUnits="userSpaceOnUse">
<stop stop-color="#E0C08E"/>
<stop offset="0.875" stop-color="#FFF5DE"/>
</linearGradient>
<linearGradient id="paint21_linear_357_3559" x1="231.366" y1="114.743" x2="206.585" y2="146.545" gradientUnits="userSpaceOnUse">
<stop stop-color="#FFF5DE"/>
<stop offset="0.378992" stop-color="#FFF5DE"/>
<stop offset="0.480868" stop-color="#EAD2A9"/>
<stop offset="0.729174" stop-color="#D2A86B"/>
</linearGradient>
<linearGradient id="paint22_linear_357_3559" x1="154.421" y1="177.504" x2="154.421" y2="220.068" gradientUnits="userSpaceOnUse">
<stop stop-color="#B58D70"/>
<stop offset="0.2286" stop-color="#B58D70"/>
<stop offset="0.47675" stop-color="#D8B59B"/>
<stop offset="0.88344" stop-color="#B58D70"/>
<stop offset="1" stop-color="#B58D70"/>
</linearGradient>
<linearGradient id="paint23_linear_357_3559" x1="127.498" y1="195.843" x2="178.672" y2="214.675" gradientUnits="userSpaceOnUse">
<stop stop-color="#8D664F"/>
<stop offset="0.208702" stop-color="#FFF5E6"/>
<stop offset="0.648432" stop-color="#ECD8BA"/>
<stop offset="0.780206" stop-color="#D0A568"/>
<stop offset="0.971703" stop-color="#8C5F4C"/>
</linearGradient>
<linearGradient id="paint24_linear_357_3559" x1="153.932" y1="169.353" x2="153.932" y2="219.311" gradientUnits="userSpaceOnUse">
<stop stop-color="#DDBFA9"/>
<stop offset="0.22229" stop-color="#DDBFA9"/>
<stop offset="0.669825" stop-color="#EBD4C4"/>
<stop offset="0.898796" stop-color="#DDBFA9"/>
<stop offset="1" stop-color="#DDBFA9"/>
</linearGradient>
<linearGradient id="paint25_linear_357_3559" x1="176.143" y1="201.656" x2="157.669" y2="186.182" gradientUnits="userSpaceOnUse">
<stop stop-color="#ECD8BA"/>
<stop offset="0.309893" stop-color="#EBD3AE"/>
<stop offset="0.523799" stop-color="#E2C69C"/>
<stop offset="0.77229" stop-color="#E3C8A0"/>
<stop offset="1" stop-color="#ECD8BA"/>
</linearGradient>
<linearGradient id="paint26_linear_357_3559" x1="154.175" y1="207.39" x2="154.175" y2="215.065" gradientUnits="userSpaceOnUse">
<stop stop-color="#FAECD8"/>
<stop offset="0.491891" stop-color="#F9EBD7"/>
<stop offset="1" stop-color="#ECD5B4"/>
</linearGradient>
<linearGradient id="paint27_linear_357_3559" x1="152.349" y1="207.586" x2="152.349" y2="213.712" gradientUnits="userSpaceOnUse">
<stop stop-color="#F9EBD7"/>
<stop offset="0.479167" stop-color="#FAEDD9"/>
<stop offset="1" stop-color="#F8E9D4"/>
</linearGradient>
<linearGradient id="paint28_linear_357_3559" x1="156.001" y1="207.586" x2="156.001" y2="213.712" gradientUnits="userSpaceOnUse">
<stop stop-color="#FAEDD8"/>
<stop offset="0.479167" stop-color="#FAECD8"/>
<stop offset="1" stop-color="#EAD4B2"/>
</linearGradient>
<linearGradient id="paint29_linear_357_3559" x1="153.66" y1="214.14" x2="148.153" y2="214.845" gradientUnits="userSpaceOnUse">
<stop stop-color="#E5CBA6"/>
<stop offset="0.309893" stop-color="#FAEDDA"/>
<stop offset="0.523799" stop-color="#F3E2C9"/>
<stop offset="0.613641" stop-color="#EFDCC0"/>
<stop offset="1" stop-color="#EFDCC0"/>
</linearGradient>
<linearGradient id="paint30_linear_357_3559" x1="128.721" y1="75.1674" x2="177.26" y2="179.413" gradientUnits="userSpaceOnUse">
<stop stop-color="#FFF5DE"/>
<stop offset="1" stop-color="#CFA365"/>
</linearGradient>
<linearGradient id="paint31_linear_357_3559" x1="128.232" y1="83.5445" x2="170.238" y2="167.344" gradientUnits="userSpaceOnUse">
<stop stop-color="#D2A86C"/>
<stop offset="1" stop-color="#F8E6C0"/>
</linearGradient>
<linearGradient id="paint32_linear_357_3559" x1="133.372" y1="80.6012" x2="178.687" y2="168.733" gradientUnits="userSpaceOnUse">
<stop stop-color="#FFF6E7"/>
<stop offset="1" stop-color="#FFF8EC"/>
</linearGradient>
<radialGradient id="paint33_radial_357_3559" cx="0" cy="0" r="1" gradientUnits="userSpaceOnUse" gradientTransform="translate(154.665 125.065) rotate(90) scale(51.2565 47.7276)">
<stop stop-color="#FFE4BA"/>
<stop offset="1" stop-color="#DEA44D"/>
</radialGradient>
<linearGradient id="paint34_linear_357_3559" x1="154.665" y1="71.7792" x2="154.665" y2="178.347" gradientUnits="userSpaceOnUse">
<stop stop-color="white"/>
<stop offset="1" stop-color="#F2EDED" stop-opacity="0"/>
</linearGradient>
<linearGradient id="paint35_linear_357_3559" x1="95.7402" y1="81.421" x2="146.874" y2="177.166" gradientUnits="userSpaceOnUse">
<stop stop-color="white"/>
<stop offset="1" stop-color="#F2EDED" stop-opacity="0"/>
</linearGradient>
<linearGradient id="paint36_linear_357_3559" x1="209.299" y1="81.4208" x2="158.165" y2="177.166" gradientUnits="userSpaceOnUse">
<stop stop-color="white"/>
<stop offset="1" stop-color="#F2EDED" stop-opacity="0"/>
</linearGradient>
<linearGradient id="paint37_linear_357_3559" x1="154.665" y1="143.839" x2="154.419" y2="172.764" gradientUnits="userSpaceOnUse">
<stop stop-color="white" stop-opacity="0"/>
<stop offset="1" stop-color="#FFF1E3"/>
</linearGradient>
<linearGradient id="paint38_linear_357_3559" x1="150.925" y1="82.3858" x2="180.033" y2="91.9493" gradientUnits="userSpaceOnUse">
<stop offset="0.168737" stop-color="#FDF2D9"/>
<stop offset="0.304755" stop-color="#FFF7E3"/>
<stop offset="0.451944" stop-color="#FFFCF4"/>
<stop offset="0.581036" stop-color="#FFF1D9"/>
<stop offset="0.705947" stop-color="#F3E0BF"/>
<stop offset="0.940592" stop-color="#FFF5DE"/>
</linearGradient>
<clipPath id="clip0_357_3559">
<rect width="309" height="366" rx="25" fill="white"/>
</clipPath>
</defs>
</svg>
