<svg width="309" height="366" viewBox="0 0 309 366" fill="none" xmlns="http://www.w3.org/2000/svg">
<rect width="309" height="366" rx="25" fill="#63059D"/>
<path d="M143.885 111.954L140.114 33H170.281L166.511 111.954H143.885Z" fill="url(#paint0_linear_357_3557)"/>
<path d="M179.17 134.525L255 170.983L239.916 195.141L167.857 152.644L179.17 134.525Z" fill="url(#paint1_linear_357_3557)"/>
<path d="M165.971 154.046L169.742 233H139.575L143.346 154.046H165.971Z" fill="url(#paint2_linear_357_3557)"/>
<path d="M142.143 152.894L70.0835 195.391L54.9999 171.233L130.83 134.776L142.143 152.894Z" fill="url(#paint3_linear_357_3557)"/>
<path d="M179.17 131.599L255 95.1414L239.916 70.9832L167.857 113.48L179.17 131.599Z" fill="url(#paint4_linear_357_3557)"/>
<path d="M142.143 113.23L70.0835 70.7335L54.9999 94.8916L130.83 131.349L142.143 113.23Z" fill="url(#paint5_linear_357_3557)"/>
<g filter="url(#filter0_dd_357_3557)">
<path d="M77.6128 113.789H96.1142V154.183C84.5508 154.183 77.6128 146.624 77.6128 140.482V113.789Z" fill="url(#paint6_linear_357_3557)"/>
<path d="M77.6128 113.789H96.1142V154.183C84.5508 154.183 77.6128 146.624 77.6128 140.482V113.789Z" stroke="url(#paint7_linear_357_3557)" stroke-width="2"/>
<path d="M232.819 113.789H214.318V154.183C225.881 154.183 232.819 146.624 232.819 140.482V113.789Z" fill="url(#paint8_linear_357_3557)"/>
<path d="M232.819 113.789H214.318V154.183C225.881 154.183 232.819 146.624 232.819 140.482V113.789Z" stroke="url(#paint9_linear_357_3557)" stroke-width="2"/>
<path d="M130.548 150.381H180.658V216.806L156.641 229.55C155.793 230 154.777 229.999 153.93 229.546L130.548 217.034V150.381Z" fill="#BB9986" stroke="url(#paint10_linear_357_3557)" stroke-width="2"/>
<path fill-rule="evenodd" clip-rule="evenodd" d="M126.951 150.381V215.508L106.873 204.616C105.944 204.112 105.365 203.14 105.365 202.083V150.381H126.951Z" fill="#8C685C" stroke="url(#paint11_linear_357_3557)" stroke-width="2"/>
<path fill-rule="evenodd" clip-rule="evenodd" d="M183.995 150.381V215.508L204.073 204.616C205.002 204.112 205.581 203.14 205.581 202.083V150.381H183.995Z" fill="#8C685C" stroke="url(#paint12_linear_357_3557)" stroke-width="2"/>
<path d="M203.782 178.657V201.23C202.669 201.309 200.39 202.181 200.185 205.032L186.052 212.636V186.736" stroke="url(#paint13_linear_357_3557)"/>
<path fill-rule="evenodd" clip-rule="evenodd" d="M132.86 191.25H132.346V214.738L132.561 214.771C133.318 214.888 133.965 215.057 134.52 215.516C135.077 215.976 135.572 216.757 135.951 218.158L135.978 218.257L155.148 228.318H155.73V228.318L155.73 228.318L155.874 228.278L174.968 218.257L174.995 218.158C175.374 216.757 175.87 215.976 176.426 215.516C176.981 215.057 177.628 214.888 178.385 214.771L178.6 214.738V191.25H178.086V214.337C177.377 214.46 176.689 214.661 176.084 215.161C175.435 215.698 174.913 216.553 174.523 217.944L155.662 227.843H155.284L136.423 217.944C136.034 216.553 135.511 215.698 134.862 215.161C134.257 214.661 133.569 214.46 132.86 214.337V191.25Z" fill="url(#paint14_linear_357_3557)"/>
<path d="M107.421 178.657V201.23C108.534 201.309 110.813 202.181 111.018 205.032L125.151 212.636V186.736" stroke="url(#paint15_linear_357_3557)"/>
<g filter="url(#filter1_d_357_3557)">
<path d="M147.577 69.1582L100.336 92.9216C94.5966 95.8085 90.9751 101.684 90.9751 108.108L90.9751 160.578C90.9751 167.002 94.5966 172.878 100.336 175.765L147.577 199.528C152.383 201.946 158.05 201.946 162.856 199.528L210.097 175.765C215.836 172.878 219.457 167.002 219.457 160.578L219.457 108.108C219.457 101.684 215.836 95.8085 210.097 92.9216L162.856 69.1582C158.05 66.7407 152.383 66.7407 147.577 69.1582Z" fill="url(#paint16_linear_357_3557)"/>
<path d="M147.529 79.5987L110.065 98.4437C104.348 101.32 100.74 107.173 100.74 113.573L100.74 154.873C100.74 161.273 104.348 167.127 110.065 170.003L147.529 188.848C152.317 191.256 157.962 191.256 162.75 188.848L200.213 170.003C205.931 167.127 209.539 161.273 209.539 154.873L209.539 113.573C209.539 107.173 205.931 101.32 200.213 98.4437L162.75 79.5987C157.962 77.1903 152.317 77.1903 147.529 79.5987Z" fill="url(#paint17_linear_357_3557)"/>
<g filter="url(#filter2_f_357_3557)">
<path d="M147.529 79.5987L110.065 98.4437C104.348 101.32 100.74 107.173 100.74 113.573L100.74 154.873C100.74 161.273 104.348 167.127 110.065 170.003L147.529 188.848C152.317 191.256 157.962 191.256 162.75 188.848L200.213 170.003C205.931 167.127 209.539 161.273 209.539 154.873L209.539 113.573C209.539 107.173 205.931 101.32 200.213 98.4437L162.75 79.5987C157.962 77.1903 152.317 77.1903 147.529 79.5987Z" stroke="url(#paint18_linear_357_3557)"/>
</g>
<g opacity="0.5">
<mask id="mask0_357_3557" style="mask-type:alpha" maskUnits="userSpaceOnUse" x="105" y="82" width="101" height="105">
<path d="M148.239 84.1584L114.241 101.245C108.799 103.98 105.365 109.549 105.365 115.639L105.365 152.993C105.365 159.083 108.799 164.652 114.241 167.387L148.239 184.474C152.791 186.761 158.156 186.761 162.707 184.474L196.706 167.387C202.147 164.652 205.581 159.083 205.581 152.993L205.581 115.639C205.581 109.549 202.147 103.98 196.706 101.245L162.707 84.1584C158.156 81.8709 152.791 81.8709 148.239 84.1584Z" fill="#A6D3DE"/>
</mask>
<g mask="url(#mask0_357_3557)">
<path d="M148.239 84.1584L114.241 101.245C108.799 103.98 105.365 109.549 105.365 115.639L105.365 152.993C105.365 159.083 108.799 164.652 114.241 167.387L148.239 184.474C152.791 186.761 158.156 186.761 162.707 184.474L196.706 167.387C202.147 164.652 205.581 159.083 205.581 152.993L205.581 115.639C205.581 109.549 202.147 103.98 196.706 101.245L162.707 84.1584C158.156 81.8709 152.791 81.8709 148.239 84.1584Z" fill="url(#paint19_radial_357_3557)"/>
<path opacity="0.5" d="M147.096 190.234L145.106 78.3923H165.84L163.85 190.234H147.096Z" fill="url(#paint20_linear_357_3557)"/>
<path opacity="0.5" d="M146.83 189.242L84.6309 93.3046L102.587 83.7181L161.339 181.497L146.83 189.242Z" fill="url(#paint21_linear_357_3557)"/>
<path opacity="0.5" d="M145.102 181.497L203.853 83.7181L221.81 93.3046L159.61 189.242L145.102 181.497Z" fill="url(#paint22_linear_357_3557)"/>
<rect x="105.365" y="127.922" width="100.216" height="60.1817" fill="url(#paint23_linear_357_3557)"/>
<g filter="url(#filter3_i_357_3557)">
<path d="M148.239 84.1584L114.241 101.245C108.799 103.98 105.365 109.549 105.365 115.639L105.365 152.993C105.365 159.083 108.799 164.652 114.241 167.387L148.239 184.474C152.791 186.761 158.156 186.761 162.707 184.474L196.706 167.387C202.147 164.652 205.581 159.083 205.581 152.993L205.581 115.639C205.581 109.549 202.147 103.98 196.706 101.245L162.707 84.1584C158.156 81.8709 152.791 81.8709 148.239 84.1584Z" fill="#F5C4AF" fill-opacity="0.03"/>
</g>
</g>
</g>
</g>
</g>
<g filter="url(#filter4_d_357_3557)">
<path fill-rule="evenodd" clip-rule="evenodd" d="M154.702 141.827C167.191 141.827 177.315 132.465 177.315 120.917C177.315 109.369 167.191 100.007 154.702 100.007C142.213 100.007 132.089 109.369 132.089 120.917C132.089 132.465 142.213 141.827 154.702 141.827ZM151.206 140.615C160.679 140.615 168.357 133.514 168.357 124.755C168.357 115.997 160.679 108.896 151.206 108.896C141.734 108.896 134.056 115.997 134.056 124.755C134.056 133.514 141.734 140.615 151.206 140.615Z" fill="url(#paint24_linear_357_3557)"/>
</g>
<path d="M66.2578 273.625V285H65.3047V273.625H66.2578ZM70.1562 273.625V274.453H61.4141V273.625H70.1562ZM72.7987 273V285H71.8691V273H72.7987ZM72.5878 280.25L72.1737 280.016C72.205 279.516 72.3066 279.047 72.4784 278.609C72.6503 278.172 72.8821 277.786 73.1737 277.453C73.4706 277.12 73.817 276.859 74.2128 276.672C74.6139 276.484 75.0566 276.391 75.5409 276.391C75.9628 276.391 76.3404 276.448 76.6737 276.562C77.0071 276.677 77.2909 276.859 77.5253 277.109C77.7597 277.359 77.9368 277.68 78.0566 278.07C78.1816 278.461 78.2441 278.938 78.2441 279.5V285H77.3066V279.492C77.3066 278.909 77.2258 278.453 77.0644 278.125C76.9029 277.792 76.6737 277.555 76.3769 277.414C76.08 277.273 75.7284 277.203 75.3222 277.203C74.8743 277.203 74.481 277.302 74.1425 277.5C73.8092 277.693 73.5279 277.945 73.2987 278.258C73.0748 278.565 72.9029 278.896 72.7831 279.25C72.6633 279.599 72.5982 279.932 72.5878 280.25ZM83.9959 285.156C83.4439 285.156 82.936 285.055 82.4725 284.852C82.0142 284.648 81.6131 284.362 81.2694 283.992C80.9308 283.622 80.6678 283.185 80.4803 282.68C80.298 282.169 80.2069 281.612 80.2069 281.008V280.672C80.2069 280.021 80.3032 279.432 80.4959 278.906C80.6886 278.38 80.9543 277.93 81.2928 277.555C81.6314 277.18 82.0168 276.893 82.4491 276.695C82.8866 276.492 83.3449 276.391 83.8241 276.391C84.3605 276.391 84.8371 276.487 85.2537 276.68C85.6704 276.867 86.0194 277.135 86.3006 277.484C86.5871 277.828 86.8032 278.237 86.9491 278.711C87.0949 279.18 87.1678 279.698 87.1678 280.266V280.836H80.7694V280.039H86.2381V279.93C86.2277 279.456 86.1314 279.013 85.9491 278.602C85.772 278.185 85.5064 277.846 85.1522 277.586C84.798 277.326 84.3553 277.195 83.8241 277.195C83.4282 277.195 83.0636 277.279 82.7303 277.445C82.4022 277.612 82.1183 277.852 81.8787 278.164C81.6444 278.471 81.4621 278.839 81.3319 279.266C81.2069 279.688 81.1444 280.156 81.1444 280.672V281.008C81.1444 281.477 81.2121 281.914 81.3475 282.32C81.4881 282.721 81.686 283.076 81.9412 283.383C82.2017 283.69 82.509 283.93 82.8631 284.102C83.2173 284.273 83.6079 284.359 84.035 284.359C84.535 284.359 84.9777 284.268 85.3631 284.086C85.7485 283.898 86.0949 283.604 86.4022 283.203L86.9881 283.656C86.8058 283.927 86.5767 284.177 86.3006 284.406C86.0298 284.635 85.7043 284.818 85.3241 284.953C84.9439 285.089 84.5011 285.156 83.9959 285.156ZM94.1541 282.844C94.1541 282.615 94.0968 282.388 93.9822 282.164C93.8676 281.94 93.6462 281.734 93.3181 281.547C92.9952 281.359 92.5186 281.201 91.8884 281.07C91.4197 280.966 91.0004 280.849 90.6306 280.719C90.266 280.589 89.9587 280.432 89.7087 280.25C89.4587 280.068 89.2686 279.849 89.1384 279.594C89.0082 279.339 88.9431 279.036 88.9431 278.688C88.9431 278.375 89.0108 278.081 89.1462 277.805C89.2869 277.523 89.4848 277.279 89.74 277.07C90.0004 276.857 90.3129 276.69 90.6775 276.57C91.0473 276.451 91.4614 276.391 91.9197 276.391C92.5707 276.391 93.128 276.503 93.5916 276.727C94.0603 276.945 94.4171 277.245 94.6619 277.625C94.9119 278.005 95.0369 278.435 95.0369 278.914H94.1072C94.1072 278.622 94.0212 278.346 93.8494 278.086C93.6827 277.826 93.4353 277.612 93.1072 277.445C92.7843 277.279 92.3884 277.195 91.9197 277.195C91.4353 277.195 91.0421 277.268 90.74 277.414C90.4379 277.56 90.2166 277.745 90.0759 277.969C89.9405 278.193 89.8728 278.424 89.8728 278.664C89.8728 278.852 89.9015 279.023 89.9587 279.18C90.0212 279.331 90.1306 279.471 90.2869 279.602C90.4483 279.732 90.6775 279.854 90.9744 279.969C91.2712 280.083 91.6567 280.195 92.1306 280.305C92.8129 280.456 93.3702 280.641 93.8025 280.859C94.24 281.073 94.5629 281.339 94.7712 281.656C94.9796 281.969 95.0837 282.349 95.0837 282.797C95.0837 283.146 95.0108 283.466 94.865 283.758C94.7192 284.044 94.5082 284.292 94.2322 284.5C93.9614 284.708 93.6332 284.87 93.2478 284.984C92.8676 285.099 92.4405 285.156 91.9666 285.156C91.253 285.156 90.6489 285.039 90.1541 284.805C89.6645 284.565 89.2921 284.253 89.0369 283.867C88.7869 283.477 88.6619 283.062 88.6619 282.625H89.5916C89.6228 283.062 89.7608 283.409 90.0056 283.664C90.2504 283.914 90.5499 284.091 90.9041 284.195C91.2634 284.299 91.6176 284.352 91.9666 284.352C92.4457 284.352 92.8468 284.281 93.1697 284.141C93.4926 284 93.7374 283.815 93.9041 283.586C94.0707 283.357 94.1541 283.109 94.1541 282.844ZM100.547 285.156C99.9945 285.156 99.4867 285.055 99.0231 284.852C98.5648 284.648 98.1637 284.362 97.82 283.992C97.4815 283.622 97.2184 283.185 97.0309 282.68C96.8486 282.169 96.7575 281.612 96.7575 281.008V280.672C96.7575 280.021 96.8539 279.432 97.0466 278.906C97.2393 278.38 97.5049 277.93 97.8434 277.555C98.182 277.18 98.5674 276.893 98.9997 276.695C99.4372 276.492 99.8955 276.391 100.375 276.391C100.911 276.391 101.388 276.487 101.804 276.68C102.221 276.867 102.57 277.135 102.851 277.484C103.138 277.828 103.354 278.237 103.5 278.711C103.646 279.18 103.718 279.698 103.718 280.266V280.836H97.32V280.039H102.789V279.93C102.778 279.456 102.682 279.013 102.5 278.602C102.323 278.185 102.057 277.846 101.703 277.586C101.349 277.326 100.906 277.195 100.375 277.195C99.9789 277.195 99.6143 277.279 99.2809 277.445C98.9528 277.612 98.669 277.852 98.4294 278.164C98.195 278.471 98.0127 278.839 97.8825 279.266C97.7575 279.688 97.695 280.156 97.695 280.672V281.008C97.695 281.477 97.7627 281.914 97.8981 282.32C98.0387 282.721 98.2367 283.076 98.4919 283.383C98.7523 283.69 99.0596 283.93 99.4137 284.102C99.7679 284.273 100.159 284.359 100.586 284.359C101.086 284.359 101.528 284.268 101.914 284.086C102.299 283.898 102.646 283.604 102.953 283.203L103.539 283.656C103.356 283.927 103.127 284.177 102.851 284.406C102.58 284.635 102.255 284.818 101.875 284.953C101.494 285.089 101.052 285.156 100.547 285.156ZM114.769 283.484V279.125C114.769 278.724 114.686 278.378 114.519 278.086C114.352 277.794 114.108 277.57 113.785 277.414C113.462 277.258 113.063 277.18 112.589 277.18C112.152 277.18 111.761 277.258 111.417 277.414C111.079 277.565 110.811 277.771 110.613 278.031C110.42 278.286 110.324 278.57 110.324 278.883L109.386 278.875C109.386 278.557 109.464 278.25 109.621 277.953C109.777 277.656 109.998 277.391 110.285 277.156C110.571 276.922 110.912 276.737 111.308 276.602C111.709 276.461 112.149 276.391 112.628 276.391C113.233 276.391 113.764 276.492 114.222 276.695C114.686 276.898 115.048 277.203 115.308 277.609C115.569 278.016 115.699 278.526 115.699 279.141V283.227C115.699 283.518 115.72 283.82 115.761 284.133C115.808 284.445 115.873 284.703 115.957 284.906V285H114.964C114.902 284.812 114.852 284.578 114.816 284.297C114.785 284.01 114.769 283.74 114.769 283.484ZM114.988 280.078L115.003 280.797H113.167C112.688 280.797 112.259 280.841 111.878 280.93C111.503 281.013 111.186 281.138 110.925 281.305C110.665 281.466 110.464 281.661 110.324 281.891C110.188 282.12 110.121 282.38 110.121 282.672C110.121 282.974 110.196 283.25 110.347 283.5C110.503 283.75 110.722 283.951 111.003 284.102C111.29 284.247 111.628 284.32 112.019 284.32C112.54 284.32 112.998 284.224 113.394 284.031C113.795 283.839 114.126 283.586 114.386 283.273C114.647 282.961 114.821 282.62 114.91 282.25L115.316 282.789C115.248 283.049 115.123 283.318 114.941 283.594C114.764 283.865 114.532 284.12 114.246 284.359C113.959 284.594 113.621 284.786 113.23 284.938C112.845 285.083 112.407 285.156 111.917 285.156C111.365 285.156 110.884 285.052 110.472 284.844C110.066 284.635 109.748 284.352 109.519 283.992C109.295 283.628 109.183 283.216 109.183 282.758C109.183 282.341 109.272 281.969 109.449 281.641C109.626 281.307 109.881 281.026 110.214 280.797C110.553 280.562 110.959 280.385 111.433 280.266C111.912 280.141 112.449 280.078 113.042 280.078H114.988ZM119.216 277.945V285H118.287V276.547H119.193L119.216 277.945ZM122.208 276.484L122.185 277.344C122.081 277.328 121.979 277.315 121.88 277.305C121.781 277.294 121.675 277.289 121.56 277.289C121.154 277.289 120.797 277.365 120.49 277.516C120.188 277.661 119.932 277.867 119.724 278.133C119.516 278.393 119.357 278.701 119.248 279.055C119.138 279.404 119.076 279.779 119.06 280.18L118.716 280.312C118.716 279.76 118.774 279.247 118.888 278.773C119.003 278.299 119.177 277.885 119.412 277.531C119.651 277.172 119.951 276.893 120.31 276.695C120.675 276.492 121.102 276.391 121.591 276.391C121.711 276.391 121.828 276.401 121.943 276.422C122.063 276.438 122.151 276.458 122.208 276.484ZM126.867 285.156C126.314 285.156 125.807 285.055 125.343 284.852C124.885 284.648 124.484 284.362 124.14 283.992C123.801 283.622 123.538 283.185 123.351 282.68C123.169 282.169 123.077 281.612 123.077 281.008V280.672C123.077 280.021 123.174 279.432 123.367 278.906C123.559 278.38 123.825 277.93 124.163 277.555C124.502 277.18 124.887 276.893 125.32 276.695C125.757 276.492 126.216 276.391 126.695 276.391C127.231 276.391 127.708 276.487 128.124 276.68C128.541 276.867 128.89 277.135 129.171 277.484C129.458 277.828 129.674 278.237 129.82 278.711C129.966 279.18 130.038 279.698 130.038 280.266V280.836H123.64V280.039H129.109V279.93C129.098 279.456 129.002 279.013 128.82 278.602C128.643 278.185 128.377 277.846 128.023 277.586C127.669 277.326 127.226 277.195 126.695 277.195C126.299 277.195 125.934 277.279 125.601 277.445C125.273 277.612 124.989 277.852 124.749 278.164C124.515 278.471 124.333 278.839 124.202 279.266C124.077 279.688 124.015 280.156 124.015 280.672V281.008C124.015 281.477 124.083 281.914 124.218 282.32C124.359 282.721 124.557 283.076 124.812 283.383C125.072 283.69 125.38 283.93 125.734 284.102C126.088 284.273 126.479 284.359 126.906 284.359C127.406 284.359 127.848 284.268 128.234 284.086C128.619 283.898 128.966 283.604 129.273 283.203L129.859 283.656C129.676 283.927 129.447 284.177 129.171 284.406C128.9 284.635 128.575 284.818 128.195 284.953C127.814 285.089 127.372 285.156 126.867 285.156ZM141.089 283.484V279.125C141.089 278.724 141.006 278.378 140.839 278.086C140.672 277.794 140.428 277.57 140.105 277.414C139.782 277.258 139.383 277.18 138.909 277.18C138.472 277.18 138.081 277.258 137.738 277.414C137.399 277.565 137.131 277.771 136.933 278.031C136.74 278.286 136.644 278.57 136.644 278.883L135.706 278.875C135.706 278.557 135.784 278.25 135.941 277.953C136.097 277.656 136.318 277.391 136.605 277.156C136.891 276.922 137.232 276.737 137.628 276.602C138.029 276.461 138.469 276.391 138.948 276.391C139.553 276.391 140.084 276.492 140.542 276.695C141.006 276.898 141.368 277.203 141.628 277.609C141.889 278.016 142.019 278.526 142.019 279.141V283.227C142.019 283.518 142.04 283.82 142.081 284.133C142.128 284.445 142.193 284.703 142.277 284.906V285H141.284C141.222 284.812 141.172 284.578 141.136 284.297C141.105 284.01 141.089 283.74 141.089 283.484ZM141.308 280.078L141.323 280.797H139.488C139.008 280.797 138.579 280.841 138.198 280.93C137.823 281.013 137.506 281.138 137.245 281.305C136.985 281.466 136.784 281.661 136.644 281.891C136.508 282.12 136.441 282.38 136.441 282.672C136.441 282.974 136.516 283.25 136.667 283.5C136.823 283.75 137.042 283.951 137.323 284.102C137.61 284.247 137.948 284.32 138.339 284.32C138.86 284.32 139.318 284.224 139.714 284.031C140.115 283.839 140.446 283.586 140.706 283.273C140.967 282.961 141.141 282.62 141.23 282.25L141.636 282.789C141.568 283.049 141.443 283.318 141.261 283.594C141.084 283.865 140.852 284.12 140.566 284.359C140.279 284.594 139.941 284.786 139.55 284.938C139.165 285.083 138.727 285.156 138.238 285.156C137.685 285.156 137.204 285.052 136.792 284.844C136.386 284.635 136.068 284.352 135.839 283.992C135.615 283.628 135.503 283.216 135.503 282.758C135.503 282.341 135.592 281.969 135.769 281.641C135.946 281.307 136.201 281.026 136.534 280.797C136.873 280.562 137.279 280.385 137.753 280.266C138.232 280.141 138.769 280.078 139.363 280.078H141.308ZM147.724 284.352C148.12 284.352 148.489 284.279 148.833 284.133C149.182 283.982 149.469 283.76 149.692 283.469C149.922 283.172 150.052 282.81 150.083 282.383H150.974C150.948 282.919 150.784 283.398 150.482 283.82C150.185 284.237 149.794 284.565 149.31 284.805C148.831 285.039 148.302 285.156 147.724 285.156C147.135 285.156 146.614 285.049 146.161 284.836C145.713 284.622 145.338 284.326 145.036 283.945C144.734 283.56 144.505 283.112 144.349 282.602C144.198 282.086 144.122 281.531 144.122 280.938V280.609C144.122 280.016 144.198 279.464 144.349 278.953C144.505 278.438 144.734 277.99 145.036 277.609C145.338 277.224 145.713 276.924 146.161 276.711C146.609 276.497 147.127 276.391 147.716 276.391C148.32 276.391 148.862 276.513 149.341 276.758C149.825 277.003 150.211 277.349 150.497 277.797C150.789 278.245 150.948 278.776 150.974 279.391H150.083C150.057 278.938 149.937 278.547 149.724 278.219C149.51 277.891 149.229 277.638 148.88 277.461C148.531 277.284 148.143 277.195 147.716 277.195C147.237 277.195 146.828 277.289 146.489 277.477C146.151 277.659 145.875 277.911 145.661 278.234C145.453 278.552 145.299 278.917 145.2 279.328C145.101 279.734 145.052 280.161 145.052 280.609V280.938C145.052 281.391 145.099 281.823 145.192 282.234C145.291 282.641 145.445 283.003 145.653 283.32C145.867 283.638 146.143 283.891 146.482 284.078C146.825 284.26 147.239 284.352 147.724 284.352ZM153.866 273V285H152.937V273H153.866ZM153.655 280.25L153.241 280.016C153.272 279.516 153.374 279.047 153.546 278.609C153.718 278.172 153.95 277.786 154.241 277.453C154.538 277.12 154.884 276.859 155.28 276.672C155.681 276.484 156.124 276.391 156.608 276.391C157.03 276.391 157.408 276.448 157.741 276.562C158.075 276.677 158.358 276.859 158.593 277.109C158.827 277.359 159.004 277.68 159.124 278.07C159.249 278.461 159.312 278.938 159.312 279.5V285H158.374V279.492C158.374 278.909 158.293 278.453 158.132 278.125C157.97 277.792 157.741 277.555 157.444 277.414C157.147 277.273 156.796 277.203 156.39 277.203C155.942 277.203 155.549 277.302 155.21 277.5C154.877 277.693 154.595 277.945 154.366 278.258C154.142 278.565 153.97 278.896 153.851 279.25C153.731 279.599 153.666 279.932 153.655 280.25ZM162.837 276.547V285H161.907V276.547H162.837ZM161.743 274.102C161.743 273.924 161.798 273.776 161.907 273.656C162.022 273.531 162.178 273.469 162.376 273.469C162.574 273.469 162.73 273.531 162.845 273.656C162.964 273.776 163.024 273.924 163.024 274.102C163.024 274.273 162.964 274.422 162.845 274.547C162.73 274.667 162.574 274.727 162.376 274.727C162.178 274.727 162.022 274.667 161.907 274.547C161.798 274.422 161.743 274.273 161.743 274.102ZM168.737 285.156C168.185 285.156 167.677 285.055 167.214 284.852C166.755 284.648 166.354 284.362 166.011 283.992C165.672 283.622 165.409 283.185 165.222 282.68C165.039 282.169 164.948 281.612 164.948 281.008V280.672C164.948 280.021 165.044 279.432 165.237 278.906C165.43 278.38 165.696 277.93 166.034 277.555C166.373 277.18 166.758 276.893 167.19 276.695C167.628 276.492 168.086 276.391 168.565 276.391C169.102 276.391 169.578 276.487 169.995 276.68C170.412 276.867 170.761 277.135 171.042 277.484C171.328 277.828 171.544 278.237 171.69 278.711C171.836 279.18 171.909 279.698 171.909 280.266V280.836H165.511V280.039H170.979V279.93C170.969 279.456 170.873 279.013 170.69 278.602C170.513 278.185 170.248 277.846 169.893 277.586C169.539 277.326 169.097 277.195 168.565 277.195C168.169 277.195 167.805 277.279 167.472 277.445C167.143 277.612 166.86 277.852 166.62 278.164C166.386 278.471 166.203 278.839 166.073 279.266C165.948 279.688 165.886 280.156 165.886 280.672V281.008C165.886 281.477 165.953 281.914 166.089 282.32C166.229 282.721 166.427 283.076 166.683 283.383C166.943 283.69 167.25 283.93 167.604 284.102C167.959 284.273 168.349 284.359 168.776 284.359C169.276 284.359 169.719 284.268 170.104 284.086C170.49 283.898 170.836 283.604 171.143 283.203L171.729 283.656C171.547 283.927 171.318 284.177 171.042 284.406C170.771 284.635 170.446 284.818 170.065 284.953C169.685 285.089 169.242 285.156 168.737 285.156ZM176.216 284.102L178.927 276.547H179.887L176.723 285H176.044L176.216 284.102ZM173.762 276.547L176.505 284.125L176.653 285H175.966L172.794 276.547H173.762ZM184.663 285.156C184.111 285.156 183.603 285.055 183.139 284.852C182.681 284.648 182.28 284.362 181.936 283.992C181.598 283.622 181.335 283.185 181.147 282.68C180.965 282.169 180.874 281.612 180.874 281.008V280.672C180.874 280.021 180.97 279.432 181.163 278.906C181.356 278.38 181.621 277.93 181.96 277.555C182.298 277.18 182.684 276.893 183.116 276.695C183.553 276.492 184.012 276.391 184.491 276.391C185.027 276.391 185.504 276.487 185.921 276.68C186.337 276.867 186.686 277.135 186.967 277.484C187.254 277.828 187.47 278.237 187.616 278.711C187.762 279.18 187.835 279.698 187.835 280.266V280.836H181.436V280.039H186.905V279.93C186.895 279.456 186.798 279.013 186.616 278.602C186.439 278.185 186.173 277.846 185.819 277.586C185.465 277.326 185.022 277.195 184.491 277.195C184.095 277.195 183.731 277.279 183.397 277.445C183.069 277.612 182.785 277.852 182.546 278.164C182.311 278.471 182.129 278.839 181.999 279.266C181.874 279.688 181.811 280.156 181.811 280.672V281.008C181.811 281.477 181.879 281.914 182.014 282.32C182.155 282.721 182.353 283.076 182.608 283.383C182.869 283.69 183.176 283.93 183.53 284.102C183.884 284.273 184.275 284.359 184.702 284.359C185.202 284.359 185.645 284.268 186.03 284.086C186.415 283.898 186.762 283.604 187.069 283.203L187.655 283.656C187.473 283.927 187.244 284.177 186.967 284.406C186.697 284.635 186.371 284.818 185.991 284.953C185.611 285.089 185.168 285.156 184.663 285.156ZM195.251 283.359V273H196.188V285H195.313L195.251 283.359ZM189.383 280.859V280.695C189.383 280.039 189.459 279.448 189.61 278.922C189.761 278.391 189.977 277.938 190.258 277.562C190.545 277.182 190.889 276.893 191.29 276.695C191.691 276.492 192.144 276.391 192.649 276.391C193.144 276.391 193.581 276.471 193.962 276.633C194.342 276.794 194.667 277.026 194.938 277.328C195.214 277.63 195.436 277.99 195.602 278.406C195.774 278.823 195.899 279.286 195.977 279.797V281.883C195.915 282.362 195.8 282.802 195.633 283.203C195.467 283.599 195.245 283.945 194.969 284.242C194.693 284.534 194.36 284.76 193.969 284.922C193.584 285.078 193.139 285.156 192.633 285.156C192.133 285.156 191.683 285.052 191.282 284.844C190.881 284.635 190.54 284.341 190.258 283.961C189.977 283.576 189.761 283.12 189.61 282.594C189.459 282.068 189.383 281.49 189.383 280.859ZM190.321 280.695V280.859C190.321 281.354 190.37 281.812 190.469 282.234C190.568 282.656 190.719 283.023 190.923 283.336C191.126 283.648 191.383 283.893 191.696 284.07C192.008 284.247 192.378 284.336 192.805 284.336C193.342 284.336 193.792 284.234 194.157 284.031C194.521 283.823 194.813 283.549 195.032 283.211C195.251 282.867 195.409 282.492 195.508 282.086V279.656C195.446 279.38 195.355 279.099 195.235 278.812C195.115 278.526 194.951 278.263 194.743 278.023C194.54 277.779 194.279 277.583 193.962 277.438C193.649 277.286 193.269 277.211 192.821 277.211C192.389 277.211 192.016 277.299 191.704 277.477C191.391 277.654 191.131 277.901 190.923 278.219C190.719 278.531 190.568 278.898 190.469 279.32C190.37 279.742 190.321 280.201 190.321 280.695ZM205.059 283.023L207.098 276.547H207.754L207.364 278.289L205.231 285H204.575L205.059 283.023ZM202.942 276.547L204.731 283.062L205.114 285H204.434L201.981 276.547H202.942ZM210.293 283.039L212.036 276.547H212.997L210.543 285H209.872L210.293 283.039ZM207.887 276.547L209.895 282.969L210.403 285H209.747L207.567 278.281L207.2 276.547H207.887ZM215.803 273V285H214.873V273H215.803ZM215.592 280.25L215.178 280.016C215.209 279.516 215.311 279.047 215.483 278.609C215.655 278.172 215.886 277.786 216.178 277.453C216.475 277.12 216.821 276.859 217.217 276.672C217.618 276.484 218.061 276.391 218.545 276.391C218.967 276.391 219.345 276.448 219.678 276.562C220.011 276.677 220.295 276.859 220.53 277.109C220.764 277.359 220.941 277.68 221.061 278.07C221.186 278.461 221.248 278.938 221.248 279.5V285H220.311V279.492C220.311 278.909 220.23 278.453 220.069 278.125C219.907 277.792 219.678 277.555 219.381 277.414C219.084 277.273 218.733 277.203 218.327 277.203C217.879 277.203 217.485 277.302 217.147 277.5C216.814 277.693 216.532 277.945 216.303 278.258C216.079 278.565 215.907 278.896 215.788 279.25C215.668 279.599 215.603 279.932 215.592 280.25ZM227 285.156C226.448 285.156 225.94 285.055 225.477 284.852C225.019 284.648 224.617 284.362 224.274 283.992C223.935 283.622 223.672 283.185 223.485 282.68C223.302 282.169 223.211 281.612 223.211 281.008V280.672C223.211 280.021 223.308 279.432 223.5 278.906C223.693 278.38 223.959 277.93 224.297 277.555C224.636 277.18 225.021 276.893 225.453 276.695C225.891 276.492 226.349 276.391 226.828 276.391C227.365 276.391 227.841 276.487 228.258 276.68C228.675 276.867 229.024 277.135 229.305 277.484C229.591 277.828 229.808 278.237 229.953 278.711C230.099 279.18 230.172 279.698 230.172 280.266V280.836H223.774V280.039H229.242V279.93C229.232 279.456 229.136 279.013 228.953 278.602C228.776 278.185 228.511 277.846 228.157 277.586C227.802 277.326 227.36 277.195 226.828 277.195C226.433 277.195 226.068 277.279 225.735 277.445C225.407 277.612 225.123 277.852 224.883 278.164C224.649 278.471 224.466 278.839 224.336 279.266C224.211 279.688 224.149 280.156 224.149 280.672V281.008C224.149 281.477 224.216 281.914 224.352 282.32C224.492 282.721 224.69 283.076 224.946 283.383C225.206 283.69 225.513 283.93 225.867 284.102C226.222 284.273 226.612 284.359 227.039 284.359C227.539 284.359 227.982 284.268 228.367 284.086C228.753 283.898 229.099 283.604 229.407 283.203L229.992 283.656C229.81 283.927 229.581 284.177 229.305 284.406C229.034 284.635 228.709 284.818 228.328 284.953C227.948 285.089 227.506 285.156 227 285.156ZM233.026 278.352V285H232.096V276.547H232.987L233.026 278.352ZM232.815 280.25L232.401 280.016C232.432 279.516 232.533 279.047 232.705 278.609C232.877 278.172 233.109 277.786 233.401 277.453C233.697 277.12 234.044 276.859 234.44 276.672C234.841 276.484 235.283 276.391 235.768 276.391C236.19 276.391 236.567 276.448 236.901 276.562C237.234 276.677 237.518 276.859 237.752 277.109C237.987 277.359 238.164 277.68 238.283 278.07C238.408 278.461 238.471 278.938 238.471 279.5V285H237.533V279.492C237.533 278.909 237.453 278.453 237.291 278.125C237.13 277.792 236.901 277.555 236.604 277.414C236.307 277.273 235.955 277.203 235.549 277.203C235.101 277.203 234.708 277.302 234.369 277.5C234.036 277.693 233.755 277.945 233.526 278.258C233.302 278.565 233.13 278.896 233.01 279.25C232.89 279.599 232.825 279.932 232.815 280.25ZM247.467 284.156L250.1 276.547H251.107L247.529 286.359C247.456 286.552 247.363 286.766 247.248 287C247.139 287.234 246.993 287.458 246.811 287.672C246.634 287.891 246.41 288.068 246.139 288.203C245.873 288.344 245.548 288.414 245.162 288.414C245.063 288.414 244.936 288.401 244.779 288.375C244.628 288.354 244.519 288.333 244.451 288.312L244.443 287.523C244.501 287.539 244.584 287.552 244.693 287.562C244.803 287.573 244.878 287.578 244.92 287.578C245.259 287.578 245.542 287.521 245.772 287.406C246.006 287.292 246.201 287.12 246.357 286.891C246.514 286.667 246.652 286.385 246.772 286.047L247.467 284.156ZM245.006 276.547L247.701 283.805L247.951 284.781L247.272 285.164L243.99 276.547H245.006ZM252.008 280.906V280.648C252.008 280.034 252.096 279.466 252.273 278.945C252.451 278.424 252.703 277.974 253.031 277.594C253.365 277.214 253.763 276.919 254.227 276.711C254.69 276.497 255.206 276.391 255.773 276.391C256.346 276.391 256.865 276.497 257.328 276.711C257.792 276.919 258.19 277.214 258.523 277.594C258.857 277.974 259.112 278.424 259.289 278.945C259.466 279.466 259.555 280.034 259.555 280.648V280.906C259.555 281.521 259.466 282.089 259.289 282.609C259.112 283.125 258.857 283.573 258.523 283.953C258.195 284.333 257.799 284.63 257.336 284.844C256.872 285.052 256.357 285.156 255.789 285.156C255.216 285.156 254.698 285.052 254.234 284.844C253.771 284.63 253.372 284.333 253.039 283.953C252.706 283.573 252.451 283.125 252.273 282.609C252.096 282.089 252.008 281.521 252.008 280.906ZM252.938 280.648V280.906C252.938 281.37 253 281.81 253.125 282.227C253.25 282.638 253.432 283.005 253.672 283.328C253.911 283.646 254.208 283.896 254.562 284.078C254.917 284.26 255.326 284.352 255.789 284.352C256.247 284.352 256.651 284.26 257 284.078C257.354 283.896 257.651 283.646 257.891 283.328C258.13 283.005 258.31 282.638 258.43 282.227C258.555 281.81 258.617 281.37 258.617 280.906V280.648C258.617 280.19 258.555 279.755 258.43 279.344C258.31 278.932 258.128 278.565 257.883 278.242C257.643 277.919 257.346 277.664 256.992 277.477C256.638 277.289 256.232 277.195 255.773 277.195C255.315 277.195 254.909 277.289 254.555 277.477C254.206 277.664 253.909 277.919 253.664 278.242C253.424 278.565 253.242 278.932 253.117 279.344C252.997 279.755 252.938 280.19 252.938 280.648ZM266.986 283.047V276.547H267.924V285H267.025L266.986 283.047ZM267.158 281.484L267.643 281.469C267.643 282 267.58 282.49 267.455 282.938C267.33 283.385 267.135 283.776 266.869 284.109C266.603 284.443 266.26 284.701 265.838 284.883C265.416 285.065 264.908 285.156 264.314 285.156C263.903 285.156 263.525 285.099 263.182 284.984C262.843 284.865 262.551 284.677 262.307 284.422C262.062 284.167 261.872 283.836 261.736 283.43C261.606 283.023 261.541 282.531 261.541 281.953V276.547H262.471V281.969C262.471 282.422 262.52 282.799 262.619 283.102C262.723 283.404 262.864 283.646 263.041 283.828C263.223 284.01 263.432 284.141 263.666 284.219C263.9 284.297 264.153 284.336 264.424 284.336C265.111 284.336 265.653 284.203 266.049 283.938C266.45 283.672 266.734 283.323 266.9 282.891C267.072 282.453 267.158 281.984 267.158 281.484ZM67.7891 300.547H68.6562V308.852C68.6562 309.586 68.5156 310.216 68.2344 310.742C67.9583 311.268 67.5651 311.672 67.0547 311.953C66.5495 312.234 65.9531 312.375 65.2656 312.375C64.9167 312.375 64.5573 312.32 64.1875 312.211C63.8229 312.107 63.4766 311.945 63.1484 311.727C62.8255 311.513 62.5495 311.247 62.3203 310.93L62.8438 310.359C63.1875 310.776 63.5547 311.081 63.9453 311.273C64.3359 311.471 64.7578 311.57 65.2109 311.57C65.7474 311.57 66.2005 311.464 66.5703 311.25C66.9453 311.036 67.2292 310.729 67.4219 310.328C67.6198 309.927 67.7188 309.445 67.7188 308.883V302.406L67.7891 300.547ZM61.8516 304.859V304.695C61.8516 304.039 61.9245 303.448 62.0703 302.922C62.2214 302.391 62.4375 301.938 62.7188 301.562C63 301.182 63.3411 300.893 63.7422 300.695C64.1484 300.492 64.6068 300.391 65.1172 300.391C65.6068 300.391 66.0417 300.471 66.4219 300.633C66.8021 300.794 67.1302 301.026 67.4062 301.328C67.6823 301.63 67.9036 301.99 68.0703 302.406C68.2422 302.823 68.3672 303.286 68.4453 303.797V305.883C68.3828 306.362 68.2682 306.802 68.1016 307.203C67.9349 307.599 67.7135 307.945 67.4375 308.242C67.1615 308.534 66.8281 308.76 66.4375 308.922C66.0521 309.078 65.6068 309.156 65.1016 309.156C64.5964 309.156 64.1432 309.052 63.7422 308.844C63.3411 308.635 63 308.341 62.7188 307.961C62.4375 307.576 62.2214 307.12 62.0703 306.594C61.9245 306.068 61.8516 305.49 61.8516 304.859ZM62.7891 304.695V304.859C62.7891 305.354 62.8385 305.812 62.9375 306.234C63.0365 306.656 63.1875 307.023 63.3906 307.336C63.5938 307.648 63.8516 307.893 64.1641 308.07C64.4766 308.247 64.8438 308.336 65.2656 308.336C65.8021 308.336 66.2526 308.234 66.6172 308.031C66.9818 307.823 67.2708 307.549 67.4844 307.211C67.6979 306.867 67.8542 306.492 67.9531 306.086V303.656C67.8958 303.38 67.8073 303.099 67.6875 302.812C67.5729 302.526 67.4115 302.263 67.2031 302.023C67 301.779 66.7396 301.583 66.4219 301.438C66.1094 301.286 65.7292 301.211 65.2812 301.211C64.8542 301.211 64.4818 301.299 64.1641 301.477C63.8516 301.654 63.5938 301.901 63.3906 302.219C63.1875 302.531 63.0365 302.898 62.9375 303.32C62.8385 303.742 62.7891 304.201 62.7891 304.695ZM74.4472 309.156C73.8951 309.156 73.3873 309.055 72.9237 308.852C72.4654 308.648 72.0644 308.362 71.7206 307.992C71.3821 307.622 71.1191 307.185 70.9316 306.68C70.7493 306.169 70.6581 305.612 70.6581 305.008V304.672C70.6581 304.021 70.7545 303.432 70.9472 302.906C71.1399 302.38 71.4055 301.93 71.7441 301.555C72.0826 301.18 72.468 300.893 72.9003 300.695C73.3378 300.492 73.7961 300.391 74.2753 300.391C74.8118 300.391 75.2883 300.487 75.705 300.68C76.1217 300.867 76.4706 301.135 76.7519 301.484C77.0383 301.828 77.2545 302.237 77.4003 302.711C77.5461 303.18 77.6191 303.698 77.6191 304.266V304.836H71.2206V304.039H76.6894V303.93C76.679 303.456 76.5826 303.013 76.4003 302.602C76.2232 302.185 75.9576 301.846 75.6034 301.586C75.2493 301.326 74.8066 301.195 74.2753 301.195C73.8795 301.195 73.5149 301.279 73.1816 301.445C72.8534 301.612 72.5696 301.852 72.33 302.164C72.0956 302.471 71.9133 302.839 71.7831 303.266C71.6581 303.688 71.5956 304.156 71.5956 304.672V305.008C71.5956 305.477 71.6633 305.914 71.7987 306.32C71.9394 306.721 72.1373 307.076 72.3925 307.383C72.6529 307.69 72.9602 307.93 73.3144 308.102C73.6685 308.273 74.0592 308.359 74.4862 308.359C74.9862 308.359 75.429 308.268 75.8144 308.086C76.1998 307.898 76.5461 307.604 76.8534 307.203L77.4394 307.656C77.2571 307.927 77.0279 308.177 76.7519 308.406C76.481 308.635 76.1555 308.818 75.7753 308.953C75.3951 309.089 74.9524 309.156 74.4472 309.156ZM82.7381 300.547V301.312H78.5037V300.547H82.7381ZM80.0584 298.375H80.9881V306.945C80.9881 307.336 81.0402 307.63 81.1444 307.828C81.2485 308.026 81.384 308.159 81.5506 308.227C81.7173 308.294 81.897 308.328 82.0897 308.328C82.2303 308.328 82.3657 308.32 82.4959 308.305C82.6261 308.284 82.7433 308.263 82.8475 308.242L82.8866 309.031C82.772 309.068 82.6235 309.096 82.4412 309.117C82.259 309.143 82.0767 309.156 81.8944 309.156C81.535 309.156 81.2173 309.091 80.9412 308.961C80.6652 308.826 80.4491 308.596 80.2928 308.273C80.1366 307.945 80.0584 307.5 80.0584 306.938V298.375ZM92.9606 297.578V309H92.0309V298.758L88.9372 299.906V299.023L92.8044 297.578H92.9606ZM102.746 297V309H101.816V297H102.746ZM108.646 309.156C108.094 309.156 107.586 309.055 107.123 308.852C106.664 308.648 106.263 308.362 105.919 307.992C105.581 307.622 105.318 307.185 105.13 306.68C104.948 306.169 104.857 305.612 104.857 305.008V304.672C104.857 304.021 104.953 303.432 105.146 302.906C105.339 302.38 105.604 301.93 105.943 301.555C106.281 301.18 106.667 300.893 107.099 300.695C107.537 300.492 107.995 300.391 108.474 300.391C109.011 300.391 109.487 300.487 109.904 300.68C110.32 300.867 110.669 301.135 110.951 301.484C111.237 301.828 111.453 302.237 111.599 302.711C111.745 303.18 111.818 303.698 111.818 304.266V304.836H105.419V304.039H110.888V303.93C110.878 303.456 110.781 303.013 110.599 302.602C110.422 302.185 110.156 301.846 109.802 301.586C109.448 301.326 109.005 301.195 108.474 301.195C108.078 301.195 107.714 301.279 107.38 301.445C107.052 301.612 106.768 301.852 106.529 302.164C106.294 302.471 106.112 302.839 105.982 303.266C105.857 303.688 105.794 304.156 105.794 304.672V305.008C105.794 305.477 105.862 305.914 105.998 306.32C106.138 306.721 106.336 307.076 106.591 307.383C106.852 307.69 107.159 307.93 107.513 308.102C107.867 308.273 108.258 308.359 108.685 308.359C109.185 308.359 109.628 308.268 110.013 308.086C110.399 307.898 110.745 307.604 111.052 307.203L111.638 307.656C111.456 307.927 111.227 308.177 110.951 308.406C110.68 308.635 110.354 308.818 109.974 308.953C109.594 309.089 109.151 309.156 108.646 309.156ZM116.124 308.102L118.835 300.547H119.796L116.632 309H115.952L116.124 308.102ZM113.671 300.547L116.413 308.125L116.562 309H115.874L112.702 300.547H113.671ZM124.572 309.156C124.019 309.156 123.512 309.055 123.048 308.852C122.59 308.648 122.189 308.362 121.845 307.992C121.506 307.622 121.243 307.185 121.056 306.68C120.874 306.169 120.783 305.612 120.783 305.008V304.672C120.783 304.021 120.879 303.432 121.072 302.906C121.264 302.38 121.53 301.93 121.868 301.555C122.207 301.18 122.592 300.893 123.025 300.695C123.462 300.492 123.921 300.391 124.4 300.391C124.936 300.391 125.413 300.487 125.829 300.68C126.246 300.867 126.595 301.135 126.876 301.484C127.163 301.828 127.379 302.237 127.525 302.711C127.671 303.18 127.743 303.698 127.743 304.266V304.836H121.345V304.039H126.814V303.93C126.803 303.456 126.707 303.013 126.525 302.602C126.348 302.185 126.082 301.846 125.728 301.586C125.374 301.326 124.931 301.195 124.4 301.195C124.004 301.195 123.639 301.279 123.306 301.445C122.978 301.612 122.694 301.852 122.454 302.164C122.22 302.471 122.038 302.839 121.908 303.266C121.783 303.688 121.72 304.156 121.72 304.672V305.008C121.72 305.477 121.788 305.914 121.923 306.32C122.064 306.721 122.262 307.076 122.517 307.383C122.777 307.69 123.085 307.93 123.439 308.102C123.793 308.273 124.184 308.359 124.611 308.359C125.111 308.359 125.553 308.268 125.939 308.086C126.324 307.898 126.671 307.604 126.978 307.203L127.564 307.656C127.381 307.927 127.152 308.177 126.876 308.406C126.605 308.635 126.28 308.818 125.9 308.953C125.519 309.089 125.077 309.156 124.572 309.156ZM130.706 297V309H129.777V297H130.706ZM138.403 306.844C138.403 306.615 138.346 306.388 138.232 306.164C138.117 305.94 137.896 305.734 137.567 305.547C137.245 305.359 136.768 305.201 136.138 305.07C135.669 304.966 135.25 304.849 134.88 304.719C134.515 304.589 134.208 304.432 133.958 304.25C133.708 304.068 133.518 303.849 133.388 303.594C133.258 303.339 133.192 303.036 133.192 302.688C133.192 302.375 133.26 302.081 133.396 301.805C133.536 301.523 133.734 301.279 133.989 301.07C134.25 300.857 134.562 300.69 134.927 300.57C135.297 300.451 135.711 300.391 136.169 300.391C136.82 300.391 137.377 300.503 137.841 300.727C138.31 300.945 138.666 301.245 138.911 301.625C139.161 302.005 139.286 302.435 139.286 302.914H138.357C138.357 302.622 138.271 302.346 138.099 302.086C137.932 301.826 137.685 301.612 137.357 301.445C137.034 301.279 136.638 301.195 136.169 301.195C135.685 301.195 135.291 301.268 134.989 301.414C134.687 301.56 134.466 301.745 134.325 301.969C134.19 302.193 134.122 302.424 134.122 302.664C134.122 302.852 134.151 303.023 134.208 303.18C134.271 303.331 134.38 303.471 134.536 303.602C134.698 303.732 134.927 303.854 135.224 303.969C135.521 304.083 135.906 304.195 136.38 304.305C137.062 304.456 137.62 304.641 138.052 304.859C138.489 305.073 138.812 305.339 139.021 305.656C139.229 305.969 139.333 306.349 139.333 306.797C139.333 307.146 139.26 307.466 139.114 307.758C138.969 308.044 138.758 308.292 138.482 308.5C138.211 308.708 137.883 308.87 137.497 308.984C137.117 309.099 136.69 309.156 136.216 309.156C135.502 309.156 134.898 309.039 134.403 308.805C133.914 308.565 133.541 308.253 133.286 307.867C133.036 307.477 132.911 307.062 132.911 306.625H133.841C133.872 307.062 134.01 307.409 134.255 307.664C134.5 307.914 134.799 308.091 135.153 308.195C135.513 308.299 135.867 308.352 136.216 308.352C136.695 308.352 137.096 308.281 137.419 308.141C137.742 308 137.987 307.815 138.153 307.586C138.32 307.357 138.403 307.109 138.403 306.844ZM147.86 307.023L149.899 300.547H150.556L150.165 302.289L148.032 309H147.376L147.86 307.023ZM145.743 300.547L147.532 307.062L147.915 309H147.235L144.782 300.547H145.743ZM153.095 307.039L154.837 300.547H155.798L153.345 309H152.673L153.095 307.039ZM150.688 300.547L152.696 306.969L153.204 309H152.548L150.368 302.281L150.001 300.547H150.688ZM158.714 300.547V309H157.784V300.547H158.714ZM157.62 298.102C157.62 297.924 157.675 297.776 157.784 297.656C157.899 297.531 158.055 297.469 158.253 297.469C158.451 297.469 158.607 297.531 158.722 297.656C158.841 297.776 158.901 297.924 158.901 298.102C158.901 298.273 158.841 298.422 158.722 298.547C158.607 298.667 158.451 298.727 158.253 298.727C158.055 298.727 157.899 298.667 157.784 298.547C157.675 298.422 157.62 298.273 157.62 298.102ZM164.544 300.547V301.312H160.309V300.547H164.544ZM161.864 298.375H162.794V306.945C162.794 307.336 162.846 307.63 162.95 307.828C163.054 308.026 163.19 308.159 163.356 308.227C163.523 308.294 163.703 308.328 163.895 308.328C164.036 308.328 164.171 308.32 164.302 308.305C164.432 308.284 164.549 308.263 164.653 308.242L164.692 309.031C164.578 309.068 164.429 309.096 164.247 309.117C164.065 309.143 163.882 309.156 163.7 309.156C163.341 309.156 163.023 309.091 162.747 308.961C162.471 308.826 162.255 308.596 162.098 308.273C161.942 307.945 161.864 307.5 161.864 306.938V298.375ZM167.514 297V309H166.585V297H167.514ZM167.303 304.25L166.889 304.016C166.921 303.516 167.022 303.047 167.194 302.609C167.366 302.172 167.598 301.786 167.889 301.453C168.186 301.12 168.533 300.859 168.928 300.672C169.329 300.484 169.772 300.391 170.257 300.391C170.678 300.391 171.056 300.448 171.389 300.562C171.723 300.677 172.007 300.859 172.241 301.109C172.475 301.359 172.652 301.68 172.772 302.07C172.897 302.461 172.96 302.938 172.96 303.5V309H172.022V303.492C172.022 302.909 171.941 302.453 171.78 302.125C171.619 301.792 171.389 301.555 171.092 301.414C170.796 301.273 170.444 301.203 170.038 301.203C169.59 301.203 169.197 301.302 168.858 301.5C168.525 301.693 168.244 301.945 168.014 302.258C167.79 302.565 167.619 302.896 167.499 303.25C167.379 303.599 167.314 303.932 167.303 304.25ZM180.362 302.352V309H179.432V300.547H180.323L180.362 302.352ZM180.151 304.25L179.737 304.016C179.768 303.516 179.87 303.047 180.042 302.609C180.213 302.172 180.445 301.786 180.737 301.453C181.034 301.12 181.38 300.859 181.776 300.672C182.177 300.484 182.62 300.391 183.104 300.391C183.526 300.391 183.904 300.448 184.237 300.562C184.57 300.677 184.854 300.859 185.088 301.109C185.323 301.359 185.5 301.68 185.62 302.07C185.745 302.461 185.807 302.938 185.807 303.5V309H184.87V303.492C184.87 302.909 184.789 302.453 184.628 302.125C184.466 301.792 184.237 301.555 183.94 301.414C183.643 301.273 183.292 301.203 182.885 301.203C182.437 301.203 182.044 301.302 181.706 301.5C181.372 301.693 181.091 301.945 180.862 302.258C180.638 302.565 180.466 302.896 180.346 303.25C180.226 303.599 180.161 303.932 180.151 304.25ZM187.793 304.906V304.648C187.793 304.034 187.882 303.466 188.059 302.945C188.236 302.424 188.489 301.974 188.817 301.594C189.15 301.214 189.549 300.919 190.012 300.711C190.476 300.497 190.991 300.391 191.559 300.391C192.132 300.391 192.65 300.497 193.114 300.711C193.577 300.919 193.976 301.214 194.309 301.594C194.642 301.974 194.898 302.424 195.075 302.945C195.252 303.466 195.34 304.034 195.34 304.648V304.906C195.34 305.521 195.252 306.089 195.075 306.609C194.898 307.125 194.642 307.573 194.309 307.953C193.981 308.333 193.585 308.63 193.122 308.844C192.658 309.052 192.142 309.156 191.575 309.156C191.002 309.156 190.484 309.052 190.02 308.844C189.556 308.63 189.158 308.333 188.825 307.953C188.491 307.573 188.236 307.125 188.059 306.609C187.882 306.089 187.793 305.521 187.793 304.906ZM188.723 304.648V304.906C188.723 305.37 188.786 305.81 188.911 306.227C189.036 306.638 189.218 307.005 189.457 307.328C189.697 307.646 189.994 307.896 190.348 308.078C190.702 308.26 191.111 308.352 191.575 308.352C192.033 308.352 192.437 308.26 192.786 308.078C193.14 307.896 193.437 307.646 193.676 307.328C193.916 307.005 194.096 306.638 194.215 306.227C194.34 305.81 194.403 305.37 194.403 304.906V304.648C194.403 304.19 194.34 303.755 194.215 303.344C194.096 302.932 193.913 302.565 193.668 302.242C193.429 301.919 193.132 301.664 192.778 301.477C192.424 301.289 192.017 301.195 191.559 301.195C191.101 301.195 190.694 301.289 190.34 301.477C189.991 301.664 189.694 301.919 189.45 302.242C189.21 302.565 189.028 302.932 188.903 303.344C188.783 303.755 188.723 304.19 188.723 304.648ZM204.61 309.156C204.058 309.156 203.55 309.055 203.086 308.852C202.628 308.648 202.227 308.362 201.883 307.992C201.545 307.622 201.282 307.185 201.094 306.68C200.912 306.169 200.821 305.612 200.821 305.008V304.672C200.821 304.021 200.917 303.432 201.11 302.906C201.302 302.38 201.568 301.93 201.907 301.555C202.245 301.18 202.631 300.893 203.063 300.695C203.5 300.492 203.959 300.391 204.438 300.391C204.974 300.391 205.451 300.487 205.867 300.68C206.284 300.867 206.633 301.135 206.914 301.484C207.201 301.828 207.417 302.237 207.563 302.711C207.709 303.18 207.782 303.698 207.782 304.266V304.836H201.383V304.039H206.852V303.93C206.841 303.456 206.745 303.013 206.563 302.602C206.386 302.185 206.12 301.846 205.766 301.586C205.412 301.326 204.969 301.195 204.438 301.195C204.042 301.195 203.677 301.279 203.344 301.445C203.016 301.612 202.732 301.852 202.492 302.164C202.258 302.471 202.076 302.839 201.946 303.266C201.821 303.688 201.758 304.156 201.758 304.672V305.008C201.758 305.477 201.826 305.914 201.961 306.32C202.102 306.721 202.3 307.076 202.555 307.383C202.815 307.69 203.123 307.93 203.477 308.102C203.831 308.273 204.222 308.359 204.649 308.359C205.149 308.359 205.591 308.268 205.977 308.086C206.362 307.898 206.709 307.604 207.016 307.203L207.602 307.656C207.42 307.927 207.19 308.177 206.914 308.406C206.644 308.635 206.318 308.818 205.938 308.953C205.558 309.089 205.115 309.156 204.61 309.156ZM210.635 301.945V309H209.705V300.547H210.612L210.635 301.945ZM213.627 300.484L213.604 301.344C213.5 301.328 213.398 301.315 213.299 301.305C213.2 301.294 213.093 301.289 212.979 301.289C212.572 301.289 212.216 301.365 211.908 301.516C211.606 301.661 211.351 301.867 211.143 302.133C210.934 302.393 210.776 302.701 210.666 303.055C210.557 303.404 210.494 303.779 210.479 304.18L210.135 304.312C210.135 303.76 210.192 303.247 210.307 302.773C210.421 302.299 210.596 301.885 210.83 301.531C211.07 301.172 211.369 300.893 211.729 300.695C212.093 300.492 212.52 300.391 213.01 300.391C213.13 300.391 213.247 300.401 213.362 300.422C213.481 300.438 213.57 300.458 213.627 300.484ZM216.106 301.945V309H215.176V300.547H216.082L216.106 301.945ZM219.098 300.484L219.074 301.344C218.97 301.328 218.869 301.315 218.77 301.305C218.671 301.294 218.564 301.289 218.449 301.289C218.043 301.289 217.686 301.365 217.379 301.516C217.077 301.661 216.822 301.867 216.613 302.133C216.405 302.393 216.246 302.701 216.137 303.055C216.027 303.404 215.965 303.779 215.949 304.18L215.606 304.312C215.606 303.76 215.663 303.247 215.777 302.773C215.892 302.299 216.067 301.885 216.301 301.531C216.541 301.172 216.84 300.893 217.199 300.695C217.564 300.492 217.991 300.391 218.481 300.391C218.6 300.391 218.718 300.401 218.832 300.422C218.952 300.438 219.041 300.458 219.098 300.484ZM219.975 304.906V304.648C219.975 304.034 220.063 303.466 220.24 302.945C220.417 302.424 220.67 301.974 220.998 301.594C221.331 301.214 221.73 300.919 222.193 300.711C222.657 300.497 223.173 300.391 223.74 300.391C224.313 300.391 224.831 300.497 225.295 300.711C225.759 300.919 226.157 301.214 226.49 301.594C226.824 301.974 227.079 302.424 227.256 302.945C227.433 303.466 227.522 304.034 227.522 304.648V304.906C227.522 305.521 227.433 306.089 227.256 306.609C227.079 307.125 226.824 307.573 226.49 307.953C226.162 308.333 225.766 308.63 225.303 308.844C224.839 309.052 224.324 309.156 223.756 309.156C223.183 309.156 222.665 309.052 222.201 308.844C221.738 308.63 221.339 308.333 221.006 307.953C220.673 307.573 220.417 307.125 220.24 306.609C220.063 306.089 219.975 305.521 219.975 304.906ZM220.904 304.648V304.906C220.904 305.37 220.967 305.81 221.092 306.227C221.217 306.638 221.399 307.005 221.639 307.328C221.878 307.646 222.175 307.896 222.529 308.078C222.884 308.26 223.292 308.352 223.756 308.352C224.214 308.352 224.618 308.26 224.967 308.078C225.321 307.896 225.618 307.646 225.857 307.328C226.097 307.005 226.277 306.638 226.397 306.227C226.522 305.81 226.584 305.37 226.584 304.906V304.648C226.584 304.19 226.522 303.755 226.397 303.344C226.277 302.932 226.094 302.565 225.85 302.242C225.61 301.919 225.313 301.664 224.959 301.477C224.605 301.289 224.199 301.195 223.74 301.195C223.282 301.195 222.876 301.289 222.522 301.477C222.173 301.664 221.876 301.919 221.631 302.242C221.391 302.565 221.209 302.932 221.084 303.344C220.964 303.755 220.904 304.19 220.904 304.648ZM230.469 301.945V309H229.539V300.547H230.445L230.469 301.945ZM233.461 300.484L233.438 301.344C233.333 301.328 233.232 301.315 233.133 301.305C233.034 301.294 232.927 301.289 232.812 301.289C232.406 301.289 232.049 301.365 231.742 301.516C231.44 301.661 231.185 301.867 230.977 302.133C230.768 302.393 230.609 302.701 230.5 303.055C230.391 303.404 230.328 303.779 230.312 304.18L229.969 304.312C229.969 303.76 230.026 303.247 230.141 302.773C230.255 302.299 230.43 301.885 230.664 301.531C230.904 301.172 231.203 300.893 231.562 300.695C231.927 300.492 232.354 300.391 232.844 300.391C232.964 300.391 233.081 300.401 233.195 300.422C233.315 300.438 233.404 300.458 233.461 300.484Z" fill="white"/>
<defs>
<filter id="filter0_dd_357_3557" x="15.4163" y="10.2284" width="279.599" height="285.935" filterUnits="userSpaceOnUse" color-interpolation-filters="sRGB">
<feFlood flood-opacity="0" result="BackgroundImageFix"/>
<feColorMatrix in="SourceAlpha" type="matrix" values="0 0 0 0 0 0 0 0 0 0 0 0 0 0 0 0 0 0 127 0" result="hardAlpha"/>
<feOffset/>
<feGaussianBlur stdDeviation="10.1994"/>
<feColorMatrix type="matrix" values="0 0 0 0 0.9375 0 0 0 0 0.695 0 0 0 0 0.558594 0 0 0 1 0"/>
<feBlend mode="normal" in2="BackgroundImageFix" result="effect1_dropShadow_357_3557"/>
<feColorMatrix in="SourceAlpha" type="matrix" values="0 0 0 0 0 0 0 0 0 0 0 0 0 0 0 0 0 0 127 0" result="hardAlpha"/>
<feOffset dy="4.07976"/>
<feGaussianBlur stdDeviation="30.5982"/>
<feColorMatrix type="matrix" values="0 0 0 0 1 0 0 0 0 0.749833 0 0 0 0 0.670833 0 0 0 0.6 0"/>
<feBlend mode="normal" in2="effect1_dropShadow_357_3557" result="effect2_dropShadow_357_3557"/>
<feBlend mode="normal" in="SourceGraphic" in2="effect2_dropShadow_357_3557" result="shape"/>
</filter>
<filter id="filter1_d_357_3557" x="84.9751" y="67.3451" width="140.482" height="147.996" filterUnits="userSpaceOnUse" color-interpolation-filters="sRGB">
<feFlood flood-opacity="0" result="BackgroundImageFix"/>
<feColorMatrix in="SourceAlpha" type="matrix" values="0 0 0 0 0 0 0 0 0 0 0 0 0 0 0 0 0 0 127 0" result="hardAlpha"/>
<feOffset dy="8"/>
<feGaussianBlur stdDeviation="3"/>
<feColorMatrix type="matrix" values="0 0 0 0 0.491667 0 0 0 0 0.276808 0 0 0 0 0.208958 0 0 0 0.54 0"/>
<feBlend mode="normal" in2="BackgroundImageFix" result="effect1_dropShadow_357_3557"/>
<feBlend mode="normal" in="SourceGraphic" in2="effect1_dropShadow_357_3557" result="shape"/>
</filter>
<filter id="filter2_f_357_3557" x="99.6397" y="76.6924" width="110.999" height="115.062" filterUnits="userSpaceOnUse" color-interpolation-filters="sRGB">
<feFlood flood-opacity="0" result="BackgroundImageFix"/>
<feBlend mode="normal" in="SourceGraphic" in2="BackgroundImageFix" result="shape"/>
<feGaussianBlur stdDeviation="0.3" result="effect1_foregroundBlur_357_3557"/>
</filter>
<filter id="filter3_i_357_3557" x="105.365" y="82.4427" width="100.216" height="103.747" filterUnits="userSpaceOnUse" color-interpolation-filters="sRGB">
<feFlood flood-opacity="0" result="BackgroundImageFix"/>
<feBlend mode="normal" in="SourceGraphic" in2="BackgroundImageFix" result="shape"/>
<feColorMatrix in="SourceAlpha" type="matrix" values="0 0 0 0 0 0 0 0 0 0 0 0 0 0 0 0 0 0 127 0" result="hardAlpha"/>
<feOffset/>
<feGaussianBlur stdDeviation="6.72414"/>
<feComposite in2="hardAlpha" operator="arithmetic" k2="-1" k3="1"/>
<feColorMatrix type="matrix" values="0 0 0 0 0.283333 0 0 0 0 0.158667 0 0 0 0 0.0566667 0 0 0 1 0"/>
<feBlend mode="normal" in2="shape" result="effect1_innerShadow_357_3557"/>
</filter>
<filter id="filter4_d_357_3557" x="125.218" y="96.3905" width="59.6913" height="56.2857" filterUnits="userSpaceOnUse" color-interpolation-filters="sRGB">
<feFlood flood-opacity="0" result="BackgroundImageFix"/>
<feColorMatrix in="SourceAlpha" type="matrix" values="0 0 0 0 0 0 0 0 0 0 0 0 0 0 0 0 0 0 127 0" result="hardAlpha"/>
<feOffset dx="0.361644" dy="3.61644"/>
<feGaussianBlur stdDeviation="3.61644"/>
<feColorMatrix type="matrix" values="0 0 0 0 0.620833 0 0 0 0 0.428789 0 0 0 0 0.320764 0 0 0 0.44 0"/>
<feBlend mode="normal" in2="BackgroundImageFix" result="effect1_dropShadow_357_3557"/>
<feBlend mode="normal" in="SourceGraphic" in2="effect1_dropShadow_357_3557" result="shape"/>
</filter>
<linearGradient id="paint0_linear_357_3557" x1="155.198" y1="33" x2="155.198" y2="111.954" gradientUnits="userSpaceOnUse">
<stop stop-color="#FFBEAA" stop-opacity="0"/>
<stop offset="1" stop-color="#FFC9AA" stop-opacity="0.3"/>
</linearGradient>
<linearGradient id="paint1_linear_357_3557" x1="247.458" y1="183.062" x2="176.52" y2="138.77" gradientUnits="userSpaceOnUse">
<stop stop-color="#FFBEAA" stop-opacity="0"/>
<stop offset="1" stop-color="#FFC9AA" stop-opacity="0.3"/>
</linearGradient>
<linearGradient id="paint2_linear_357_3557" x1="154.659" y1="233" x2="154.659" y2="154.046" gradientUnits="userSpaceOnUse">
<stop stop-color="#FFBEAA" stop-opacity="0"/>
<stop offset="1" stop-color="#FFC9AA" stop-opacity="0.3"/>
</linearGradient>
<linearGradient id="paint3_linear_357_3557" x1="62.5417" y1="183.312" x2="133.48" y2="139.02" gradientUnits="userSpaceOnUse">
<stop stop-color="#FFBEAA" stop-opacity="0"/>
<stop offset="1" stop-color="#FFC9AA" stop-opacity="0.3"/>
</linearGradient>
<linearGradient id="paint4_linear_357_3557" x1="247.458" y1="83.0623" x2="176.52" y2="127.354" gradientUnits="userSpaceOnUse">
<stop stop-color="#FFBEAA" stop-opacity="0"/>
<stop offset="1" stop-color="#FFC9AA" stop-opacity="0.3"/>
</linearGradient>
<linearGradient id="paint5_linear_357_3557" x1="62.5417" y1="82.8126" x2="133.48" y2="127.104" gradientUnits="userSpaceOnUse">
<stop stop-color="#FFBEAA" stop-opacity="0"/>
<stop offset="1" stop-color="#FFC9AA" stop-opacity="0.3"/>
</linearGradient>
<linearGradient id="paint6_linear_357_3557" x1="86.8635" y1="113.789" x2="86.8635" y2="154.183" gradientUnits="userSpaceOnUse">
<stop stop-color="#EFD9BD"/>
<stop offset="1" stop-color="#C39470"/>
</linearGradient>
<linearGradient id="paint7_linear_357_3557" x1="77.6128" y1="113.789" x2="85.5722" y2="154.436" gradientUnits="userSpaceOnUse">
<stop stop-color="#F3DDC4"/>
<stop offset="0.378992" stop-color="#F3DDC4"/>
<stop offset="0.46253" stop-color="#F3DDC4"/>
<stop offset="1" stop-color="#74523F"/>
</linearGradient>
<linearGradient id="paint8_linear_357_3557" x1="223.569" y1="113.789" x2="223.569" y2="154.183" gradientUnits="userSpaceOnUse">
<stop stop-color="#EFD9BD"/>
<stop offset="1" stop-color="#C39470"/>
</linearGradient>
<linearGradient id="paint9_linear_357_3557" x1="232.819" y1="113.789" x2="224.86" y2="154.436" gradientUnits="userSpaceOnUse">
<stop stop-color="#F3DDC4"/>
<stop offset="0.378992" stop-color="#F3DDC4"/>
<stop offset="0.46253" stop-color="#F3DDC4"/>
<stop offset="1" stop-color="#74523F"/>
</linearGradient>
<linearGradient id="paint10_linear_357_3557" x1="130.548" y1="212.16" x2="180.849" y2="216.879" gradientUnits="userSpaceOnUse">
<stop stop-color="#D8B697"/>
<stop offset="0.374385" stop-color="#F0D6BD"/>
<stop offset="0.71988" stop-color="#C89E78"/>
<stop offset="0.9381" stop-color="#DFCBB9"/>
</linearGradient>
<linearGradient id="paint11_linear_357_3557" x1="105.365" y1="200.744" x2="127.17" y2="201.825" gradientUnits="userSpaceOnUse">
<stop stop-color="#D8B697"/>
<stop offset="0.374385" stop-color="#F0D6BD"/>
<stop offset="0.71988" stop-color="#C89E78"/>
<stop offset="0.9381" stop-color="#DFCBB9"/>
</linearGradient>
<linearGradient id="paint12_linear_357_3557" x1="205.581" y1="200.744" x2="183.776" y2="201.825" gradientUnits="userSpaceOnUse">
<stop stop-color="#D8B697"/>
<stop offset="0.374385" stop-color="#F0D6BD"/>
<stop offset="0.71988" stop-color="#C89E78"/>
<stop offset="0.9381" stop-color="#DFCBB9"/>
</linearGradient>
<linearGradient id="paint13_linear_357_3557" x1="203.782" y1="204.933" x2="185.936" y2="206.326" gradientUnits="userSpaceOnUse">
<stop stop-color="#D8B697"/>
<stop offset="0.374385" stop-color="#F0D6BD"/>
<stop offset="0.71988" stop-color="#C89E78"/>
<stop offset="0.9381" stop-color="#DFCBB9"/>
</linearGradient>
<linearGradient id="paint14_linear_357_3557" x1="133.374" y1="202.181" x2="173.76" y2="220.085" gradientUnits="userSpaceOnUse">
<stop offset="0.192454" stop-color="#DFCBB9"/>
<stop offset="0.475371" stop-color="#D8B290"/>
<stop offset="0.678187" stop-color="#DEBFA4"/>
<stop offset="0.866423" stop-color="#DFCBB9"/>
</linearGradient>
<linearGradient id="paint15_linear_357_3557" x1="107.421" y1="204.933" x2="125.267" y2="206.326" gradientUnits="userSpaceOnUse">
<stop stop-color="#D8B697"/>
<stop offset="0.374385" stop-color="#F0D6BD"/>
<stop offset="0.71988" stop-color="#C89E78"/>
<stop offset="0.9381" stop-color="#DFCBB9"/>
</linearGradient>
<linearGradient id="paint16_linear_357_3557" x1="128.235" y1="81.9484" x2="179.164" y2="191.367" gradientUnits="userSpaceOnUse">
<stop stop-color="#F1DCC1"/>
<stop offset="1" stop-color="#BD8A65"/>
</linearGradient>
<linearGradient id="paint17_linear_357_3557" x1="127.721" y1="90.74" x2="171.797" y2="178.7" gradientUnits="userSpaceOnUse">
<stop stop-color="#BF8E69"/>
<stop offset="1" stop-color="#E4C196"/>
</linearGradient>
<linearGradient id="paint18_linear_357_3557" x1="133.117" y1="87.6511" x2="180.665" y2="180.159" gradientUnits="userSpaceOnUse">
<stop stop-color="#EBD4B7"/>
<stop offset="1" stop-color="#FFE3CE"/>
</linearGradient>
<radialGradient id="paint19_radial_357_3557" cx="0" cy="0" r="1" gradientUnits="userSpaceOnUse" gradientTransform="translate(155.473 134.316) rotate(90) scale(53.7933 50.1081)">
<stop stop-color="#E3C29C"/>
<stop offset="1" stop-color="#D1A479"/>
</radialGradient>
<linearGradient id="paint20_linear_357_3557" x1="155.473" y1="78.3923" x2="155.473" y2="190.234" gradientUnits="userSpaceOnUse">
<stop stop-color="white"/>
<stop offset="1" stop-color="#F2EDED" stop-opacity="0"/>
</linearGradient>
<linearGradient id="paint21_linear_357_3557" x1="93.6091" y1="88.5113" x2="147.263" y2="189.011" gradientUnits="userSpaceOnUse">
<stop stop-color="white"/>
<stop offset="1" stop-color="#F2EDED" stop-opacity="0"/>
</linearGradient>
<linearGradient id="paint22_linear_357_3557" x1="212.831" y1="88.5114" x2="159.177" y2="189.011" gradientUnits="userSpaceOnUse">
<stop stop-color="white"/>
<stop offset="1" stop-color="#F2EDED" stop-opacity="0"/>
</linearGradient>
<linearGradient id="paint23_linear_357_3557" x1="155.473" y1="154.019" x2="155.215" y2="184.376" gradientUnits="userSpaceOnUse">
<stop offset="0.291667" stop-color="#FFFAF7" stop-opacity="0"/>
<stop offset="1" stop-color="#E4CBAD"/>
</linearGradient>
<linearGradient id="paint24_linear_357_3557" x1="151.12" y1="89.524" x2="181.678" y2="99.5675" gradientUnits="userSpaceOnUse">
<stop offset="0.168737" stop-color="#FFEFDC"/>
<stop offset="0.360439" stop-color="#FFF3E3"/>
<stop offset="0.47754" stop-color="#FFEAD1"/>
<stop offset="0.655872" stop-color="#F0DBC0"/>
<stop offset="0.80404" stop-color="#F0DBC2"/>
</linearGradient>
</defs>
</svg>
