<svg width="902" height="644" viewBox="0 0 902 644" fill="none" xmlns="http://www.w3.org/2000/svg">
<g filter="url(#filter0_d_727_1770)">
<g clip-path="url(#clip0_727_1770)">
<rect x="25" y="5" width="851.4" height="594" rx="29.7" fill="white"/>
<rect x="25" y="131.226" width="848.925" height="341.55" fill="white"/>
<g filter="url(#filter1_f_727_1770)">
<g filter="url(#filter2_i_727_1770)">
<path d="M285.911 364.828H259.995C254.732 364.828 250.401 369.092 250.468 374.355V400.271C250.468 405.534 254.732 409.798 259.995 409.798H261.647C262.77 411.8 264.406 413.467 266.388 414.628C268.369 415.788 270.623 416.399 272.919 416.399C275.215 416.399 277.47 415.788 279.451 414.628C281.432 413.467 283.068 411.8 284.192 409.798H285.911C291.174 409.798 295.437 405.534 295.437 400.271V374.355C295.437 369.092 291.174 364.828 285.911 364.828Z" fill="#9B9B9B"/>
</g>
<g filter="url(#filter3_iii_727_1770)">
<path d="M289.308 370.559C290.907 370.559 292.172 369.36 292.306 367.827C292.772 362.098 295.237 348.174 308.695 333.251C315.116 328.194 320.39 321.832 324.168 314.585C327.947 307.338 330.144 299.372 330.613 291.212C330.746 289.613 330.813 288.547 330.813 287.881V287.215C330.413 255.37 304.631 229.787 272.852 229.787C257.601 229.786 242.965 235.803 232.125 246.531C221.285 257.259 215.116 271.831 214.958 287.082C214.958 287.082 214.891 288.681 215.158 291.346C216.224 308.267 224.485 323.257 237.076 333.184C250.534 348.174 253.199 362.098 253.665 367.827C253.798 369.36 255.064 370.559 256.663 370.559H289.308Z" fill="#EE2FFF"/>
</g>
<path d="M285.747 363.029C287.126 363.029 288.218 362.008 288.333 360.703C288.735 355.822 290.861 343.96 302.468 331.248C308.006 326.94 312.556 321.521 315.815 315.347C319.074 309.174 320.968 302.387 321.373 295.437C321.488 294.075 321.546 293.166 321.546 292.599V292.031C321.201 264.903 298.963 243.11 271.554 243.11C258.399 243.11 245.776 248.236 236.426 257.374C227.077 266.513 221.756 278.927 221.619 291.918C221.619 291.918 221.562 293.28 221.792 295.55C222.711 309.965 229.836 322.735 240.697 331.191C252.304 343.96 254.603 355.822 255.005 360.703C255.12 362.008 256.211 363.029 257.591 363.029H285.747Z" fill="#EE2FFF"/>
<path d="M272.919 287.749C283.712 287.749 292.506 296.477 292.639 307.269V307.802C292.639 308.002 292.639 308.269 292.573 308.668C292.24 314.265 289.508 319.528 285.111 322.992L284.645 323.325L284.245 323.725C276.917 331.853 275.384 352.505 275.118 363.831H270.788C270.454 352.505 268.856 331.853 261.527 323.725L261.127 323.325L260.661 322.992C258.461 321.252 256.657 319.062 255.37 316.569C254.083 314.076 253.343 311.337 253.199 308.535C253.199 308.269 253.133 308.069 253.133 307.935V307.336C253.333 296.543 262.193 287.749 272.919 287.749ZM272.919 281.087C267.437 281.089 262.092 282.799 257.626 285.979C253.16 289.159 249.796 293.651 248.001 298.831C246.206 304.011 246.069 309.621 247.61 314.883C249.15 320.144 252.292 324.795 256.597 328.188C264.592 337.116 264.192 370.56 264.192 370.56H281.78C281.78 370.56 281.247 337.116 289.308 328.255C295.038 323.725 298.835 316.863 299.302 309.068C299.368 308.335 299.368 307.869 299.368 307.536V307.269C299.296 300.301 296.478 293.643 291.526 288.741C286.574 283.839 279.888 281.088 272.919 281.087Z" fill="#858585"/>
<path d="M296.01 383.364C296.445 383.294 296.863 383.139 297.238 382.906C297.613 382.673 297.938 382.368 298.194 382.009C298.45 381.65 298.633 381.243 298.73 380.813C298.828 380.382 298.839 379.937 298.763 379.502C298.688 379.067 298.526 378.652 298.288 378.28C298.05 377.909 297.741 377.588 297.378 377.337C297.015 377.085 296.606 376.909 296.175 376.817C295.743 376.725 295.297 376.72 294.864 376.802L249.961 384.663C249.529 384.739 249.117 384.898 248.747 385.133C248.378 385.367 248.058 385.672 247.806 386.031C247.554 386.389 247.375 386.793 247.28 387.22C247.184 387.648 247.174 388.089 247.249 388.521C247.324 388.952 247.484 389.364 247.718 389.734C247.953 390.104 248.258 390.424 248.616 390.675C248.975 390.927 249.379 391.106 249.806 391.202C250.233 391.297 250.675 391.308 251.107 391.232L296.01 383.364ZM295.676 397.688C296.513 397.501 297.245 397 297.721 396.288C298.197 395.575 298.38 394.707 298.232 393.863C298.085 393.019 297.618 392.265 296.929 391.756C296.239 391.248 295.38 391.024 294.531 391.132L250.227 398.927C249.782 398.986 249.353 399.134 248.966 399.363C248.579 399.592 248.243 399.897 247.977 400.26C247.712 400.622 247.522 401.035 247.42 401.472C247.318 401.91 247.305 402.364 247.383 402.806C247.461 403.249 247.627 403.671 247.873 404.048C248.118 404.424 248.437 404.747 248.81 404.997C249.184 405.247 249.604 405.419 250.045 405.503C250.487 405.586 250.941 405.579 251.38 405.483L295.676 397.688Z" fill="#D3D3D3"/>
<path d="M260.194 252.706C252.799 265.497 256.53 281.486 268.522 288.348C280.514 295.21 296.17 290.48 303.565 277.689C310.96 264.897 307.229 248.908 295.237 242.046C283.245 235.184 267.589 239.914 260.194 252.706Z" fill="#A279B6"/>
<ellipse cx="177.319" cy="203.984" rx="33.3108" ry="6.66217" transform="rotate(42.7243 177.319 203.984)" fill="#B542FC"/>
<ellipse cx="270.236" cy="176.828" rx="33.3108" ry="6.66217" transform="rotate(86.5583 270.236 176.828)" fill="#B542FC"/>
<ellipse cx="360.793" cy="208.173" rx="33.3108" ry="6.66217" transform="rotate(143.872 360.793 208.173)" fill="#B542FC"/>
</g>
<g filter="url(#filter4_i_727_1770)">
<path d="M285.959 369.189H258.715C253.182 369.189 248.63 373.672 248.7 379.205V406.449C248.7 411.982 253.182 416.465 258.715 416.465H260.452C261.633 418.57 263.353 420.322 265.436 421.542C267.518 422.762 269.889 423.405 272.302 423.405C274.716 423.405 277.086 422.762 279.169 421.542C281.251 420.322 282.972 418.57 284.152 416.465H285.959C291.492 416.465 295.975 411.982 295.975 406.449V379.205C295.975 373.672 291.492 369.189 285.959 369.189Z" fill="#9B9B9B"/>
</g>
<g filter="url(#filter5_iii_727_1770)">
<path d="M289.531 375.213C291.212 375.213 292.543 373.953 292.683 372.342C293.173 366.319 295.765 351.681 309.912 335.992C316.663 330.677 322.207 323.989 326.179 316.37C330.152 308.752 332.461 300.377 332.954 291.799C333.095 290.118 333.165 288.997 333.165 288.297V287.597C332.744 254.119 305.64 227.225 272.232 227.225C256.199 227.224 240.813 233.549 229.417 244.827C218.021 256.105 211.536 271.424 211.37 287.457C211.37 287.457 211.3 289.138 211.58 291.939C212.701 309.728 221.385 325.487 234.622 335.922C248.77 351.681 251.571 366.319 252.061 372.342C252.202 373.953 253.532 375.213 255.213 375.213H289.531Z" fill="#EE2FFF"/>
</g>
<path d="M285.788 367.298C287.237 367.298 288.385 366.225 288.506 364.852C288.929 359.721 291.164 347.252 303.366 333.887C309.188 329.359 313.971 323.662 317.397 317.172C320.823 310.682 322.815 303.547 323.24 296.24C323.361 294.808 323.422 293.854 323.422 293.257V292.661C323.059 264.142 299.681 241.231 270.867 241.231C257.038 241.231 243.768 246.619 233.939 256.227C224.109 265.834 218.516 278.884 218.372 292.541C218.372 292.541 218.312 293.973 218.554 296.36C219.52 311.514 227.011 324.938 238.428 333.828C250.63 347.252 253.047 359.721 253.469 364.852C253.59 366.225 254.738 367.298 256.188 367.298H285.788Z" fill="white" fill-opacity="0.15"/>
<path d="M272.302 288.158C283.648 288.158 292.893 297.333 293.033 308.679V309.239C293.033 309.449 293.033 309.729 292.963 310.15C292.613 316.033 289.741 321.566 285.119 325.208L284.629 325.558L284.208 325.978C276.504 334.523 274.894 356.234 274.613 368.141H270.061C269.711 356.234 268.03 334.523 260.326 325.978L259.906 325.558L259.415 325.208C257.102 323.378 255.206 321.076 253.853 318.455C252.5 315.834 251.722 312.955 251.571 310.01C251.571 309.729 251.501 309.519 251.501 309.379V308.749C251.711 297.403 261.026 288.158 272.302 288.158ZM272.302 281.154C266.539 281.156 260.919 282.954 256.225 286.297C251.53 289.64 247.993 294.362 246.106 299.808C244.219 305.253 244.075 311.152 245.695 316.683C247.314 322.214 250.617 327.103 255.143 330.671C263.547 340.056 263.127 375.214 263.127 375.214H281.617C281.617 375.214 281.057 340.056 289.531 330.741C295.555 325.978 299.547 318.764 300.037 310.57C300.107 309.8 300.107 309.309 300.107 308.959V308.679C300.031 301.354 297.069 294.354 291.863 289.201C286.657 284.047 279.628 281.156 272.302 281.154Z" fill="#858585"/>
<path d="M296.577 388.672C297.035 388.599 297.474 388.435 297.868 388.191C298.262 387.946 298.604 387.626 298.873 387.248C299.143 386.87 299.334 386.443 299.437 385.99C299.54 385.538 299.551 385.069 299.472 384.612C299.392 384.155 299.222 383.719 298.972 383.328C298.722 382.937 298.397 382.6 298.015 382.336C297.634 382.072 297.204 381.886 296.75 381.789C296.296 381.693 295.828 381.688 295.372 381.774L248.167 390.038C247.713 390.117 247.28 390.285 246.891 390.531C246.503 390.778 246.166 391.099 245.902 391.475C245.637 391.852 245.449 392.277 245.349 392.726C245.248 393.175 245.237 393.64 245.316 394.093C245.395 394.547 245.563 394.98 245.81 395.369C246.056 395.757 246.377 396.094 246.754 396.358C247.13 396.623 247.555 396.811 248.004 396.911C248.453 397.012 248.918 397.023 249.371 396.944L296.577 388.672ZM296.226 403.73C297.105 403.534 297.875 403.007 298.375 402.258C298.876 401.51 299.068 400.597 298.913 399.71C298.758 398.823 298.267 398.029 297.543 397.495C296.818 396.96 295.915 396.725 295.022 396.839L248.447 405.033C247.979 405.095 247.528 405.251 247.121 405.492C246.715 405.733 246.361 406.053 246.082 406.434C245.802 406.815 245.603 407.249 245.496 407.709C245.388 408.169 245.375 408.646 245.457 409.111C245.539 409.576 245.714 410.02 245.972 410.416C246.23 410.812 246.565 411.152 246.957 411.415C247.35 411.677 247.792 411.858 248.256 411.946C248.72 412.033 249.197 412.026 249.659 411.925L296.226 403.73Z" fill="#D3D3D3"/>
<path d="M258.925 251.319C251.151 264.766 255.073 281.575 267.68 288.789C280.286 296.002 296.745 291.03 304.519 277.583C312.294 264.136 308.371 247.327 295.765 240.113C283.158 232.899 266.699 237.872 258.925 251.319Z" fill="#A279B6"/>
<ellipse cx="171.802" cy="200.098" rx="35.0186" ry="7.00372" transform="rotate(42.7243 171.802 200.098)" fill="#B542FC"/>
<ellipse cx="269.482" cy="171.552" rx="35.0186" ry="7.00372" transform="rotate(86.5583 269.482 171.552)" fill="#B542FC"/>
<ellipse cx="364.682" cy="204.501" rx="35.0186" ry="7.00372" transform="rotate(143.872 364.682 204.501)" fill="#B542FC"/>
<path d="M406.023 404.676C398.746 412.464 392.506 416.358 387.304 416.358C384.591 416.358 382.053 415.129 379.691 412.671C377.329 410.214 376.244 406.08 376.435 400.271C370.85 410.996 364.498 416.358 357.38 416.358C353.933 416.358 351.156 415.033 349.05 412.384C346.975 409.735 345.938 406.176 345.938 401.708C345.938 396.888 347.885 388.924 351.779 377.817C355.066 368.305 356.71 361.986 356.71 358.858C356.71 356.623 356.184 354.836 355.13 353.495C354.109 352.123 352.768 351.437 351.109 351.437C348.587 351.437 346.145 352.937 343.783 355.937C341.421 358.906 340.24 362.018 340.24 365.273C340.24 368.146 341.31 370.556 343.448 372.503C344.246 373.205 344.645 373.795 344.645 374.274C344.645 375.327 343.943 376.62 342.539 378.152C341.134 379.684 339.873 380.45 338.756 380.45C337.448 380.45 336.203 379.509 335.022 377.625C333.841 375.742 333.25 373.684 333.25 371.449C333.25 365.353 335.453 359.767 339.857 354.692C344.262 349.586 349.066 347.032 354.268 347.032C358.354 347.032 361.673 348.628 364.227 351.82C366.78 354.98 368.057 359.129 368.057 364.268C368.057 370.3 366.174 378.599 362.408 389.164C359.79 396.473 358.482 401.404 358.482 403.958C358.482 405.618 358.849 406.926 359.583 407.884C360.349 408.809 361.386 409.272 362.695 409.272C365.152 409.272 367.498 407.612 369.733 404.293C371.967 400.974 373.738 397.494 375.047 393.856C376.388 390.217 377.999 384.903 379.883 377.913L384.048 363.023C385.197 359.065 386.202 355.825 387.064 353.304C387.926 350.751 388.469 349.314 388.692 348.995C388.947 348.644 389.346 348.405 389.889 348.277C390.463 348.149 391.533 347.99 393.097 347.798L399.943 347.032C400.933 347.032 401.363 347.255 401.236 347.702L398.986 355.841C396.879 363.342 394.629 372.231 392.235 382.509C389.873 392.787 388.692 399.33 388.692 402.139C388.692 404.245 389.091 405.937 389.889 407.213C390.687 408.458 391.756 409.081 393.097 409.081C394.597 409.081 396.225 408.426 397.98 407.118C399.736 405.809 402.417 403.16 406.023 399.17V404.676ZM410.585 393.712C410.367 393.329 410.257 392.686 410.257 391.783C410.257 390.881 410.695 389.978 411.57 389.075C412.473 388.172 413.8 387.721 415.551 387.721H434.551C434.77 388.104 434.88 388.747 434.88 389.649C434.88 390.552 434.428 391.455 433.525 392.358C432.65 393.261 431.337 393.712 429.586 393.712H410.585ZM452.197 414.272C450.337 416.05 448.545 416.939 446.822 416.939C445.864 416.939 445.207 416.584 444.852 415.872C445.481 415.243 445.796 414.614 445.796 413.985C445.796 413.355 445.7 412.877 445.508 412.548L444.975 411.605L445.631 412.836C444.975 412.535 444.469 412.029 444.113 411.317C443.757 410.606 443.58 409.744 443.58 408.732C443.58 407.692 444.154 406.516 445.303 405.203C444.756 404.437 444.482 403.589 444.482 402.658C444.482 401.728 444.633 400.962 444.934 400.36C445.262 399.731 445.673 399.17 446.165 398.678C447.259 397.638 448.422 397.118 449.653 397.118C450.474 397.118 451.062 397.406 451.418 397.98C450.679 398.773 450.31 400.032 450.31 401.756C450.31 403.452 450.597 404.902 451.172 406.105C451.773 407.309 452.58 408.335 453.593 409.183C455.727 410.989 458.353 411.892 461.472 411.892C464.946 411.892 467.354 410.62 468.695 408.075C469.078 407.309 469.269 406.543 469.269 405.777C469.269 404.984 469.091 404.286 468.736 403.684C468.38 403.055 467.915 402.453 467.34 401.879C466.383 400.948 464.919 399.881 462.949 398.678C461.062 397.337 458.832 396.667 456.26 396.667C454.591 396.667 453.47 396.804 452.895 397.077C453.251 396.256 453.429 395.436 453.429 394.615C453.429 393.794 452.881 392.905 451.787 391.948C450.693 390.963 449.708 389.978 448.832 388.993C447.984 388.008 447.3 387.023 446.781 386.038C445.741 384.178 445.221 382.208 445.221 380.129C445.221 378.05 445.645 376.217 446.493 374.63C447.369 373.016 448.586 371.634 450.146 370.485C453.401 368.05 457.573 366.833 462.662 366.833C465.124 366.833 466.807 366.942 467.71 367.161C468.64 367.38 469.378 367.585 469.926 367.776C470.664 368.05 471.567 368.187 472.634 368.187C473.701 368.187 474.44 367.954 474.85 367.489C475.288 367.024 475.507 366.6 475.507 366.217C475.507 365.807 475.466 365.492 475.384 365.273C475.548 365.218 475.794 365.191 476.122 365.191C476.451 365.191 476.82 365.287 477.23 365.478C477.668 365.67 478.051 365.93 478.379 366.258C479.036 366.997 479.364 367.79 479.364 368.638C479.364 369.459 479.2 370.088 478.872 370.526C479.638 371.237 480.021 372.25 480.021 373.563C480.021 374.876 479.474 375.984 478.379 376.887C478.626 377.379 478.749 377.981 478.749 378.692C478.749 379.404 478.366 380.088 477.6 380.744C476.834 381.401 476.109 381.729 475.425 381.729C474.248 381.729 473.455 381.579 473.045 381.278C473.4 380.402 473.578 379.458 473.578 378.446C473.578 377.407 473.304 376.422 472.757 375.492C472.21 374.561 471.512 373.809 470.664 373.234C469.078 372.14 467.19 371.593 465.001 371.593C462.238 371.593 460.378 372.468 459.42 374.219C459.119 374.767 458.969 375.368 458.969 376.025C458.969 376.654 459.051 377.242 459.215 377.79C459.406 378.309 459.707 378.843 460.118 379.39C460.911 380.457 462.033 381.469 463.483 382.427C465.371 383.658 466.684 384.274 467.422 384.274C469.009 384.274 470.391 383.891 471.567 383.124C471.239 384.438 471.075 385.354 471.075 385.874C471.075 386.667 471.704 387.584 472.962 388.624C476.492 391.058 478.899 393.288 480.185 395.313C481.416 397.282 482.032 399.471 482.032 401.879C482.032 404.286 481.498 406.352 480.431 408.075C479.364 409.771 477.914 411.235 476.081 412.466C472.278 415.011 467.669 416.283 462.252 416.283C458.558 416.283 455.207 415.612 452.197 414.272ZM450.761 376.682C449.968 377.065 449.571 378.132 449.571 379.883C449.571 381.606 450.132 383.261 451.254 384.848C452.375 386.407 454.154 388.172 456.588 390.142C457.163 390.58 457.45 391.004 457.45 391.414C457.45 392.043 457.396 392.549 457.286 392.932C457.614 392.85 458.189 392.768 459.01 392.686C461.007 392.495 463.483 393.425 466.437 395.477C471.143 398.377 473.496 401.427 473.496 404.628C473.496 405.832 473.332 406.735 473.003 407.337C473.988 407.145 474.741 406.311 475.261 404.833C475.397 404.396 475.466 403.944 475.466 403.479C475.466 401.263 474.262 399.02 471.854 396.749C469.474 394.451 466.041 392.235 461.554 390.101C454.113 386.325 450.515 381.852 450.761 376.682ZM495.533 414.764C494.275 415.64 492.838 416.078 491.224 416.078C489.61 416.078 488.434 415.708 487.695 414.97C486.984 414.204 486.628 413.479 486.628 412.795C486.628 411.892 486.778 411.235 487.079 410.825C487.681 411.29 488.447 411.522 489.377 411.522C491.128 411.522 492.264 410.674 492.784 408.978V396.174C492.784 394.971 492.524 394.095 492.004 393.548C491.265 392.7 489.856 391.77 487.777 390.757C489.692 389.882 490.909 389.184 491.429 388.665C492.332 387.762 492.784 386.654 492.784 385.341V379.349C492.784 377.024 491.99 375.765 490.403 375.574C489.938 375.519 489.35 375.492 488.639 375.492C487.927 375.492 487.271 375.724 486.669 376.189C486.286 375.669 486.094 375.136 486.094 374.589C486.094 374.014 486.231 373.385 486.505 372.701C486.806 371.99 487.243 371.319 487.818 370.69C489.268 369.213 490.937 368.474 492.825 368.474C494.74 368.474 496.326 368.775 497.585 369.377C499.09 367.681 500.704 366.833 502.427 366.833C505.245 366.833 506.654 368.31 506.654 371.265L506.613 374.671C508.911 371.005 512.112 368.584 516.216 367.407C517.556 367.024 518.938 366.833 520.361 366.833C523.589 366.833 526.27 367.612 528.404 369.172C530.538 370.731 532.07 372.947 533 375.82C535.052 371.579 538.376 368.802 542.972 367.489C544.477 367.051 546.173 366.833 548.061 366.833C549.976 366.833 551.768 367.202 553.437 367.941C555.133 368.652 556.569 369.678 557.746 371.018C560.126 373.809 561.316 377.667 561.316 382.591L561.193 385.341C561.193 386.654 561.48 387.598 562.055 388.172C562.903 389.02 564.284 389.882 566.2 390.757C564.12 391.77 562.834 392.549 562.342 393.097C561.576 393.945 561.193 394.971 561.193 396.174V408.978C561.713 410.674 562.848 411.522 564.599 411.522C565.256 411.522 565.885 411.29 566.487 410.825C566.651 411.044 566.829 411.263 567.02 411.481C567.239 411.673 567.349 412.111 567.349 412.795C567.349 413.479 566.979 414.204 566.241 414.97C565.529 415.708 564.38 416.078 562.793 416.078C561.234 416.078 559.784 415.64 558.443 414.764C557.212 415.64 555.831 416.078 554.299 416.078C552.794 416.078 551.467 415.667 550.318 414.846C549.251 415.667 548.047 416.078 546.707 416.078C545.394 416.078 544.34 415.736 543.547 415.052C542.753 414.368 542.357 413.383 542.357 412.097C542.357 411.495 542.562 411.016 542.972 410.661C543.602 411.153 544.231 411.399 544.86 411.399C546.064 411.399 546.926 410.729 547.445 409.388V384.93C547.445 378.501 545.106 375.286 540.428 375.286C539.087 375.286 537.774 376.066 536.488 377.625C535.203 379.158 534.368 381.018 533.985 383.207L533.862 409.388C534.382 410.729 535.244 411.399 536.447 411.399C537.077 411.399 537.706 411.153 538.335 410.661C538.745 411.016 538.951 411.673 538.951 412.63C538.951 413.561 538.554 414.368 537.761 415.052C536.967 415.736 535.9 416.078 534.56 416.078C533.219 416.078 532.015 415.667 530.948 414.846C529.772 415.667 528.431 416.078 526.927 416.078C525.449 416.078 524.136 415.667 522.987 414.846C521.92 415.667 520.716 416.078 519.376 416.078C518.063 416.078 517.009 415.736 516.216 415.052C515.423 414.368 515.026 413.383 515.026 412.097C515.026 411.495 515.231 411.016 515.641 410.661C516.271 411.153 516.9 411.399 517.529 411.399C518.733 411.399 519.595 410.729 520.114 409.388V384.93C520.114 379.814 518.87 376.764 516.38 375.779C515.587 375.45 514.711 375.286 513.754 375.286C511.921 375.286 510.334 376.08 508.993 377.667C507.735 379.144 506.941 381.004 506.613 383.248L506.531 409.388C507.051 410.729 507.913 411.399 509.116 411.399C509.746 411.399 510.375 411.153 511.004 410.661C511.497 411.071 511.743 411.741 511.743 412.671C511.743 413.574 511.319 414.368 510.471 415.052C509.65 415.736 508.556 416.078 507.188 416.078C505.847 416.078 504.657 415.681 503.617 414.887C502.523 415.681 501.224 416.078 499.719 416.078C498.214 416.078 496.819 415.64 495.533 414.764ZM550.154 377.051C550.975 379.048 551.385 382.947 551.385 388.747V404.382C552.753 403.862 553.505 402.07 553.642 399.006C553.806 395.942 553.888 393.233 553.888 390.881C553.888 388.5 553.82 386.517 553.683 384.93C553.546 383.343 553.327 382.016 553.027 380.95C552.479 379.034 551.522 377.735 550.154 377.051ZM522.823 377.051C523.644 379.048 524.054 382.947 524.054 388.747V404.382C525.422 403.862 526.174 402.07 526.311 399.006C526.475 395.942 526.557 393.233 526.557 390.881C526.557 388.5 526.489 386.517 526.352 384.93C526.215 383.343 525.997 382.016 525.696 380.95C525.148 379.034 524.191 377.735 522.823 377.051ZM496.723 404.382C498.009 403.561 498.734 401.851 498.898 399.252C499.008 397.282 499.062 395.518 499.062 393.958V388.747C499.062 384.698 498.953 382.099 498.734 380.95C498.351 378.98 497.681 377.68 496.723 377.051V379.718C496.723 384.342 496.614 387.064 496.395 387.885C496.203 388.678 495.875 389.28 495.41 389.69C494.972 390.101 494.316 390.457 493.44 390.757C495.082 391.332 496.012 392.016 496.231 392.809C496.559 394.123 496.723 397.091 496.723 401.714V404.382ZM600.097 411.358C597.607 414.641 593.872 416.283 588.893 416.283C582.82 416.283 578.265 414.463 575.228 410.825C573.915 409.265 573.012 407.528 572.519 405.613C572.246 404.464 571.767 403.589 571.083 402.987C570.399 402.357 569.551 401.797 568.539 401.304C570.508 400.401 571.917 398.705 572.766 396.215C573.668 393.589 575.173 391.688 577.28 390.511C579.55 389.28 582.054 388.637 584.79 388.582C587.525 388.5 589.55 388.405 590.863 388.295C592.176 388.186 593.339 388.008 594.351 387.762C596.239 387.324 597.716 386.517 598.783 385.341V379.185C598.783 376.476 598.222 374.493 597.101 373.234C596.006 371.976 594.324 371.347 592.053 371.347C589.81 371.347 588.141 371.771 587.047 372.619C585.98 373.44 585.446 374.548 585.446 375.943C585.446 378.077 586.54 379.117 588.729 379.062C588.291 381.196 587.142 382.263 585.282 382.263C584.735 382.263 584.201 382.167 583.682 381.975V382.099C583.682 382.81 584.01 383.261 584.666 383.453C583.982 384.492 582.833 384.999 581.219 384.971C579.605 384.944 578.347 384.082 577.444 382.386C577.033 382.495 576.555 382.55 576.008 382.55C575.488 382.55 574.9 382.372 574.243 382.016C573.614 381.661 573.108 381.168 572.725 380.539C574.092 379.718 574.927 378.446 575.228 376.723C575.556 374.616 577.239 372.482 580.275 370.321C583.941 367.722 588.62 366.422 594.31 366.422C603.749 366.422 609.508 369.322 611.587 375.122C612.271 377.065 612.613 379.363 612.613 382.016V385.341C612.613 386.681 612.941 387.775 613.598 388.624C614.282 389.472 615.431 390.169 617.045 390.716C615.321 391.51 614.213 392.221 613.721 392.85C612.982 393.808 612.613 394.902 612.613 396.133V408.445C613.406 410.496 614.542 411.522 616.019 411.522C616.949 411.522 617.715 411.29 618.317 410.825C618.7 411.345 618.892 412.001 618.892 412.795C618.892 413.561 618.495 414.299 617.702 415.011C616.936 415.722 615.773 416.078 614.213 416.078C612.654 416.078 611.204 415.64 609.863 414.764C608.687 415.64 607.634 416.078 606.704 416.078C605.801 416.078 605.007 415.982 604.323 415.79C603.667 415.626 603.051 415.353 602.477 414.97C601.191 414.121 600.397 412.918 600.097 411.358ZM602.682 404.382C604.269 403.753 605.103 400.73 605.185 395.313C605.185 394.164 605.185 392.85 605.185 391.373C605.185 389.896 605.171 388.637 605.144 387.598C605.144 386.531 605.13 385.518 605.103 384.561C604.994 381.114 604.679 379.062 604.159 378.405C603.639 377.721 603.147 377.27 602.682 377.051V404.382ZM587.539 401.468C587.539 402.617 587.662 403.739 587.908 404.833C588.155 405.928 588.524 406.885 589.016 407.706C590.111 409.43 591.656 410.291 593.654 410.291C595.158 410.291 596.403 409.676 597.388 408.445C598.318 407.241 598.783 405.695 598.783 403.807V390.429C597.032 391.441 594.789 392.139 592.053 392.522C589.044 392.987 587.539 395.969 587.539 401.468ZM581.383 410.702C581.657 410.51 581.794 410.264 581.794 409.963C581.794 409.553 581.602 408.978 581.219 408.239C579.851 405.722 579.167 403.657 579.167 402.043C579.167 400.429 579.222 399.266 579.332 398.555C579.468 397.843 579.632 397.241 579.824 396.749C580.043 396.229 580.275 395.778 580.522 395.395C580.795 395.012 581.028 394.67 581.219 394.369C581.575 393.74 581.753 393.315 581.753 393.097C581.753 392.85 581.63 392.645 581.383 392.481C580.262 393.001 579.441 393.616 578.921 394.328C577.991 395.586 577.307 397.214 576.869 399.211C576.76 399.786 575.802 400.483 573.997 401.304C575.748 402.097 576.705 402.795 576.869 403.397C577.799 406.653 579.304 409.088 581.383 410.702ZM631.654 414.764C630.396 415.64 628.96 416.078 627.345 416.078C625.731 416.078 624.555 415.708 623.816 414.97C623.105 414.204 622.749 413.479 622.749 412.795C622.749 411.892 622.9 411.235 623.201 410.825C623.802 411.29 624.569 411.522 625.499 411.522C627.25 411.522 628.385 410.674 628.905 408.978V396.544C628.905 395.285 628.659 394.355 628.166 393.753C627.291 392.686 625.868 391.674 623.898 390.716C627.236 389.184 628.905 386.832 628.905 383.658V379.349C628.905 377.024 628.111 375.765 626.525 375.574C626.06 375.519 625.471 375.492 624.76 375.492C624.049 375.492 623.392 375.724 622.79 376.189C622.407 375.669 622.216 375.136 622.216 374.589C622.216 374.014 622.352 373.385 622.626 372.701C622.927 371.99 623.378 371.319 623.98 370.69C625.403 369.213 627.058 368.474 628.946 368.474C630.861 368.474 632.448 368.775 633.706 369.377C635.211 367.681 636.825 366.833 638.549 366.833C641.23 366.833 642.57 368.31 642.57 371.265V376.887C645.306 370.157 649.656 366.792 655.62 366.792C658.301 366.792 660.476 367.612 662.145 369.254C663.869 370.923 664.731 373.234 664.731 376.189V376.764C664.731 376.955 664.703 377.352 664.648 377.954C664.594 378.528 664.607 379.117 664.689 379.718C664.799 380.32 664.963 380.813 665.182 381.196C665.483 381.77 666.044 382.222 666.864 382.55C666.673 383.289 666.222 383.959 665.51 384.561C664.826 385.135 664.06 385.423 663.212 385.423H662.432C661.365 386.763 659.874 387.707 657.959 388.254C657.412 388.418 656.81 388.5 656.154 388.5C655.524 388.5 654.964 388.364 654.471 388.09C654.006 387.789 653.746 387.474 653.691 387.146C654.211 386.9 654.471 386.407 654.471 385.669V385.464C654.252 385.518 654.061 385.546 653.897 385.546H653.486C652.583 385.546 651.763 385.204 651.024 384.52C650.313 383.836 649.848 382.974 649.629 381.934C651.106 381.989 652.392 381.442 653.486 380.293C654.471 379.281 654.964 378.241 654.964 377.174C654.964 374.657 653.869 373.399 651.681 373.399C649.793 373.399 647.891 374.903 645.976 377.913C644.171 380.676 643.035 383.535 642.57 386.49V408.691C642.871 409.648 643.336 410.36 643.966 410.825C644.595 411.29 645.457 411.522 646.551 411.522C647.645 411.522 648.493 411.29 649.095 410.825C649.396 411.235 649.547 411.837 649.547 412.63C649.547 413.424 649.177 414.204 648.439 414.97C647.727 415.708 646.51 416.078 644.786 416.078C643.09 416.078 641.462 415.612 639.903 414.682C638.809 415.612 637.482 416.078 635.922 416.078C634.363 416.078 632.94 415.64 631.654 414.764ZM635.184 395.313C635.211 394.382 635.225 393.603 635.225 392.973C635.252 392.344 635.266 391.838 635.266 391.455V390.347C635.266 389.937 635.252 389.417 635.225 388.788C635.225 388.131 635.211 387.406 635.184 386.613C635.184 385.792 635.17 384.999 635.143 384.233C634.978 381.387 634.664 379.568 634.199 378.775C633.761 377.954 633.309 377.393 632.844 377.092V379.759C632.844 384.356 632.735 387.064 632.516 387.885C632.325 388.678 631.996 389.28 631.531 389.69C631.093 390.074 630.437 390.415 629.561 390.716C631.203 391.291 632.133 391.989 632.352 392.809C632.68 394.123 632.844 397.077 632.844 401.673V404.341C634.103 403.52 634.814 401.851 634.978 399.334C635.115 397.556 635.184 396.215 635.184 395.313ZM695.714 409.265C696.234 408.718 696.644 408.034 696.945 407.213C697.246 406.365 697.396 405.49 697.396 404.587C697.396 403.657 697.342 402.809 697.232 402.043C697.424 401.632 697.944 401.318 698.792 401.099C699.64 400.853 700.201 400.73 700.474 400.73C701.514 400.73 702.348 401.126 702.977 401.92C703.607 402.686 703.921 403.766 703.921 405.162C703.921 406.53 703.511 407.884 702.69 409.224C701.897 410.565 700.83 411.755 699.489 412.795C696.507 415.12 693.033 416.283 689.066 416.283C681.515 416.283 676.508 413.424 674.046 407.706C673.143 405.599 672.692 402.959 672.692 399.786V394.779C672.692 393.493 671.283 392.139 668.465 390.716C671.283 389.102 672.692 386.927 672.692 384.191V379.349C672.692 376.23 671.42 374.671 668.875 374.671C667.945 374.671 667.179 374.903 666.577 375.368C666.194 374.849 666.003 374.315 666.003 373.768C666.003 373.193 666.098 372.578 666.29 371.921C666.509 371.237 666.878 370.622 667.398 370.075C668.711 368.652 670.749 368.16 673.513 368.597V367.284C673.513 364.411 674.238 361.881 675.688 359.692C676.973 357.722 678.109 356.737 679.094 356.737C680.106 356.737 680.886 357.079 681.433 357.763C681.898 355.602 682.513 354.043 683.279 353.085C684.045 352.128 685.14 351.649 686.562 351.649V368.761H699.9C700.119 369.199 700.228 369.938 700.228 370.977C700.228 371.99 699.831 372.81 699.038 373.44C698.244 374.042 697.287 374.342 696.165 374.342H686.562V402.125C686.562 406.885 687.643 409.676 689.804 410.496C690.434 410.715 691.104 410.825 691.815 410.825C692.554 410.825 693.252 410.702 693.908 410.455C694.592 410.182 695.194 409.785 695.714 409.265ZM676.631 404.382C677.917 403.561 678.642 401.851 678.806 399.252C678.916 397.392 678.971 395.942 678.971 394.902C678.998 393.863 679.012 393.028 679.012 392.399C679.039 391.742 679.053 391.236 679.053 390.881V389.239C679.053 388.446 679.039 387.433 679.012 386.202C679.012 384.944 678.998 383.59 678.971 382.14C678.971 380.662 678.943 379.253 678.888 377.913C678.806 374.684 678.683 372.715 678.519 372.003C678.191 370.417 677.562 369.322 676.631 368.72V381.524C676.631 385.327 676.563 387.338 676.426 387.557C676.317 387.775 676.221 388.035 676.139 388.336C675.893 389.157 674.963 389.841 673.348 390.388C674.99 390.963 675.92 391.66 676.139 392.481C676.467 393.794 676.631 396.872 676.631 401.714V404.382Z" fill="#5508B7"/>
<rect x="24.5249" y="5" width="851.4" height="594" rx="29.7" fill="black" fill-opacity="0.17"/>
<path d="M514.085 281.669C528.314 288.898 528.588 309.124 514.56 316.729L427.775 363.778C414.686 370.874 398.739 361.524 398.537 346.635L397.293 254.865C397.091 239.975 412.779 230.204 426.056 236.949L514.085 281.669Z" fill="#161414"/>
</g>
</g>
<defs>
<filter id="filter0_d_727_1770" x="0.249992" y="0.0499935" width="900.9" height="643.5" filterUnits="userSpaceOnUse" color-interpolation-filters="sRGB">
<feFlood flood-opacity="0" result="BackgroundImageFix"/>
<feColorMatrix in="SourceAlpha" type="matrix" values="0 0 0 0 0 0 0 0 0 0 0 0 0 0 0 0 0 0 127 0" result="hardAlpha"/>
<feOffset dy="19.8"/>
<feGaussianBlur stdDeviation="12.375"/>
<feComposite in2="hardAlpha" operator="out"/>
<feColorMatrix type="matrix" values="0 0 0 0 0 0 0 0 0 0 0 0 0 0 0 0 0 0 0.2 0"/>
<feBlend mode="normal" in2="BackgroundImageFix" result="effect1_dropShadow_727_1770"/>
<feBlend mode="normal" in="SourceGraphic" in2="effect1_dropShadow_727_1770" result="shape"/>
</filter>
<filter id="filter1_f_727_1770" x="12.3552" y="3.50069" width="515.706" height="552.973" filterUnits="userSpaceOnUse" color-interpolation-filters="sRGB">
<feFlood flood-opacity="0" result="BackgroundImageFix"/>
<feBlend mode="normal" in="SourceGraphic" in2="BackgroundImageFix" result="shape"/>
<feGaussianBlur stdDeviation="70.0373" result="effect1_foregroundBlur_727_1770"/>
</filter>
<filter id="filter2_i_727_1770" x="250.467" y="364.828" width="72.9852" height="79.5862" filterUnits="userSpaceOnUse" color-interpolation-filters="sRGB">
<feFlood flood-opacity="0" result="BackgroundImageFix"/>
<feBlend mode="normal" in="SourceGraphic" in2="BackgroundImageFix" result="shape"/>
<feColorMatrix in="SourceAlpha" type="matrix" values="0 0 0 0 0 0 0 0 0 0 0 0 0 0 0 0 0 0 127 0" result="hardAlpha"/>
<feOffset dx="28.0149" dy="28.0149"/>
<feGaussianBlur stdDeviation="14.0075"/>
<feComposite in2="hardAlpha" operator="arithmetic" k2="-1" k3="1"/>
<feColorMatrix type="matrix" values="0 0 0 0 0 0 0 0 0 0 0 0 0 0 0 0 0 0 0.25 0"/>
<feBlend mode="normal" in2="shape" result="effect1_innerShadow_727_1770"/>
</filter>
<filter id="filter3_iii_727_1770" x="207.947" y="215.78" width="136.874" height="175.79" filterUnits="userSpaceOnUse" color-interpolation-filters="sRGB">
<feFlood flood-opacity="0" result="BackgroundImageFix"/>
<feBlend mode="normal" in="SourceGraphic" in2="BackgroundImageFix" result="shape"/>
<feColorMatrix in="SourceAlpha" type="matrix" values="0 0 0 0 0 0 0 0 0 0 0 0 0 0 0 0 0 0 127 0" result="hardAlpha"/>
<feOffset dx="14.0075" dy="28.0149"/>
<feGaussianBlur stdDeviation="10.5056"/>
<feComposite in2="hardAlpha" operator="arithmetic" k2="-1" k3="1"/>
<feColorMatrix type="matrix" values="0 0 0 0 1 0 0 0 0 1 0 0 0 0 1 0 0 0 0.45 0"/>
<feBlend mode="normal" in2="shape" result="effect1_innerShadow_727_1770"/>
<feColorMatrix in="SourceAlpha" type="matrix" values="0 0 0 0 0 0 0 0 0 0 0 0 0 0 0 0 0 0 127 0" result="hardAlpha"/>
<feOffset dy="-14.0075"/>
<feGaussianBlur stdDeviation="21.0112"/>
<feComposite in2="hardAlpha" operator="arithmetic" k2="-1" k3="1"/>
<feColorMatrix type="matrix" values="0 0 0 0 0 0 0 0 0 0 0 0 0 0 0 0 0 0 0.25 0"/>
<feBlend mode="normal" in2="effect1_innerShadow_727_1770" result="effect2_innerShadow_727_1770"/>
<feColorMatrix in="SourceAlpha" type="matrix" values="0 0 0 0 0 0 0 0 0 0 0 0 0 0 0 0 0 0 127 0" result="hardAlpha"/>
<feOffset dx="-7.00373" dy="-14.0075"/>
<feGaussianBlur stdDeviation="14.0075"/>
<feComposite in2="hardAlpha" operator="arithmetic" k2="-1" k3="1"/>
<feColorMatrix type="matrix" values="0 0 0 0 0 0 0 0 0 0 0 0 0 0 0 0 0 0 0.03 0"/>
<feBlend mode="normal" in2="effect2_innerShadow_727_1770" result="effect3_innerShadow_727_1770"/>
</filter>
<filter id="filter4_i_727_1770" x="248.699" y="369.189" width="75.2908" height="82.2297" filterUnits="userSpaceOnUse" color-interpolation-filters="sRGB">
<feFlood flood-opacity="0" result="BackgroundImageFix"/>
<feBlend mode="normal" in="SourceGraphic" in2="BackgroundImageFix" result="shape"/>
<feColorMatrix in="SourceAlpha" type="matrix" values="0 0 0 0 0 0 0 0 0 0 0 0 0 0 0 0 0 0 127 0" result="hardAlpha"/>
<feOffset dx="28.0149" dy="28.0149"/>
<feGaussianBlur stdDeviation="14.0075"/>
<feComposite in2="hardAlpha" operator="arithmetic" k2="-1" k3="1"/>
<feColorMatrix type="matrix" values="0 0 0 0 0 0 0 0 0 0 0 0 0 0 0 0 0 0 0.25 0"/>
<feBlend mode="normal" in2="shape" result="effect1_innerShadow_727_1770"/>
</filter>
<filter id="filter5_iii_727_1770" x="204.358" y="213.217" width="142.814" height="183.007" filterUnits="userSpaceOnUse" color-interpolation-filters="sRGB">
<feFlood flood-opacity="0" result="BackgroundImageFix"/>
<feBlend mode="normal" in="SourceGraphic" in2="BackgroundImageFix" result="shape"/>
<feColorMatrix in="SourceAlpha" type="matrix" values="0 0 0 0 0 0 0 0 0 0 0 0 0 0 0 0 0 0 127 0" result="hardAlpha"/>
<feOffset dx="14.0075" dy="28.0149"/>
<feGaussianBlur stdDeviation="10.5056"/>
<feComposite in2="hardAlpha" operator="arithmetic" k2="-1" k3="1"/>
<feColorMatrix type="matrix" values="0 0 0 0 1 0 0 0 0 1 0 0 0 0 1 0 0 0 0.45 0"/>
<feBlend mode="normal" in2="shape" result="effect1_innerShadow_727_1770"/>
<feColorMatrix in="SourceAlpha" type="matrix" values="0 0 0 0 0 0 0 0 0 0 0 0 0 0 0 0 0 0 127 0" result="hardAlpha"/>
<feOffset dy="-14.0075"/>
<feGaussianBlur stdDeviation="21.0112"/>
<feComposite in2="hardAlpha" operator="arithmetic" k2="-1" k3="1"/>
<feColorMatrix type="matrix" values="0 0 0 0 0 0 0 0 0 0 0 0 0 0 0 0 0 0 0.25 0"/>
<feBlend mode="normal" in2="effect1_innerShadow_727_1770" result="effect2_innerShadow_727_1770"/>
<feColorMatrix in="SourceAlpha" type="matrix" values="0 0 0 0 0 0 0 0 0 0 0 0 0 0 0 0 0 0 127 0" result="hardAlpha"/>
<feOffset dx="-7.00373" dy="-14.0075"/>
<feGaussianBlur stdDeviation="14.0075"/>
<feComposite in2="hardAlpha" operator="arithmetic" k2="-1" k3="1"/>
<feColorMatrix type="matrix" values="0 0 0 0 0 0 0 0 0 0 0 0 0 0 0 0 0 0 0.03 0"/>
<feBlend mode="normal" in2="effect2_innerShadow_727_1770" result="effect3_innerShadow_727_1770"/>
</filter>
<clipPath id="clip0_727_1770">
<rect x="25" y="5" width="851.4" height="594" rx="29.7" fill="white"/>
</clipPath>
</defs>
</svg>
