<svg width="902" height="644" viewBox="0 0 902 644" fill="none" xmlns="http://www.w3.org/2000/svg">
<g filter="url(#filter0_d_340_1483)">
<g clip-path="url(#clip0_340_1483)">
<rect x="25" y="5" width="851.4" height="594" rx="29.7" fill="white"/>
<rect x="25" y="131.225" width="848.925" height="341.55" fill="white"/>
<g filter="url(#filter1_f_340_1483)">
<g filter="url(#filter2_i_340_1483)">
<path d="M285.911 364.827H259.995C254.732 364.827 250.401 369.091 250.468 374.354V400.27C250.468 405.533 254.732 409.797 259.995 409.797H261.647C262.77 411.799 264.407 413.466 266.388 414.627C268.369 415.787 270.624 416.399 272.92 416.399C275.216 416.399 277.47 415.787 279.451 414.627C281.432 413.466 283.069 411.799 284.192 409.797H285.911C291.174 409.797 295.438 405.533 295.438 400.27V374.354C295.438 369.091 291.174 364.827 285.911 364.827Z" fill="#9B9B9B"/>
</g>
<g filter="url(#filter3_iii_340_1483)">
<path d="M289.308 370.558C290.907 370.558 292.173 369.359 292.306 367.827C292.772 362.097 295.237 348.173 308.695 333.25C315.116 328.194 320.39 321.832 324.169 314.585C327.947 307.338 330.144 299.371 330.613 291.212C330.747 289.613 330.813 288.547 330.813 287.881V287.215C330.413 255.369 304.631 229.787 272.852 229.787C257.601 229.786 242.966 235.803 232.125 246.531C221.285 257.259 215.116 271.831 214.958 287.081C214.958 287.081 214.891 288.68 215.158 291.345C216.224 308.267 224.485 323.257 237.076 333.183C250.534 348.173 253.199 362.097 253.665 367.827C253.799 369.359 255.064 370.558 256.663 370.558H289.308Z" fill="#EE2FFF"/>
</g>
<path d="M285.747 363.029C287.126 363.029 288.218 362.008 288.333 360.703C288.735 355.822 290.861 343.96 302.468 331.248C308.007 326.94 312.556 321.521 315.815 315.347C319.074 309.174 320.969 302.387 321.373 295.437C321.488 294.075 321.546 293.166 321.546 292.599V292.031C321.201 264.903 298.963 243.11 271.554 243.11C258.4 243.11 245.776 248.236 236.427 257.374C227.077 266.513 221.756 278.927 221.62 291.918C221.62 291.918 221.562 293.28 221.792 295.55C222.711 309.965 229.837 322.735 240.697 331.191C252.304 343.96 254.603 355.822 255.005 360.703C255.12 362.008 256.212 363.029 257.591 363.029H285.747Z" fill="#EE2FFF"/>
<path d="M272.92 287.749C283.712 287.749 292.506 296.477 292.64 307.269V307.802C292.64 308.002 292.64 308.269 292.573 308.668C292.24 314.265 289.508 319.528 285.111 322.992L284.645 323.325L284.245 323.725C276.917 331.853 275.385 352.505 275.118 363.831H270.788C270.455 352.505 268.856 331.853 261.527 323.725L261.128 323.325L260.661 322.992C258.461 321.252 256.657 319.062 255.37 316.569C254.083 314.076 253.343 311.337 253.2 308.535C253.2 308.269 253.133 308.069 253.133 307.935V307.336C253.333 296.543 262.193 287.749 272.92 287.749ZM272.92 281.087C267.437 281.089 262.092 282.799 257.626 285.979C253.16 289.159 249.796 293.651 248.001 298.831C246.206 304.011 246.069 309.621 247.61 314.883C249.15 320.144 252.292 324.795 256.597 328.188C264.592 337.116 264.192 370.56 264.192 370.56H281.78C281.78 370.56 281.247 337.116 289.308 328.255C295.038 323.725 298.835 316.863 299.302 309.068C299.368 308.335 299.368 307.869 299.368 307.536V307.269C299.296 300.301 296.478 293.643 291.526 288.741C286.574 283.839 279.888 281.088 272.92 281.087Z" fill="#858585"/>
<path d="M296.01 383.363C296.445 383.293 296.863 383.138 297.238 382.905C297.613 382.672 297.938 382.368 298.194 382.008C298.451 381.649 298.633 381.242 298.731 380.812C298.828 380.381 298.839 379.936 298.764 379.501C298.688 379.067 298.526 378.651 298.288 378.279C298.051 377.908 297.741 377.587 297.378 377.336C297.016 377.084 296.606 376.908 296.175 376.816C295.743 376.724 295.297 376.719 294.864 376.801L249.961 384.662C249.529 384.738 249.117 384.897 248.748 385.132C248.378 385.366 248.058 385.671 247.806 386.03C247.554 386.388 247.376 386.792 247.28 387.219C247.185 387.647 247.174 388.088 247.249 388.52C247.325 388.951 247.484 389.363 247.719 389.733C247.953 390.103 248.258 390.423 248.616 390.674C248.975 390.926 249.379 391.105 249.806 391.201C250.233 391.296 250.675 391.307 251.107 391.231L296.01 383.363ZM295.677 397.687C296.513 397.5 297.245 396.999 297.721 396.287C298.197 395.574 298.38 394.706 298.232 393.862C298.085 393.018 297.618 392.264 296.929 391.755C296.239 391.247 295.381 391.023 294.531 391.131L250.227 398.926C249.782 398.985 249.353 399.133 248.966 399.362C248.579 399.591 248.243 399.896 247.977 400.259C247.712 400.621 247.522 401.034 247.42 401.471C247.318 401.909 247.305 402.363 247.383 402.805C247.461 403.248 247.627 403.67 247.873 404.047C248.118 404.423 248.437 404.746 248.81 404.996C249.184 405.246 249.604 405.418 250.045 405.502C250.487 405.585 250.941 405.578 251.38 405.482L295.677 397.687Z" fill="#D3D3D3"/>
<path d="M260.194 252.705C252.799 265.496 256.53 281.486 268.522 288.348C280.514 295.21 296.17 290.479 303.565 277.688C310.96 264.897 307.229 248.908 295.237 242.046C283.245 235.183 267.589 239.914 260.194 252.705Z" fill="#A279B6"/>
<ellipse cx="177.32" cy="203.983" rx="33.3108" ry="6.66217" transform="rotate(42.7243 177.32 203.983)" fill="#B542FC"/>
<ellipse cx="270.236" cy="176.828" rx="33.3108" ry="6.66217" transform="rotate(86.5583 270.236 176.828)" fill="#B542FC"/>
<ellipse cx="360.793" cy="208.172" rx="33.3108" ry="6.66217" transform="rotate(143.872 360.793 208.172)" fill="#B542FC"/>
</g>
<g filter="url(#filter4_i_340_1483)">
<path d="M285.959 369.189H258.715C253.182 369.189 248.629 373.671 248.7 379.204V406.449C248.7 411.982 253.182 416.464 258.715 416.464H260.452C261.633 418.569 263.353 420.322 265.436 421.542C267.518 422.761 269.888 423.404 272.302 423.404C274.716 423.404 277.086 422.761 279.169 421.542C281.251 420.322 282.972 418.569 284.152 416.464H285.959C291.492 416.464 295.975 411.982 295.975 406.449V379.204C295.975 373.671 291.492 369.189 285.959 369.189Z" fill="#9B9B9B"/>
</g>
<g filter="url(#filter5_iii_340_1483)">
<path d="M289.531 375.212C291.212 375.212 292.543 373.952 292.683 372.341C293.173 366.318 295.764 351.68 309.912 335.991C316.662 330.676 322.207 323.988 326.179 316.369C330.151 308.751 332.461 300.376 332.954 291.798C333.094 290.117 333.164 288.996 333.164 288.296V287.596C332.744 254.118 305.64 227.224 272.232 227.224C256.199 227.223 240.813 233.548 229.417 244.826C218.021 256.104 211.536 271.423 211.37 287.456C211.37 287.456 211.3 289.137 211.58 291.938C212.7 309.727 221.385 325.486 234.622 335.921C248.769 351.68 251.571 366.318 252.061 372.341C252.201 373.952 253.532 375.212 255.213 375.212H289.531Z" fill="#EE2FFF"/>
</g>
<path d="M285.788 367.297C287.237 367.297 288.385 366.223 288.506 364.851C288.929 359.72 291.164 347.251 303.366 333.886C309.188 329.358 313.971 323.661 317.397 317.171C320.823 310.681 322.815 303.546 323.24 296.239C323.361 294.807 323.422 293.853 323.422 293.256V292.659C323.059 264.141 299.681 241.23 270.867 241.23C257.038 241.229 243.768 246.618 233.939 256.225C224.109 265.833 218.516 278.883 218.372 292.54C218.372 292.54 218.312 293.972 218.554 296.358C219.52 311.513 227.011 324.937 238.428 333.827C250.63 347.251 253.047 359.72 253.469 364.851C253.59 366.223 254.738 367.297 256.188 367.297H285.788Z" fill="white" fill-opacity="0.15"/>
<path d="M272.302 288.157C283.648 288.157 292.893 297.332 293.033 308.678V309.238C293.033 309.448 293.033 309.729 292.963 310.149C292.613 316.032 289.741 321.565 285.119 325.207L284.628 325.557L284.208 325.977C276.504 334.522 274.893 356.233 274.613 368.14H270.061C269.711 356.233 268.03 334.522 260.326 325.977L259.905 325.557L259.415 325.207C257.102 323.377 255.205 321.075 253.853 318.454C252.5 315.833 251.722 312.954 251.571 310.009C251.571 309.729 251.501 309.518 251.501 309.378V308.748C251.711 297.402 261.026 288.157 272.302 288.157ZM272.302 281.153C266.539 281.155 260.919 282.953 256.224 286.296C251.53 289.639 247.993 294.361 246.106 299.807C244.219 305.252 244.075 311.151 245.695 316.682C247.314 322.213 250.617 327.102 255.143 330.67C263.547 340.055 263.127 375.213 263.127 375.213H281.617C281.617 375.213 281.057 340.055 289.531 330.74C295.554 325.977 299.546 318.763 300.037 310.569C300.107 309.799 300.107 309.308 300.107 308.958V308.678C300.031 301.353 297.068 294.353 291.862 289.2C286.656 284.046 279.627 281.155 272.302 281.153Z" fill="#858585"/>
<path d="M296.577 388.672C297.035 388.598 297.474 388.435 297.868 388.19C298.262 387.946 298.604 387.625 298.873 387.247C299.143 386.87 299.334 386.442 299.437 385.99C299.54 385.537 299.551 385.069 299.472 384.612C299.392 384.155 299.222 383.718 298.972 383.327C298.722 382.937 298.397 382.599 298.015 382.335C297.634 382.071 297.204 381.885 296.75 381.789C296.296 381.692 295.828 381.687 295.372 381.773L248.167 390.038C247.713 390.117 247.28 390.284 246.891 390.531C246.503 390.778 246.166 391.098 245.902 391.475C245.637 391.851 245.449 392.276 245.349 392.726C245.248 393.175 245.237 393.639 245.316 394.093C245.395 394.546 245.563 394.98 245.81 395.368C246.056 395.757 246.377 396.093 246.754 396.358C247.13 396.623 247.555 396.811 248.004 396.911C248.453 397.011 248.918 397.022 249.371 396.943L296.577 388.672ZM296.226 403.73C297.105 403.534 297.875 403.007 298.375 402.258C298.876 401.509 299.068 400.596 298.913 399.709C298.758 398.822 298.267 398.029 297.543 397.494C296.818 396.959 295.915 396.725 295.022 396.838L248.447 405.033C247.979 405.095 247.528 405.251 247.121 405.491C246.715 405.732 246.361 406.053 246.082 406.434C245.802 406.815 245.603 407.248 245.496 407.708C245.388 408.168 245.375 408.645 245.457 409.111C245.539 409.576 245.714 410.02 245.972 410.416C246.23 410.812 246.565 411.151 246.957 411.414C247.35 411.677 247.792 411.858 248.256 411.945C248.72 412.033 249.197 412.026 249.659 411.924L296.226 403.73Z" fill="#D3D3D3"/>
<path d="M258.925 251.318C251.151 264.765 255.073 281.574 267.68 288.788C280.286 296.002 296.745 291.029 304.519 277.582C312.293 264.135 308.371 247.326 295.764 240.112C283.158 232.898 266.699 237.871 258.925 251.318Z" fill="#A279B6"/>
<ellipse cx="171.802" cy="200.097" rx="35.0186" ry="7.00372" transform="rotate(42.7243 171.802 200.097)" fill="#B542FC"/>
<ellipse cx="269.481" cy="171.551" rx="35.0186" ry="7.00372" transform="rotate(86.5583 269.481 171.551)" fill="#B542FC"/>
<ellipse cx="364.682" cy="204.5" rx="35.0186" ry="7.00372" transform="rotate(143.872 364.682 204.5)" fill="#B542FC"/>
<path d="M406.024 404.676C398.746 412.464 392.506 416.358 387.304 416.358C384.591 416.358 382.053 415.129 379.691 412.671C377.329 410.213 376.244 406.08 376.436 400.271C370.85 410.995 364.498 416.358 357.381 416.358C353.933 416.358 351.157 415.033 349.05 412.384C346.975 409.735 345.938 406.176 345.938 401.707C345.938 396.888 347.885 388.924 351.779 377.817C355.066 368.305 356.71 361.985 356.71 358.857C356.71 356.623 356.184 354.836 355.13 353.495C354.109 352.123 352.768 351.436 351.109 351.436C348.587 351.436 346.145 352.936 343.783 355.937C341.422 358.905 340.241 362.017 340.241 365.273C340.241 368.145 341.31 370.555 343.448 372.502C344.246 373.204 344.645 373.795 344.645 374.274C344.645 375.327 343.943 376.62 342.539 378.152C341.134 379.684 339.874 380.45 338.756 380.45C337.448 380.45 336.203 379.508 335.022 377.625C333.841 375.742 333.251 373.683 333.251 371.449C333.251 365.353 335.453 359.767 339.858 354.692C344.262 349.585 349.066 347.032 354.269 347.032C358.354 347.032 361.674 348.627 364.227 351.819C366.78 354.979 368.057 359.129 368.057 364.267C368.057 370.3 366.174 378.599 362.408 389.163C359.79 396.473 358.482 401.404 358.482 403.957C358.482 405.617 358.849 406.926 359.583 407.883C360.349 408.809 361.386 409.272 362.695 409.272C365.153 409.272 367.499 407.612 369.733 404.293C371.967 400.973 373.739 397.494 375.047 393.855C376.388 390.217 378 384.902 379.883 377.912L384.048 363.023C385.197 359.065 386.203 355.825 387.064 353.303C387.926 350.75 388.469 349.314 388.692 348.995C388.947 348.643 389.346 348.404 389.889 348.276C390.464 348.149 391.533 347.989 393.097 347.798L399.943 347.032C400.933 347.032 401.364 347.255 401.236 347.702L398.986 355.841C396.879 363.342 394.629 372.231 392.235 382.508C389.873 392.786 388.692 399.329 388.692 402.138C388.692 404.245 389.091 405.936 389.889 407.213C390.687 408.458 391.756 409.08 393.097 409.08C394.597 409.08 396.225 408.426 397.98 407.117C399.736 405.809 402.417 403.159 406.024 399.17V404.676ZM410.586 393.712C410.367 393.329 410.257 392.686 410.257 391.783C410.257 390.88 410.695 389.977 411.571 389.074C412.473 388.172 413.8 387.72 415.551 387.72H434.551C434.77 388.103 434.88 388.746 434.88 389.649C434.88 390.552 434.428 391.455 433.526 392.357C432.65 393.26 431.337 393.712 429.586 393.712H410.586ZM452.198 414.271C450.337 416.05 448.545 416.939 446.822 416.939C445.864 416.939 445.208 416.583 444.852 415.872C445.481 415.243 445.796 414.613 445.796 413.984C445.796 413.355 445.7 412.876 445.508 412.548L444.975 411.604L445.632 412.835C444.975 412.534 444.469 412.028 444.113 411.317C443.758 410.605 443.58 409.744 443.58 408.731C443.58 407.692 444.154 406.515 445.303 405.202C444.756 404.436 444.483 403.588 444.483 402.658C444.483 401.728 444.633 400.962 444.934 400.36C445.262 399.731 445.673 399.17 446.165 398.677C447.259 397.638 448.422 397.118 449.653 397.118C450.474 397.118 451.062 397.405 451.418 397.98C450.679 398.773 450.31 400.031 450.31 401.755C450.31 403.451 450.597 404.901 451.172 406.105C451.774 407.309 452.581 408.335 453.593 409.183C455.727 410.988 458.353 411.891 461.472 411.891C464.947 411.891 467.354 410.619 468.695 408.075C469.078 407.309 469.269 406.543 469.269 405.777C469.269 404.983 469.091 404.286 468.736 403.684C468.38 403.055 467.915 402.453 467.34 401.878C466.383 400.948 464.919 399.881 462.949 398.677C461.062 397.337 458.832 396.666 456.26 396.666C454.591 396.666 453.47 396.803 452.895 397.077C453.251 396.256 453.429 395.435 453.429 394.615C453.429 393.794 452.882 392.905 451.787 391.947C450.693 390.962 449.708 389.977 448.833 388.992C447.984 388.007 447.3 387.023 446.781 386.038C445.741 384.177 445.221 382.208 445.221 380.128C445.221 378.049 445.645 376.216 446.493 374.629C447.369 373.015 448.586 371.634 450.146 370.484C453.401 368.05 457.574 366.832 462.662 366.832C465.124 366.832 466.807 366.942 467.71 367.16C468.64 367.379 469.379 367.584 469.926 367.776C470.664 368.05 471.567 368.186 472.634 368.186C473.701 368.186 474.44 367.954 474.85 367.489C475.288 367.024 475.507 366.6 475.507 366.217C475.507 365.806 475.466 365.492 475.384 365.273C475.548 365.218 475.794 365.191 476.122 365.191C476.451 365.191 476.82 365.286 477.23 365.478C477.668 365.669 478.051 365.929 478.38 366.258C479.036 366.996 479.364 367.79 479.364 368.638C479.364 369.459 479.2 370.088 478.872 370.526C479.638 371.237 480.021 372.249 480.021 373.562C480.021 374.875 479.474 375.983 478.38 376.886C478.626 377.379 478.749 377.981 478.749 378.692C478.749 379.403 478.366 380.087 477.6 380.744C476.834 381.4 476.109 381.729 475.425 381.729C474.248 381.729 473.455 381.578 473.045 381.277C473.4 380.402 473.578 379.458 473.578 378.446C473.578 377.406 473.305 376.421 472.757 375.491C472.21 374.561 471.513 373.809 470.664 373.234C469.078 372.14 467.19 371.592 465.001 371.592C462.238 371.592 460.378 372.468 459.42 374.219C459.119 374.766 458.969 375.368 458.969 376.025C458.969 376.654 459.051 377.242 459.215 377.789C459.407 378.309 459.707 378.842 460.118 379.39C460.911 380.457 462.033 381.469 463.483 382.426C465.371 383.657 466.684 384.273 467.423 384.273C469.009 384.273 470.391 383.89 471.567 383.124C471.239 384.437 471.075 385.354 471.075 385.874C471.075 386.667 471.704 387.583 472.963 388.623C476.492 391.058 478.899 393.288 480.185 395.312C481.416 397.282 482.032 399.471 482.032 401.878C482.032 404.286 481.498 406.351 480.431 408.075C479.364 409.771 477.914 411.235 476.081 412.466C472.279 415.01 467.669 416.282 462.252 416.282C458.558 416.282 455.207 415.612 452.198 414.271ZM450.761 376.681C449.968 377.064 449.571 378.131 449.571 379.882C449.571 381.606 450.132 383.261 451.254 384.848C452.375 386.407 454.154 388.172 456.589 390.141C457.163 390.579 457.45 391.003 457.45 391.414C457.45 392.043 457.396 392.549 457.286 392.932C457.615 392.85 458.189 392.768 459.01 392.686C461.007 392.494 463.483 393.424 466.438 395.476C471.143 398.376 473.496 401.427 473.496 404.628C473.496 405.831 473.332 406.734 473.004 407.336C473.988 407.145 474.741 406.31 475.261 404.833C475.397 404.395 475.466 403.944 475.466 403.479C475.466 401.263 474.262 399.019 471.855 396.748C469.474 394.45 466.041 392.234 461.554 390.1C454.113 386.325 450.515 381.852 450.761 376.681ZM495.533 414.764C494.275 415.639 492.838 416.077 491.224 416.077C489.61 416.077 488.434 415.708 487.695 414.969C486.984 414.203 486.628 413.478 486.628 412.794C486.628 411.891 486.779 411.235 487.079 410.824C487.681 411.289 488.447 411.522 489.378 411.522C491.128 411.522 492.264 410.674 492.784 408.978V396.174C492.784 394.97 492.524 394.095 492.004 393.548C491.265 392.699 489.856 391.769 487.777 390.757C489.692 389.882 490.91 389.184 491.429 388.664C492.332 387.761 492.784 386.653 492.784 385.34V379.349C492.784 377.023 491.99 375.765 490.403 375.573C489.938 375.518 489.35 375.491 488.639 375.491C487.928 375.491 487.271 375.724 486.669 376.189C486.286 375.669 486.095 375.135 486.095 374.588C486.095 374.014 486.231 373.384 486.505 372.7C486.806 371.989 487.244 371.319 487.818 370.69C489.268 369.212 490.937 368.474 492.825 368.474C494.74 368.474 496.327 368.775 497.585 369.376C499.09 367.68 500.704 366.832 502.427 366.832C505.245 366.832 506.654 368.309 506.654 371.264L506.613 374.67C508.911 371.004 512.112 368.583 516.216 367.407C517.557 367.024 518.938 366.832 520.361 366.832C523.589 366.832 526.27 367.612 528.404 369.171C530.538 370.731 532.07 372.947 533 375.819C535.052 371.579 538.376 368.802 542.972 367.489C544.477 367.051 546.173 366.832 548.061 366.832C549.976 366.832 551.768 367.201 553.437 367.94C555.133 368.651 556.57 369.677 557.746 371.018C560.126 373.809 561.316 377.666 561.316 382.591L561.193 385.34C561.193 386.653 561.48 387.597 562.055 388.172C562.903 389.02 564.285 389.882 566.2 390.757C564.12 391.769 562.835 392.549 562.342 393.096C561.576 393.944 561.193 394.97 561.193 396.174V408.978C561.713 410.674 562.848 411.522 564.599 411.522C565.256 411.522 565.885 411.289 566.487 410.824C566.651 411.043 566.829 411.262 567.02 411.481C567.239 411.672 567.349 412.11 567.349 412.794C567.349 413.478 566.979 414.203 566.241 414.969C565.529 415.708 564.38 416.077 562.794 416.077C561.234 416.077 559.784 415.639 558.444 414.764C557.212 415.639 555.831 416.077 554.299 416.077C552.794 416.077 551.467 415.667 550.318 414.846C549.251 415.667 548.047 416.077 546.707 416.077C545.394 416.077 544.34 415.735 543.547 415.051C542.754 414.367 542.357 413.382 542.357 412.096C542.357 411.495 542.562 411.016 542.972 410.66C543.602 411.153 544.231 411.399 544.86 411.399C546.064 411.399 546.926 410.729 547.446 409.388V384.93C547.446 378.5 545.106 375.286 540.428 375.286C539.088 375.286 537.774 376.066 536.489 377.625C535.203 379.157 534.368 381.017 533.985 383.206L533.862 409.388C534.382 410.729 535.244 411.399 536.448 411.399C537.077 411.399 537.706 411.153 538.335 410.66C538.746 411.016 538.951 411.672 538.951 412.63C538.951 413.56 538.554 414.367 537.761 415.051C536.967 415.735 535.9 416.077 534.56 416.077C533.219 416.077 532.015 415.667 530.948 414.846C529.772 415.667 528.432 416.077 526.927 416.077C525.449 416.077 524.136 415.667 522.987 414.846C521.92 415.667 520.716 416.077 519.376 416.077C518.063 416.077 517.009 415.735 516.216 415.051C515.423 414.367 515.026 413.382 515.026 412.096C515.026 411.495 515.231 411.016 515.642 410.66C516.271 411.153 516.9 411.399 517.529 411.399C518.733 411.399 519.595 410.729 520.115 409.388V384.93C520.115 379.814 518.87 376.763 516.38 375.778C515.587 375.45 514.711 375.286 513.754 375.286C511.921 375.286 510.334 376.079 508.993 377.666C507.735 379.143 506.942 381.004 506.613 383.247L506.531 409.388C507.051 410.729 507.913 411.399 509.117 411.399C509.746 411.399 510.375 411.153 511.004 410.66C511.497 411.071 511.743 411.741 511.743 412.671C511.743 413.574 511.319 414.367 510.471 415.051C509.65 415.735 508.556 416.077 507.188 416.077C505.847 416.077 504.657 415.68 503.618 414.887C502.523 415.68 501.224 416.077 499.719 416.077C498.214 416.077 496.819 415.639 495.533 414.764ZM550.154 377.05C550.975 379.048 551.385 382.946 551.385 388.746V404.381C552.753 403.862 553.505 402.07 553.642 399.006C553.806 395.941 553.888 393.233 553.888 390.88C553.888 388.5 553.82 386.516 553.683 384.93C553.546 383.343 553.328 382.016 553.027 380.949C552.479 379.034 551.522 377.734 550.154 377.05ZM522.823 377.05C523.644 379.048 524.054 382.946 524.054 388.746V404.381C525.422 403.862 526.174 402.07 526.311 399.006C526.475 395.941 526.557 393.233 526.557 390.88C526.557 388.5 526.489 386.516 526.352 384.93C526.216 383.343 525.997 382.016 525.696 380.949C525.149 379.034 524.191 377.734 522.823 377.05ZM496.723 404.381C498.009 403.561 498.734 401.851 498.898 399.252C499.008 397.282 499.062 395.517 499.062 393.958V388.746C499.062 384.697 498.953 382.098 498.734 380.949C498.351 378.979 497.681 377.68 496.723 377.05V379.718C496.723 384.341 496.614 387.064 496.395 387.884C496.203 388.678 495.875 389.28 495.41 389.69C494.972 390.1 494.316 390.456 493.44 390.757C495.082 391.332 496.012 392.015 496.231 392.809C496.559 394.122 496.723 397.09 496.723 401.714V404.381ZM600.097 411.358C597.607 414.641 593.873 416.282 588.893 416.282C582.82 416.282 578.265 414.463 575.228 410.824C573.915 409.265 573.012 407.528 572.519 405.613C572.246 404.463 571.767 403.588 571.083 402.986C570.399 402.357 569.551 401.796 568.539 401.304C570.509 400.401 571.918 398.705 572.766 396.215C573.669 393.589 575.173 391.687 577.28 390.511C579.551 389.28 582.054 388.637 584.79 388.582C587.525 388.5 589.55 388.404 590.863 388.295C592.176 388.185 593.339 388.007 594.351 387.761C596.239 387.324 597.716 386.516 598.783 385.34V379.184C598.783 376.476 598.223 374.492 597.101 373.234C596.007 371.975 594.324 371.346 592.053 371.346C589.81 371.346 588.141 371.77 587.047 372.618C585.98 373.439 585.446 374.547 585.446 375.942C585.446 378.076 586.541 379.116 588.729 379.061C588.292 381.195 587.142 382.262 585.282 382.262C584.735 382.262 584.201 382.166 583.682 381.975V382.098C583.682 382.809 584.01 383.261 584.667 383.452C583.983 384.492 582.834 384.998 581.219 384.971C579.605 384.943 578.347 384.082 577.444 382.385C577.034 382.495 576.555 382.549 576.008 382.549C575.488 382.549 574.9 382.372 574.243 382.016C573.614 381.66 573.108 381.168 572.725 380.539C574.093 379.718 574.927 378.446 575.228 376.722C575.556 374.616 577.239 372.482 580.276 370.32C583.942 367.721 588.62 366.422 594.31 366.422C603.749 366.422 609.508 369.322 611.587 375.122C612.271 377.064 612.613 379.362 612.613 382.016V385.34C612.613 386.681 612.941 387.775 613.598 388.623C614.282 389.471 615.431 390.169 617.045 390.716C615.322 391.509 614.214 392.221 613.721 392.85C612.982 393.807 612.613 394.902 612.613 396.133V408.444C613.406 410.496 614.542 411.522 616.019 411.522C616.949 411.522 617.715 411.289 618.317 410.824C618.7 411.344 618.892 412.001 618.892 412.794C618.892 413.56 618.495 414.299 617.702 415.01C616.936 415.721 615.773 416.077 614.214 416.077C612.654 416.077 611.204 415.639 609.864 414.764C608.687 415.639 607.634 416.077 606.704 416.077C605.801 416.077 605.007 415.981 604.323 415.79C603.667 415.626 603.051 415.352 602.477 414.969C601.191 414.121 600.398 412.917 600.097 411.358ZM602.682 404.381C604.269 403.752 605.103 400.729 605.185 395.312C605.185 394.163 605.185 392.85 605.185 391.373C605.185 389.895 605.172 388.637 605.144 387.597C605.144 386.53 605.131 385.518 605.103 384.56C604.994 381.113 604.679 379.061 604.159 378.405C603.64 377.721 603.147 377.269 602.682 377.05V404.381ZM587.539 401.468C587.539 402.617 587.662 403.738 587.909 404.833C588.155 405.927 588.524 406.885 589.017 407.705C590.111 409.429 591.657 410.291 593.654 410.291C595.158 410.291 596.403 409.675 597.388 408.444C598.318 407.24 598.783 405.695 598.783 403.807V390.429C597.033 391.441 594.789 392.139 592.053 392.522C589.044 392.987 587.539 395.969 587.539 401.468ZM581.384 410.701C581.657 410.51 581.794 410.263 581.794 409.963C581.794 409.552 581.602 408.978 581.219 408.239C579.851 405.722 579.168 403.656 579.168 402.042C579.168 400.428 579.222 399.265 579.332 398.554C579.468 397.843 579.633 397.241 579.824 396.748C580.043 396.229 580.276 395.777 580.522 395.394C580.795 395.011 581.028 394.669 581.219 394.368C581.575 393.739 581.753 393.315 581.753 393.096C581.753 392.85 581.63 392.645 581.384 392.481C580.262 393 579.441 393.616 578.921 394.327C577.991 395.586 577.307 397.214 576.869 399.211C576.76 399.785 575.802 400.483 573.997 401.304C575.748 402.097 576.705 402.795 576.869 403.397C577.8 406.652 579.304 409.087 581.384 410.701ZM631.654 414.764C630.396 415.639 628.96 416.077 627.346 416.077C625.731 416.077 624.555 415.708 623.816 414.969C623.105 414.203 622.749 413.478 622.749 412.794C622.749 411.891 622.9 411.235 623.201 410.824C623.803 411.289 624.569 411.522 625.499 411.522C627.25 411.522 628.385 410.674 628.905 408.978V396.543C628.905 395.285 628.659 394.355 628.166 393.753C627.291 392.686 625.868 391.673 623.898 390.716C627.236 389.184 628.905 386.831 628.905 383.657V379.349C628.905 377.023 628.112 375.765 626.525 375.573C626.06 375.518 625.471 375.491 624.76 375.491C624.049 375.491 623.392 375.724 622.79 376.189C622.407 375.669 622.216 375.135 622.216 374.588C622.216 374.014 622.353 373.384 622.626 372.7C622.927 371.989 623.379 371.319 623.98 370.69C625.403 369.212 627.058 368.474 628.946 368.474C630.861 368.474 632.448 368.775 633.706 369.376C635.211 367.68 636.825 366.832 638.549 366.832C641.23 366.832 642.57 368.309 642.57 371.264V376.886C645.306 370.156 649.656 366.791 655.62 366.791C658.301 366.791 660.476 367.612 662.145 369.253C663.869 370.922 664.731 373.234 664.731 376.189V376.763C664.731 376.955 664.703 377.351 664.649 377.953C664.594 378.528 664.608 379.116 664.69 379.718C664.799 380.32 664.963 380.812 665.182 381.195C665.483 381.77 666.044 382.221 666.865 382.549C666.673 383.288 666.222 383.958 665.51 384.56C664.826 385.135 664.06 385.422 663.212 385.422H662.433C661.366 386.763 659.875 387.707 657.959 388.254C657.412 388.418 656.81 388.5 656.154 388.5C655.525 388.5 654.964 388.363 654.471 388.09C654.006 387.789 653.746 387.474 653.692 387.146C654.211 386.899 654.471 386.407 654.471 385.668V385.463C654.252 385.518 654.061 385.545 653.897 385.545H653.486C652.584 385.545 651.763 385.203 651.024 384.519C650.313 383.835 649.848 382.974 649.629 381.934C651.106 381.989 652.392 381.441 653.486 380.292C654.471 379.28 654.964 378.241 654.964 377.174C654.964 374.657 653.869 373.398 651.681 373.398C649.793 373.398 647.892 374.903 645.977 377.912C644.171 380.675 643.036 383.534 642.57 386.489V408.69C642.871 409.648 643.336 410.359 643.966 410.824C644.595 411.289 645.457 411.522 646.551 411.522C647.645 411.522 648.493 411.289 649.095 410.824C649.396 411.235 649.547 411.837 649.547 412.63C649.547 413.423 649.177 414.203 648.439 414.969C647.727 415.708 646.51 416.077 644.786 416.077C643.09 416.077 641.462 415.612 639.903 414.682C638.809 415.612 637.482 416.077 635.922 416.077C634.363 416.077 632.94 415.639 631.654 414.764ZM635.184 395.312C635.211 394.382 635.225 393.602 635.225 392.973C635.252 392.344 635.266 391.838 635.266 391.455V390.347C635.266 389.936 635.252 389.416 635.225 388.787C635.225 388.131 635.211 387.406 635.184 386.612C635.184 385.791 635.17 384.998 635.143 384.232C634.978 381.387 634.664 379.567 634.199 378.774C633.761 377.953 633.31 377.392 632.845 377.092V379.759C632.845 384.355 632.735 387.064 632.516 387.884C632.325 388.678 631.996 389.28 631.531 389.69C631.094 390.073 630.437 390.415 629.562 390.716C631.203 391.29 632.133 391.988 632.352 392.809C632.68 394.122 632.845 397.077 632.845 401.673V404.34C634.103 403.52 634.814 401.851 634.978 399.334C635.115 397.556 635.184 396.215 635.184 395.312ZM695.714 409.265C696.234 408.718 696.644 408.034 696.945 407.213C697.246 406.365 697.396 405.489 697.396 404.587C697.396 403.656 697.342 402.808 697.232 402.042C697.424 401.632 697.944 401.317 698.792 401.098C699.64 400.852 700.201 400.729 700.474 400.729C701.514 400.729 702.348 401.126 702.978 401.919C703.607 402.685 703.921 403.766 703.921 405.161C703.921 406.529 703.511 407.883 702.69 409.224C701.897 410.564 700.83 411.754 699.489 412.794C696.507 415.12 693.033 416.282 689.066 416.282C681.515 416.282 676.508 413.423 674.046 407.705C673.143 405.599 672.692 402.959 672.692 399.785V394.779C672.692 393.493 671.283 392.139 668.465 390.716C671.283 389.102 672.692 386.927 672.692 384.191V379.349C672.692 376.23 671.42 374.67 668.875 374.67C667.945 374.67 667.179 374.903 666.577 375.368C666.194 374.848 666.003 374.315 666.003 373.767C666.003 373.193 666.099 372.577 666.29 371.921C666.509 371.237 666.878 370.621 667.398 370.074C668.711 368.651 670.749 368.159 673.513 368.597V367.284C673.513 364.411 674.238 361.88 675.688 359.692C676.973 357.722 678.109 356.737 679.094 356.737C680.106 356.737 680.886 357.079 681.433 357.763C681.898 355.602 682.514 354.042 683.28 353.085C684.046 352.127 685.14 351.648 686.563 351.648V368.761H699.9C700.119 369.199 700.228 369.937 700.228 370.977C700.228 371.989 699.831 372.81 699.038 373.439C698.245 374.041 697.287 374.342 696.165 374.342H686.563V402.124C686.563 406.885 687.643 409.675 689.805 410.496C690.434 410.715 691.104 410.824 691.815 410.824C692.554 410.824 693.252 410.701 693.908 410.455C694.592 410.181 695.194 409.785 695.714 409.265ZM676.632 404.381C677.917 403.561 678.642 401.851 678.807 399.252C678.916 397.391 678.971 395.941 678.971 394.902C678.998 393.862 679.012 393.028 679.012 392.398C679.039 391.742 679.053 391.236 679.053 390.88V389.239C679.053 388.445 679.039 387.433 679.012 386.202C679.012 384.943 678.998 383.589 678.971 382.139C678.971 380.662 678.943 379.253 678.889 377.912C678.807 374.684 678.683 372.714 678.519 372.003C678.191 370.416 677.562 369.322 676.632 368.72V381.524C676.632 385.326 676.563 387.337 676.426 387.556C676.317 387.775 676.221 388.035 676.139 388.336C675.893 389.157 674.963 389.84 673.349 390.388C674.99 390.962 675.92 391.66 676.139 392.481C676.467 393.794 676.632 396.872 676.632 401.714V404.381Z" fill="#5508B7"/>
<rect x="24.5249" y="5" width="851.4" height="594" rx="29.7" fill="black" fill-opacity="0.5"/>
<path d="M514.085 281.669C528.314 288.898 528.588 309.124 514.56 316.729L427.775 363.778C414.686 370.874 398.739 361.524 398.537 346.635L397.293 254.865C397.091 239.975 412.779 230.204 426.056 236.949L514.085 281.669Z" fill="#161414"/>
</g>
</g>
<defs>
<filter id="filter0_d_340_1483" x="0.249992" y="0.0499935" width="900.9" height="643.5" filterUnits="userSpaceOnUse" color-interpolation-filters="sRGB">
<feFlood flood-opacity="0" result="BackgroundImageFix"/>
<feColorMatrix in="SourceAlpha" type="matrix" values="0 0 0 0 0 0 0 0 0 0 0 0 0 0 0 0 0 0 127 0" result="hardAlpha"/>
<feOffset dy="19.8"/>
<feGaussianBlur stdDeviation="12.375"/>
<feComposite in2="hardAlpha" operator="out"/>
<feColorMatrix type="matrix" values="0 0 0 0 0 0 0 0 0 0 0 0 0 0 0 0 0 0 0.2 0"/>
<feBlend mode="normal" in2="BackgroundImageFix" result="effect1_dropShadow_340_1483"/>
<feBlend mode="normal" in="SourceGraphic" in2="effect1_dropShadow_340_1483" result="shape"/>
</filter>
<filter id="filter1_f_340_1483" x="12.3557" y="3.49995" width="515.706" height="552.973" filterUnits="userSpaceOnUse" color-interpolation-filters="sRGB">
<feFlood flood-opacity="0" result="BackgroundImageFix"/>
<feBlend mode="normal" in="SourceGraphic" in2="BackgroundImageFix" result="shape"/>
<feGaussianBlur stdDeviation="70.0373" result="effect1_foregroundBlur_340_1483"/>
</filter>
<filter id="filter2_i_340_1483" x="250.467" y="364.827" width="72.9851" height="79.5862" filterUnits="userSpaceOnUse" color-interpolation-filters="sRGB">
<feFlood flood-opacity="0" result="BackgroundImageFix"/>
<feBlend mode="normal" in="SourceGraphic" in2="BackgroundImageFix" result="shape"/>
<feColorMatrix in="SourceAlpha" type="matrix" values="0 0 0 0 0 0 0 0 0 0 0 0 0 0 0 0 0 0 127 0" result="hardAlpha"/>
<feOffset dx="28.0149" dy="28.0149"/>
<feGaussianBlur stdDeviation="14.0075"/>
<feComposite in2="hardAlpha" operator="arithmetic" k2="-1" k3="1"/>
<feColorMatrix type="matrix" values="0 0 0 0 0 0 0 0 0 0 0 0 0 0 0 0 0 0 0.25 0"/>
<feBlend mode="normal" in2="shape" result="effect1_innerShadow_340_1483"/>
</filter>
<filter id="filter3_iii_340_1483" x="207.947" y="215.779" width="136.873" height="175.79" filterUnits="userSpaceOnUse" color-interpolation-filters="sRGB">
<feFlood flood-opacity="0" result="BackgroundImageFix"/>
<feBlend mode="normal" in="SourceGraphic" in2="BackgroundImageFix" result="shape"/>
<feColorMatrix in="SourceAlpha" type="matrix" values="0 0 0 0 0 0 0 0 0 0 0 0 0 0 0 0 0 0 127 0" result="hardAlpha"/>
<feOffset dx="14.0075" dy="28.0149"/>
<feGaussianBlur stdDeviation="10.5056"/>
<feComposite in2="hardAlpha" operator="arithmetic" k2="-1" k3="1"/>
<feColorMatrix type="matrix" values="0 0 0 0 1 0 0 0 0 1 0 0 0 0 1 0 0 0 0.45 0"/>
<feBlend mode="normal" in2="shape" result="effect1_innerShadow_340_1483"/>
<feColorMatrix in="SourceAlpha" type="matrix" values="0 0 0 0 0 0 0 0 0 0 0 0 0 0 0 0 0 0 127 0" result="hardAlpha"/>
<feOffset dy="-14.0075"/>
<feGaussianBlur stdDeviation="21.0112"/>
<feComposite in2="hardAlpha" operator="arithmetic" k2="-1" k3="1"/>
<feColorMatrix type="matrix" values="0 0 0 0 0 0 0 0 0 0 0 0 0 0 0 0 0 0 0.25 0"/>
<feBlend mode="normal" in2="effect1_innerShadow_340_1483" result="effect2_innerShadow_340_1483"/>
<feColorMatrix in="SourceAlpha" type="matrix" values="0 0 0 0 0 0 0 0 0 0 0 0 0 0 0 0 0 0 127 0" result="hardAlpha"/>
<feOffset dx="-7.00373" dy="-14.0075"/>
<feGaussianBlur stdDeviation="14.0075"/>
<feComposite in2="hardAlpha" operator="arithmetic" k2="-1" k3="1"/>
<feColorMatrix type="matrix" values="0 0 0 0 0 0 0 0 0 0 0 0 0 0 0 0 0 0 0.03 0"/>
<feBlend mode="normal" in2="effect2_innerShadow_340_1483" result="effect3_innerShadow_340_1483"/>
</filter>
<filter id="filter4_i_340_1483" x="248.699" y="369.189" width="75.2908" height="82.2302" filterUnits="userSpaceOnUse" color-interpolation-filters="sRGB">
<feFlood flood-opacity="0" result="BackgroundImageFix"/>
<feBlend mode="normal" in="SourceGraphic" in2="BackgroundImageFix" result="shape"/>
<feColorMatrix in="SourceAlpha" type="matrix" values="0 0 0 0 0 0 0 0 0 0 0 0 0 0 0 0 0 0 127 0" result="hardAlpha"/>
<feOffset dx="28.0149" dy="28.0149"/>
<feGaussianBlur stdDeviation="14.0075"/>
<feComposite in2="hardAlpha" operator="arithmetic" k2="-1" k3="1"/>
<feColorMatrix type="matrix" values="0 0 0 0 0 0 0 0 0 0 0 0 0 0 0 0 0 0 0.25 0"/>
<feBlend mode="normal" in2="shape" result="effect1_innerShadow_340_1483"/>
</filter>
<filter id="filter5_iii_340_1483" x="204.358" y="213.216" width="142.814" height="183.007" filterUnits="userSpaceOnUse" color-interpolation-filters="sRGB">
<feFlood flood-opacity="0" result="BackgroundImageFix"/>
<feBlend mode="normal" in="SourceGraphic" in2="BackgroundImageFix" result="shape"/>
<feColorMatrix in="SourceAlpha" type="matrix" values="0 0 0 0 0 0 0 0 0 0 0 0 0 0 0 0 0 0 127 0" result="hardAlpha"/>
<feOffset dx="14.0075" dy="28.0149"/>
<feGaussianBlur stdDeviation="10.5056"/>
<feComposite in2="hardAlpha" operator="arithmetic" k2="-1" k3="1"/>
<feColorMatrix type="matrix" values="0 0 0 0 1 0 0 0 0 1 0 0 0 0 1 0 0 0 0.45 0"/>
<feBlend mode="normal" in2="shape" result="effect1_innerShadow_340_1483"/>
<feColorMatrix in="SourceAlpha" type="matrix" values="0 0 0 0 0 0 0 0 0 0 0 0 0 0 0 0 0 0 127 0" result="hardAlpha"/>
<feOffset dy="-14.0075"/>
<feGaussianBlur stdDeviation="21.0112"/>
<feComposite in2="hardAlpha" operator="arithmetic" k2="-1" k3="1"/>
<feColorMatrix type="matrix" values="0 0 0 0 0 0 0 0 0 0 0 0 0 0 0 0 0 0 0.25 0"/>
<feBlend mode="normal" in2="effect1_innerShadow_340_1483" result="effect2_innerShadow_340_1483"/>
<feColorMatrix in="SourceAlpha" type="matrix" values="0 0 0 0 0 0 0 0 0 0 0 0 0 0 0 0 0 0 127 0" result="hardAlpha"/>
<feOffset dx="-7.00373" dy="-14.0075"/>
<feGaussianBlur stdDeviation="14.0075"/>
<feComposite in2="hardAlpha" operator="arithmetic" k2="-1" k3="1"/>
<feColorMatrix type="matrix" values="0 0 0 0 0 0 0 0 0 0 0 0 0 0 0 0 0 0 0.03 0"/>
<feBlend mode="normal" in2="effect2_innerShadow_340_1483" result="effect3_innerShadow_340_1483"/>
</filter>
<clipPath id="clip0_340_1483">
<rect x="25" y="5" width="851.4" height="594" rx="29.7" fill="white"/>
</clipPath>
</defs>
</svg>
